<svg xmlns="http://www.w3.org/2000/svg" viewBox="0 0 1160 418" font-family="-apple-system,Segoe UI,Roboto,Helvetica,Arial,Noto Sans CJK SC,sans-serif">
<defs><marker id="ar" markerWidth="9" markerHeight="9" refX="7" refY="4.5" orient="auto"><path d="M0,0 L9,4.5 L0,9 z" fill="#475569"/></marker></defs>
<rect x="0" y="0" width="1160" height="418" fill="#ffffff"/>
<text x="580.0" y="34" text-anchor="middle" font-size="20" font-weight="700" fill="#0f172a">端云协同内存管理：设备本地通用  vs  端云个性化（千人千面）</text>
<rect x="20" y="58" width="548" height="346" rx="12" fill="none" stroke="#e2e8f0" stroke-width="1.5"/>
<rect x="592" y="58" width="548" height="346" rx="12" fill="none" stroke="7C3AED" stroke-width="1.5" opacity="0.55"/>
<line x1="572" y1="218.0" x2="592" y2="218.0" stroke="7C3AED" stroke-width="3" marker-end="url(#ar2)"/>
<defs><marker id="ar2" markerWidth="10" markerHeight="10" refX="7" refY="5" orient="auto"><path d="M0,0 L10,5 L0,10 z" fill="7C3AED"/></marker></defs>
<text x="582" y="208.0" text-anchor="middle" font-size="11" font-weight="700" fill="7C3AED">演进</text>
<rect x="24" y="64" width="540" height="32" rx="8" fill="475569"/>
<text x="294" y="85" text-anchor="middle" font-size="14.5" font-weight="700" fill="#ffffff">原始 — 设备本地通用冷热</text>
<rect x="44" y="114" width="500" height="66" rx="9" fill="#f1f5f9" stroke="#cbd5e1" stroke-width="1"/>
<text x="60" y="139" font-size="13.5" font-weight="700" fill="#0f172a">用户行为（仅本地）</text>
<line x1="294" y1="178" x2="294" y2="208" stroke="#475569" stroke-width="2" marker-end="url(#ar)"/>
<text x="306" y="192" font-size="11" fill="#64748b">观察 最近访问</text>
<rect x="44" y="210" width="500" height="66" rx="9" fill="#f1f5f9" stroke="#cbd5e1" stroke-width="1"/>
<text x="60" y="235" font-size="13.5" font-weight="700" fill="#0f172a">通用策略</text>
<text x="60" y="257" font-size="11" fill="#334155">LRU / LMKD oom_adj / 固定 zram（所有人一套）</text>
<line x1="294" y1="274" x2="294" y2="304" stroke="#475569" stroke-width="2" marker-end="url(#ar)"/>
<text x="306" y="288" font-size="11" fill="#64748b">淘汰 / 常驻</text>
<rect x="44" y="306" width="500" height="66" rx="9" fill="#f1f5f9" stroke="#cbd5e1" stroke-width="1"/>
<text x="60" y="331" font-size="13.5" font-weight="700" fill="#0f172a">RAM（有界、共享）</text>
<rect x="596" y="64" width="540" height="32" rx="8" fill="7C3AED"/>
<text x="866" y="85" text-anchor="middle" font-size="14.5" font-weight="700" fill="#ffffff">演进 — 端云协同个性化</text>
<rect x="616" y="114" width="500" height="66" rx="9" fill="#F3EEFE" stroke="7C3AED" stroke-width="2"/>
<circle cx="632" cy="130" r="9" fill="7C3AED"/><text x="632" y="134" text-anchor="middle" font-size="12" font-weight="700" fill="#ffffff">*</text>
<text x="648" y="139" font-size="13.5" font-weight="700" fill="#0f172a">云侧大脑：大模型 / 训练器</text>
<text x="632" y="161" font-size="11" fill="#334155">聚合全舰队场景 · 训练并下发按用户策略</text>
<line x1="866" y1="178" x2="866" y2="208" stroke="#475569" stroke-width="2" marker-end="url(#ar)"/>
<text x="878" y="192" font-size="11" fill="#64748b">策略下发 / 智能请求</text>
<rect x="616" y="210" width="500" height="66" rx="9" fill="#F3EEFE" stroke="7C3AED" stroke-width="2"/>
<circle cx="632" cy="226" r="9" fill="7C3AED"/><text x="632" y="230" text-anchor="middle" font-size="12" font-weight="700" fill="#ffffff">*</text>
<text x="648" y="235" font-size="13.5" font-weight="700" fill="#0f172a">端侧小脑：个性化冷热预测器</text>
<text x="632" y="257" font-size="11" fill="#334155">按用户 / 场景预测 · 智能请求仅 ~5% 调云</text>
<line x1="866" y1="274" x2="866" y2="304" stroke="#475569" stroke-width="2" marker-end="url(#ar)"/>
<text x="878" y="288" font-size="11" fill="#64748b">驱动</text>
<rect x="616" y="306" width="500" height="66" rx="9" fill="#F3EEFE" stroke="7C3AED" stroke-width="2"/>
<circle cx="632" cy="322" r="9" fill="7C3AED"/><text x="632" y="326" text-anchor="middle" font-size="12" font-weight="700" fill="#ffffff">*</text>
<text x="648" y="331" font-size="13.5" font-weight="700" fill="#0f172a">预取 / 回收 / 常驻 / zram → RAM</text>
<text x="632" y="353" font-size="11" fill="#334155">按 App 与页面执行个性化预测</text>
<text x="44" y="396" font-size="11.5" fill="#64748b">云不参与 · 无个性化 · 对每个用户预测错（86.6% GB 冷启动 &gt;1s）</text>
<text x="616" y="396" font-size="11.5" fill="7C3AED" font-weight="600">千人千面 · 冷启动 2s→690ms · 个性化精度 +3.5~41%</text>
</svg>
