<svg width="100%" viewBox="0 0 680 460" xmlns="http://www.w3.org/2000/svg" style="font-family:'Helvetica Neue',Arial,sans-serif;background:#fff">
<defs>
<marker id="arrow" viewBox="0 0 10 10" refX="8" refY="5" markerWidth="6" markerHeight="6" orient="auto-start-reverse"><path d="M2 1L8 5L2 9" fill="none" stroke="context-stroke" stroke-width="1.5" stroke-linecap="round" stroke-linejoin="round"/></marker>
</defs>

<rect x="210" y="24" width="200" height="52" rx="8" fill="#F1EFE8" stroke="#5F5E5A" stroke-width="0.5"/>
<text x="310" y="42" text-anchor="middle" dominant-baseline="central" font-size="14" font-weight="500" fill="#2C2C2A">前台 app 切换</text>
<text x="310" y="60" text-anchor="middle" dominant-baseline="central" font-size="12" fill="#5F5E5A">热路径 · 同步</text>

<rect x="460" y="24" width="180" height="52" rx="8" fill="#E1F5EE" stroke="#0F6E56" stroke-width="0.5"/>
<text x="550" y="42" text-anchor="middle" dominant-baseline="central" font-size="14" font-weight="500" fill="#085041">写入环形缓冲</text>
<text x="550" y="60" text-anchor="middle" dominant-baseline="central" font-size="12" fill="#0F6E56">定长 · 含右删失</text>

<line x1="410" y1="50" x2="458" y2="50" stroke="#5F5E5A" stroke-width="1.5" marker-end="url(#arrow)"/>
<line x1="550" y1="76" x2="550" y2="100" stroke="#B4B2A9" stroke-width="0.5" stroke-dasharray="4 4" marker-end="url(#arrow)"/>
<text x="550" y="114" text-anchor="middle" font-size="12" fill="#5F5E5A">↓ 夜间聚合 (Flow B)</text>

<line x1="310" y1="76" x2="310" y2="104" stroke="#5F5E5A" stroke-width="1.5" marker-end="url(#arrow)"/>

<rect x="210" y="104" width="200" height="52" rx="8" fill="#EEEDFE" stroke="#534AB7" stroke-width="0.5"/>
<text x="310" y="122" text-anchor="middle" dominant-baseline="central" font-size="14" font-weight="500" fill="#3C3489">查后验表 · 估回切</text>
<text x="310" y="140" text-anchor="middle" dominant-baseline="central" font-size="12" fill="#534AB7">对每个后台实体 B</text>

<line x1="310" y1="156" x2="310" y2="180" stroke="#5F5E5A" stroke-width="1.5" marker-end="url(#arrow)"/>

<rect x="230" y="180" width="160" height="44" rx="8" fill="#F1EFE8" stroke="#5F5E5A" stroke-width="0.5"/>
<text x="310" y="202" text-anchor="middle" dominant-baseline="central" font-size="14" font-weight="500" fill="#2C2C2A">本地数据足?</text>

<rect x="448" y="180" width="190" height="44" rx="8" fill="#F1EFE8" stroke="#5F5E5A" stroke-width="0.5"/>
<text x="543" y="195" text-anchor="middle" dominant-baseline="central" font-size="14" font-weight="500" fill="#2C2C2A">收缩到云先验</text>
<text x="543" y="212" text-anchor="middle" dominant-baseline="central" font-size="12" fill="#5F5E5A">无先验→保守默认 · 兜底①</text>

<line x1="390" y1="202" x2="448" y2="202" stroke="#5F5E5A" stroke-width="1.5" marker-end="url(#arrow)"/>
<text x="419" y="196" text-anchor="middle" font-size="12" fill="#5F5E5A">否</text>

<line x1="310" y1="224" x2="310" y2="262" stroke="#5F5E5A" stroke-width="1.5" marker-end="url(#arrow)"/>
<text x="322" y="243" font-size="12" fill="#5F5E5A">是</text>

<path d="M543 224 V262 H310" fill="none" stroke="#B4B2A9" stroke-width="0.5"/>
<line x1="310" y1="262" x2="310" y2="280" stroke="#5F5E5A" stroke-width="1.5" marker-end="url(#arrow)"/>

<rect x="140" y="280" width="340" height="60" rx="10" fill="#FAECE7" stroke="#993C1D" stroke-width="0.5"/>
<text x="310" y="302" text-anchor="middle" dominant-baseline="central" font-size="14" font-weight="500" fill="#712B13">回切分布 → 代价模型 argmin</text>
<text x="310" y="322" text-anchor="middle" dominant-baseline="central" font-size="12" fill="#993C1D">留热 · zram · swap · drop · 预取(回切前)</text>
<text x="485" y="310" font-size="12" fill="#993C1D">代价跨度由本机定</text>

<line x1="310" y1="340" x2="310" y2="358" stroke="#5F5E5A" stroke-width="0.5"/>
<line x1="310" y1="358" x2="146" y2="376" stroke="#5F5E5A" stroke-width="1.5" marker-end="url(#arrow)"/>
<line x1="310" y1="358" x2="340" y2="376" stroke="#5F5E5A" stroke-width="1.5" marker-end="url(#arrow)"/>
<line x1="310" y1="358" x2="534" y2="376" stroke="#5F5E5A" stroke-width="1.5" marker-end="url(#arrow)"/>

<rect x="56" y="378" width="180" height="52" rx="8" fill="#F1EFE8" stroke="#5F5E5A" stroke-width="0.5"/>
<text x="146" y="396" text-anchor="middle" dominant-baseline="central" font-size="14" font-weight="500" fill="#2C2C2A">memcg</text>
<text x="146" y="414" text-anchor="middle" dominant-baseline="central" font-size="12" fill="#5F5E5A">app 语义冷</text>

<rect x="250" y="378" width="180" height="52" rx="8" fill="#F1EFE8" stroke="#5F5E5A" stroke-width="0.5"/>
<text x="340" y="396" text-anchor="middle" dominant-baseline="central" font-size="14" font-weight="500" fill="#2C2C2A">LRU / MGLRU</text>
<text x="340" y="414" text-anchor="middle" dominant-baseline="central" font-size="12" fill="#5F5E5A">PTE 冷</text>

<rect x="444" y="378" width="180" height="52" rx="8" fill="#FAEEDA" stroke="#854F0B" stroke-width="0.5"/>
<text x="534" y="396" text-anchor="middle" dominant-baseline="central" font-size="14" font-weight="500" fill="#633806">Vregion</text>
<text x="534" y="414" text-anchor="middle" dominant-baseline="central" font-size="12" fill="#854F0B">⚠ 缺原语 · 兜底③</text>
</svg>
