<svg width="100%" viewBox="0 0 680 440" xmlns="http://www.w3.org/2000/svg" style="font-family:'Helvetica Neue',Arial,sans-serif;background:#fff">
<defs>
<marker id="arrow" viewBox="0 0 10 10" refX="8" refY="5" markerWidth="6" markerHeight="6" orient="auto-start-reverse"><path d="M2 1L8 5L2 9" fill="none" stroke="context-stroke" stroke-width="1.5" stroke-linecap="round" stroke-linejoin="round"/></marker>
</defs>

<text x="420" y="84" text-anchor="middle" font-size="12" fill="#5F5E5A">隐私边界</text>
<line x1="420" y1="90" x2="420" y2="330" stroke="#B4B2A9" stroke-width="0.5" stroke-dasharray="4 4"/>

<rect x="200" y="24" width="200" height="52" rx="8" fill="#E1F5EE" stroke="#0F6E56" stroke-width="0.5"/>
<text x="300" y="42" text-anchor="middle" dominant-baseline="central" font-size="14" font-weight="500" fill="#085041">环形缓冲(当日)</text>
<text x="300" y="60" text-anchor="middle" dominant-baseline="central" font-size="12" fill="#0F6E56">生存数据 · 含删失</text>

<line x1="300" y1="76" x2="300" y2="104" stroke="#5F5E5A" stroke-width="1.5" marker-end="url(#arrow)"/>

<rect x="200" y="104" width="200" height="52" rx="8" fill="#E1F5EE" stroke="#0F6E56" stroke-width="0.5"/>
<text x="300" y="122" text-anchor="middle" dominant-baseline="central" font-size="14" font-weight="500" fill="#085041">聚合 → 充分统计量</text>
<text x="300" y="140" text-anchor="middle" dominant-baseline="central" font-size="12" fill="#0F6E56">每晚 · 落盘 · 非轨迹</text>

<line x1="300" y1="156" x2="300" y2="184" stroke="#5F5E5A" stroke-width="1.5" marker-end="url(#arrow)"/>

<rect x="200" y="184" width="200" height="56" rx="8" fill="#EEEDFE" stroke="#534AB7" stroke-width="0.5"/>
<text x="300" y="203" text-anchor="middle" dominant-baseline="central" font-size="14" font-weight="500" fill="#3C3489">本地经验贝叶斯收缩</text>
<text x="300" y="222" text-anchor="middle" dominant-baseline="central" font-size="12" fill="#534AB7">n·本地 + κ·先验</text>

<line x1="300" y1="240" x2="300" y2="268" stroke="#5F5E5A" stroke-width="1.5" marker-end="url(#arrow)"/>

<rect x="200" y="268" width="200" height="52" rx="8" fill="#EEEDFE" stroke="#534AB7" stroke-width="0.5"/>
<text x="300" y="286" text-anchor="middle" dominant-baseline="central" font-size="14" font-weight="500" fill="#3C3489">刷新后验表</text>
<text x="300" y="304" text-anchor="middle" dominant-baseline="central" font-size="12" fill="#534AB7">快 · 每晚</text>

<line x1="300" y1="320" x2="300" y2="340" stroke="#B4B2A9" stroke-width="0.5" stroke-dasharray="4 4" marker-end="url(#arrow)"/>
<text x="300" y="351" text-anchor="middle" font-size="12" fill="#5F5E5A">→ Flow A 查表</text>

<rect x="440" y="104" width="180" height="52" rx="8" fill="#E6F1FB" stroke="#185FA5" stroke-width="0.5"/>
<text x="530" y="122" text-anchor="middle" dominant-baseline="central" font-size="14" font-weight="500" fill="#0C447C">云: 舰队联邦聚合</text>
<text x="530" y="140" text-anchor="middle" dominant-baseline="central" font-size="12" fill="#185FA5">安全聚合 + DP · 慢</text>

<line x1="530" y1="156" x2="530" y2="184" stroke="#5F5E5A" stroke-width="1.5" marker-end="url(#arrow)"/>

<rect x="440" y="184" width="180" height="56" rx="8" fill="#E6F1FB" stroke="#185FA5" stroke-width="0.5"/>
<text x="530" y="203" text-anchor="middle" dominant-baseline="central" font-size="14" font-weight="500" fill="#0C447C">分解先验 → 下推</text>
<text x="530" y="222" text-anchor="middle" dominant-baseline="central" font-size="12" fill="#185FA5">因子,非整表</text>

<line x1="440" y1="212" x2="400" y2="212" stroke="#185FA5" stroke-width="1.5" stroke-dasharray="4 4" marker-end="url(#arrow)"/>

<path d="M139 356 V50 H200" fill="none" stroke="#D85A30" stroke-width="0.5" stroke-dasharray="4 4" marker-end="url(#arrow)"/>
<text x="100" y="200" text-anchor="middle" font-size="12" fill="#D85A30">↻ 回灌</text>

<rect x="40" y="356" width="198" height="54" rx="8" fill="#FAECE7" stroke="#993C1D" stroke-width="0.5"/>
<text x="139" y="375" text-anchor="middle" dominant-baseline="central" font-size="14" font-weight="500" fill="#712B13">反事实 hold-out</text>
<text x="139" y="393" text-anchor="middle" dominant-baseline="central" font-size="12" fill="#993C1D">偶尔不动手 → 回灌</text>

<rect x="300" y="356" width="180" height="54" rx="8" fill="#F1EFE8" stroke="#5F5E5A" stroke-width="0.5"/>
<text x="390" y="375" text-anchor="middle" dominant-baseline="central" font-size="14" font-weight="500" fill="#2C2C2A">兜底② · 离线</text>
<text x="390" y="393" text-anchor="middle" dominant-baseline="central" font-size="12" fill="#5F5E5A">沿用旧先验,不阻塞</text>

<rect x="494" y="356" width="146" height="54" rx="8" fill="#F1EFE8" stroke="#5F5E5A" stroke-width="0.5"/>
<text x="567" y="375" text-anchor="middle" dominant-baseline="central" font-size="14" font-weight="500" fill="#2C2C2A">评估指标</text>
<text x="567" y="393" text-anchor="middle" dominant-baseline="central" font-size="12" fill="#5F5E5A">系统级,非准确率</text>
</svg>
