<svg width="100%" viewBox="0 0 680 496" xmlns="http://www.w3.org/2000/svg" style="font-family:'Helvetica Neue',Arial,sans-serif;background:#fff">
<defs>
<marker id="arrow" viewBox="0 0 10 10" refX="8" refY="5" markerWidth="6" markerHeight="6" orient="auto-start-reverse"><path d="M2 1L8 5L2 9" fill="none" stroke="context-stroke" stroke-width="1.5" stroke-linecap="round" stroke-linejoin="round"/></marker>
</defs>

<rect x="40" y="20" width="600" height="110" rx="20" fill="#F1EFE8" stroke="#5F5E5A" stroke-width="0.5"/>
<text x="340" y="44" text-anchor="middle" dominant-baseline="central" font-size="14" font-weight="500" fill="#2C2C2A">云侧 · 跨用户先验</text>
<text x="340" y="62" text-anchor="middle" dominant-baseline="central" font-size="12" fill="#5F5E5A">慢推 · 天–周 · 下推因子,非整张表</text>

<rect x="70" y="78" width="250" height="42" rx="8" fill="#E6F1FB" stroke="#185FA5" stroke-width="0.5"/>
<text x="195" y="95" text-anchor="middle" dominant-baseline="central" font-size="14" font-weight="500" fill="#0C447C">舰队联邦聚合</text>
<text x="195" y="111" text-anchor="middle" dominant-baseline="central" font-size="12" fill="#185FA5">安全聚合 + DP</text>

<rect x="360" y="78" width="250" height="42" rx="8" fill="#E6F1FB" stroke="#185FA5" stroke-width="0.5"/>
<text x="485" y="95" text-anchor="middle" dominant-baseline="central" font-size="14" font-weight="500" fill="#0C447C">分解先验</text>
<text x="485" y="111" text-anchor="middle" dominant-baseline="central" font-size="12" fill="#185FA5">embedding + 版本偏置</text>

<text x="56" y="150" font-size="12" fill="#5F5E5A">隐私边界 · 原始轨迹不出端</text>
<line x1="40" y1="158" x2="640" y2="158" stroke="#B4B2A9" stroke-width="0.5" stroke-dasharray="4 4"/>
<text x="56" y="178" font-size="14" font-weight="500" fill="#2C2C2A">端侧 · 设备 (per-user)</text>

<line x1="360" y1="130" x2="360" y2="195" stroke="#5F5E5A" stroke-width="1.5" marker-end="url(#arrow)"/>
<text x="375" y="146" font-size="12" fill="#5F5E5A">↓ 先验</text>
<text x="375" y="178" font-size="12" fill="#5F5E5A">↑ 联邦更新</text>

<rect x="56" y="195" width="180" height="90" rx="10" fill="#E1F5EE" stroke="#0F6E56" stroke-width="1.5"/>
<text x="146" y="213" text-anchor="middle" dominant-baseline="central" font-size="14" font-weight="500" fill="#085041">数据面 · 地基</text>
<text x="146" y="234" text-anchor="middle" dominant-baseline="central" font-size="12" fill="#0F6E56">生存数据 + 右删失</text>
<text x="146" y="252" text-anchor="middle" dominant-baseline="central" font-size="12" fill="#0F6E56">→ 充分统计量落盘</text>
<text x="146" y="270" text-anchor="middle" dominant-baseline="central" font-size="12" fill="#0F6E56">(统计量,非轨迹)</text>

<rect x="250" y="195" width="220" height="70" rx="10" fill="#EEEDFE" stroke="#534AB7" stroke-width="0.5"/>
<text x="360" y="214" text-anchor="middle" dominant-baseline="central" font-size="14" font-weight="500" fill="#3C3489">估计面</text>
<text x="360" y="234" text-anchor="middle" dominant-baseline="central" font-size="12" fill="#534AB7">经验贝叶斯收缩</text>
<text x="360" y="252" text-anchor="middle" dominant-baseline="central" font-size="12" fill="#534AB7">κ 非均质 · 每晚快更</text>

<line x1="236" y1="230" x2="250" y2="230" stroke="#5F5E5A" stroke-width="1.5" marker-end="url(#arrow)"/>
<line x1="360" y1="265" x2="360" y2="280" stroke="#5F5E5A" stroke-width="1.5" marker-end="url(#arrow)"/>

<rect x="180" y="280" width="360" height="80" rx="10" fill="#FAECE7" stroke="#993C1D" stroke-width="0.5"/>
<text x="360" y="303" text-anchor="middle" dominant-baseline="central" font-size="14" font-weight="500" fill="#712B13">作动面</text>
<text x="360" y="325" text-anchor="middle" dominant-baseline="central" font-size="12" fill="#993C1D">回切分布 → 代价模型 → 期望代价 argmin</text>
<text x="360" y="345" text-anchor="middle" dominant-baseline="central" font-size="12" fill="#993C1D">动作:留热 / zram / swap / drop / 预取</text>

<line x1="360" y1="360" x2="360" y2="378" stroke="#5F5E5A" stroke-width="0.5"/>
<line x1="360" y1="378" x2="146" y2="396" stroke="#5F5E5A" stroke-width="1.5" marker-end="url(#arrow)"/>
<line x1="360" y1="378" x2="340" y2="396" stroke="#5F5E5A" stroke-width="1.5" marker-end="url(#arrow)"/>
<line x1="360" y1="378" x2="534" y2="396" stroke="#5F5E5A" stroke-width="1.5" marker-end="url(#arrow)"/>

<rect x="56" y="400" width="180" height="56" rx="8" fill="#F1EFE8" stroke="#5F5E5A" stroke-width="0.5"/>
<text x="146" y="419" text-anchor="middle" dominant-baseline="central" font-size="14" font-weight="500" fill="#2C2C2A">memcg</text>
<text x="146" y="438" text-anchor="middle" dominant-baseline="central" font-size="12" fill="#5F5E5A">app 语义冷</text>

<rect x="250" y="400" width="180" height="56" rx="8" fill="#F1EFE8" stroke="#5F5E5A" stroke-width="0.5"/>
<text x="340" y="419" text-anchor="middle" dominant-baseline="central" font-size="14" font-weight="500" fill="#2C2C2A">LRU / MGLRU</text>
<text x="340" y="438" text-anchor="middle" dominant-baseline="central" font-size="12" fill="#5F5E5A">PTE 冷</text>

<rect x="444" y="400" width="180" height="56" rx="8" fill="#FAEEDA" stroke="#854F0B" stroke-width="0.5"/>
<text x="534" y="419" text-anchor="middle" dominant-baseline="central" font-size="14" font-weight="500" fill="#633806">Vregion</text>
<text x="534" y="438" text-anchor="middle" dominant-baseline="central" font-size="12" fill="#854F0B">⚠ 缺回收原语</text>

<path d="M180 335 H46 V250 H56" fill="none" stroke="#D85A30" stroke-width="0.5" stroke-dasharray="4 4" marker-end="url(#arrow)"/>
<text x="112" y="352" text-anchor="middle" font-size="12" fill="#D85A30">↻ 反事实回灌</text>
</svg>
