<?xml version="1.0" encoding="utf-8" standalone="no"?>
<!DOCTYPE svg PUBLIC "-//W3C//DTD SVG 1.1//EN"
  "http://www.w3.org/Graphics/SVG/1.1/DTD/svg11.dtd">
<svg xmlns:xlink="http://www.w3.org/1999/xlink" width="792pt" height="532.8pt" viewBox="0 0 792 532.8" xmlns="http://www.w3.org/2000/svg" version="1.1">
 <metadata>
  <rdf:RDF xmlns:dc="http://purl.org/dc/elements/1.1/" xmlns:cc="http://creativecommons.org/ns#" xmlns:rdf="http://www.w3.org/1999/02/22-rdf-syntax-ns#">
   <cc:Work>
    <dc:type rdf:resource="http://purl.org/dc/dcmitype/StillImage"/>
    <dc:date>2026-06-23T11:14:25.137231</dc:date>
    <dc:format>image/svg+xml</dc:format>
    <dc:creator>
     <cc:Agent>
      <dc:title>Matplotlib v3.9.2, https://matplotlib.org/</dc:title>
     </cc:Agent>
    </dc:creator>
   </cc:Work>
  </rdf:RDF>
 </metadata>
 <defs>
  <style type="text/css">*{stroke-linejoin: round; stroke-linecap: butt}</style>
 </defs>
 <g id="figure_1">
  <g id="patch_1">
   <path d="M 0 532.8 
L 792 532.8 
L 792 0 
L 0 0 
z
" style="fill: #ffffff"/>
  </g>
  <g id="axes_1">
   <g id="patch_2">
    <path d="M 59.4 418.248 
L 740.52 418.248 
L 740.52 69.264 
L 59.4 69.264 
z
" style="fill: #ffffff"/>
   </g>
   <g id="patch_3">
    <path d="M 299.466885 418.248 
L 522.784918 418.248 
L 522.784918 69.264 
L 299.466885 69.264 
z
" clip-path="url(#p04f950d608)" style="fill: #f6f6f0; stroke: #f6f6f0; stroke-linejoin: miter"/>
   </g>
   <g id="matplotlib.axis_1">
    <g id="xtick_1">
     <g id="line2d_1">
      <defs>
       <path id="m0dca4b5ba8" d="M 0 0 
L 0 3.5 
" style="stroke: #777777; stroke-width: 0.8"/>
      </defs>
      <g>
       <use xlink:href="#m0dca4b5ba8" x="76.148852" y="418.248" style="fill: #777777; stroke: #777777; stroke-width: 0.8"/>
      </g>
     </g>
     <g id="text_1">
      <text style="fill: #777777; font: 10px 'Arial', 'Helvetica', 'DejaVu Sans', sans-serif; text-anchor: middle" x="76.148852" y="432.405813" transform="rotate(-0 76.148852 432.405813)">2024</text>
     </g>
    </g>
    <g id="xtick_2">
     <g id="line2d_2">
      <g>
       <use xlink:href="#m0dca4b5ba8" x="187.807869" y="418.248" style="fill: #777777; stroke: #777777; stroke-width: 0.8"/>
      </g>
     </g>
     <g id="text_2">
      <text style="fill: #777777; font: 10px 'Arial', 'Helvetica', 'DejaVu Sans', sans-serif; text-anchor: middle" x="187.807869" y="432.405813" transform="rotate(-0 187.807869 432.405813)">2025</text>
     </g>
    </g>
    <g id="xtick_3">
     <g id="line2d_3">
      <g>
       <use xlink:href="#m0dca4b5ba8" x="299.466885" y="418.248" style="fill: #777777; stroke: #777777; stroke-width: 0.8"/>
      </g>
     </g>
     <g id="text_3">
      <text style="fill: #777777; font: 10px 'Arial', 'Helvetica', 'DejaVu Sans', sans-serif; text-anchor: middle" x="299.466885" y="432.405813" transform="rotate(-0 299.466885 432.405813)">2026</text>
     </g>
    </g>
    <g id="xtick_4">
     <g id="line2d_4">
      <g>
       <use xlink:href="#m0dca4b5ba8" x="411.125902" y="418.248" style="fill: #777777; stroke: #777777; stroke-width: 0.8"/>
      </g>
     </g>
     <g id="text_4">
      <text style="fill: #777777; font: 10px 'Arial', 'Helvetica', 'DejaVu Sans', sans-serif; text-anchor: middle" x="411.125902" y="432.405813" transform="rotate(-0 411.125902 432.405813)">2027</text>
     </g>
    </g>
    <g id="xtick_5">
     <g id="line2d_5">
      <g>
       <use xlink:href="#m0dca4b5ba8" x="522.784918" y="418.248" style="fill: #777777; stroke: #777777; stroke-width: 0.8"/>
      </g>
     </g>
     <g id="text_5">
      <text style="fill: #777777; font: 10px 'Arial', 'Helvetica', 'DejaVu Sans', sans-serif; text-anchor: middle" x="522.784918" y="432.405813" transform="rotate(-0 522.784918 432.405813)">2028</text>
     </g>
    </g>
    <g id="text_6">
     <text style="fill: #666666; font: 11px 'Arial', 'Helvetica', 'DejaVu Sans', sans-serif; text-anchor: middle" x="399.96" y="446.400969" transform="rotate(-0 399.96 446.400969)">Year (median flagship)</text>
    </g>
   </g>
   <g id="matplotlib.axis_2">
    <g id="ytick_1">
     <g id="line2d_6">
      <path d="M 59.4 418.248 
L 740.52 418.248 
" clip-path="url(#p04f950d608)" style="fill: none; stroke-dasharray: 2,3; stroke-dashoffset: 0; stroke: #e6e6e6"/>
     </g>
     <g id="line2d_7">
      <defs>
       <path id="m2429fdae77" d="M 0 0 
L -3.5 0 
" style="stroke: #777777; stroke-width: 0.8"/>
      </defs>
      <g>
       <use xlink:href="#m2429fdae77" x="59.4" y="418.248" style="fill: #777777; stroke: #777777; stroke-width: 0.8"/>
      </g>
     </g>
     <g id="text_7">
      <text style="fill: #777777; font: 10px 'Arial', 'Helvetica', 'DejaVu Sans', sans-serif; text-anchor: end" x="52.4" y="421.826906" transform="rotate(-0 52.4 421.826906)">0</text>
     </g>
    </g>
    <g id="ytick_2">
     <g id="line2d_8">
      <path d="M 59.4 374.625 
L 740.52 374.625 
" clip-path="url(#p04f950d608)" style="fill: none; stroke-dasharray: 2,3; stroke-dashoffset: 0; stroke: #e6e6e6"/>
     </g>
     <g id="line2d_9">
      <g>
       <use xlink:href="#m2429fdae77" x="59.4" y="374.625" style="fill: #777777; stroke: #777777; stroke-width: 0.8"/>
      </g>
     </g>
     <g id="text_8">
      <text style="fill: #777777; font: 10px 'Arial', 'Helvetica', 'DejaVu Sans', sans-serif; text-anchor: end" x="52.4" y="378.203906" transform="rotate(-0 52.4 378.203906)">4</text>
     </g>
    </g>
    <g id="ytick_3">
     <g id="line2d_10">
      <path d="M 59.4 331.002 
L 740.52 331.002 
" clip-path="url(#p04f950d608)" style="fill: none; stroke-dasharray: 2,3; stroke-dashoffset: 0; stroke: #e6e6e6"/>
     </g>
     <g id="line2d_11">
      <g>
       <use xlink:href="#m2429fdae77" x="59.4" y="331.002" style="fill: #777777; stroke: #777777; stroke-width: 0.8"/>
      </g>
     </g>
     <g id="text_9">
      <text style="fill: #777777; font: 10px 'Arial', 'Helvetica', 'DejaVu Sans', sans-serif; text-anchor: end" x="52.4" y="334.580906" transform="rotate(-0 52.4 334.580906)">8</text>
     </g>
    </g>
    <g id="ytick_4">
     <g id="line2d_12">
      <path d="M 59.4 287.379 
L 740.52 287.379 
" clip-path="url(#p04f950d608)" style="fill: none; stroke-dasharray: 2,3; stroke-dashoffset: 0; stroke: #e6e6e6"/>
     </g>
     <g id="line2d_13">
      <g>
       <use xlink:href="#m2429fdae77" x="59.4" y="287.379" style="fill: #777777; stroke: #777777; stroke-width: 0.8"/>
      </g>
     </g>
     <g id="text_10">
      <text style="fill: #777777; font: 10px 'Arial', 'Helvetica', 'DejaVu Sans', sans-serif; text-anchor: end" x="52.4" y="290.957906" transform="rotate(-0 52.4 290.957906)">12</text>
     </g>
    </g>
    <g id="ytick_5">
     <g id="line2d_14">
      <path d="M 59.4 243.756 
L 740.52 243.756 
" clip-path="url(#p04f950d608)" style="fill: none; stroke-dasharray: 2,3; stroke-dashoffset: 0; stroke: #e6e6e6"/>
     </g>
     <g id="line2d_15">
      <g>
       <use xlink:href="#m2429fdae77" x="59.4" y="243.756" style="fill: #777777; stroke: #777777; stroke-width: 0.8"/>
      </g>
     </g>
     <g id="text_11">
      <text style="fill: #777777; font: 10px 'Arial', 'Helvetica', 'DejaVu Sans', sans-serif; text-anchor: end" x="52.4" y="247.334906" transform="rotate(-0 52.4 247.334906)">16</text>
     </g>
    </g>
    <g id="ytick_6">
     <g id="line2d_16">
      <path d="M 59.4 200.133 
L 740.52 200.133 
" clip-path="url(#p04f950d608)" style="fill: none; stroke-dasharray: 2,3; stroke-dashoffset: 0; stroke: #e6e6e6"/>
     </g>
     <g id="line2d_17">
      <g>
       <use xlink:href="#m2429fdae77" x="59.4" y="200.133" style="fill: #777777; stroke: #777777; stroke-width: 0.8"/>
      </g>
     </g>
     <g id="text_12">
      <text style="fill: #777777; font: 10px 'Arial', 'Helvetica', 'DejaVu Sans', sans-serif; text-anchor: end" x="52.4" y="203.711906" transform="rotate(-0 52.4 203.711906)">20</text>
     </g>
    </g>
    <g id="ytick_7">
     <g id="line2d_18">
      <path d="M 59.4 156.51 
L 740.52 156.51 
" clip-path="url(#p04f950d608)" style="fill: none; stroke-dasharray: 2,3; stroke-dashoffset: 0; stroke: #e6e6e6"/>
     </g>
     <g id="line2d_19">
      <g>
       <use xlink:href="#m2429fdae77" x="59.4" y="156.51" style="fill: #777777; stroke: #777777; stroke-width: 0.8"/>
      </g>
     </g>
     <g id="text_13">
      <text style="fill: #777777; font: 10px 'Arial', 'Helvetica', 'DejaVu Sans', sans-serif; text-anchor: end" x="52.4" y="160.088906" transform="rotate(-0 52.4 160.088906)">24</text>
     </g>
    </g>
    <g id="ytick_8">
     <g id="line2d_20">
      <path d="M 59.4 112.887 
L 740.52 112.887 
" clip-path="url(#p04f950d608)" style="fill: none; stroke-dasharray: 2,3; stroke-dashoffset: 0; stroke: #e6e6e6"/>
     </g>
     <g id="line2d_21">
      <g>
       <use xlink:href="#m2429fdae77" x="59.4" y="112.887" style="fill: #777777; stroke: #777777; stroke-width: 0.8"/>
      </g>
     </g>
     <g id="text_14">
      <text style="fill: #777777; font: 10px 'Arial', 'Helvetica', 'DejaVu Sans', sans-serif; text-anchor: end" x="52.4" y="116.465906" transform="rotate(-0 52.4 116.465906)">28</text>
     </g>
    </g>
    <g id="ytick_9">
     <g id="line2d_22">
      <path d="M 59.4 69.264 
L 740.52 69.264 
" clip-path="url(#p04f950d608)" style="fill: none; stroke-dasharray: 2,3; stroke-dashoffset: 0; stroke: #e6e6e6"/>
     </g>
     <g id="line2d_23">
      <g>
       <use xlink:href="#m2429fdae77" x="59.4" y="69.264" style="fill: #777777; stroke: #777777; stroke-width: 0.8"/>
      </g>
     </g>
     <g id="text_15">
      <text style="fill: #777777; font: 10px 'Arial', 'Helvetica', 'DejaVu Sans', sans-serif; text-anchor: end" x="52.4" y="72.842906" transform="rotate(-0 52.4 72.842906)">32</text>
     </g>
    </g>
    <g id="text_16">
     <text style="fill: #666666; font: 11px 'Arial', 'Helvetica', 'DejaVu Sans', sans-serif; text-anchor: middle" x="34.962969" y="243.756" transform="rotate(-90 34.962969 243.756)">Memory (GB)</text>
    </g>
   </g>
   <g id="text_17">
    <text style="fill: #777777; font: 10px 'Arial', 'Helvetica', 'DejaVu Sans', sans-serif; text-anchor: middle" x="411.125902" y="85.268288" transform="rotate(-0 411.125902 85.268288)">Projection (2026.5 — 2028)</text>
   </g>
   <g id="PolyCollection_1">
    <path d="M 76.148852 374.625 
L 76.148852 418.248 
L 187.807869 418.248 
L 299.466885 418.248 
L 411.125902 418.248 
L 522.784918 418.248 
L 522.784918 331.002 
L 522.784918 331.002 
L 411.125902 341.90775 
L 299.466885 352.8135 
L 187.807869 363.71925 
L 76.148852 374.625 
z
" clip-path="url(#p04f950d608)" style="fill: #5589b8; fill-opacity: 0.55"/>
   </g>
   <g id="PolyCollection_2">
    <path d="M 76.148852 358.266375 
L 76.148852 374.625 
L 187.807869 363.71925 
L 299.466885 352.8135 
L 411.125902 341.90775 
L 522.784918 331.002 
L 522.784918 271.020375 
L 522.784918 271.020375 
L 411.125902 292.831875 
L 299.466885 314.643375 
L 187.807869 336.454875 
L 76.148852 358.266375 
z
" clip-path="url(#p04f950d608)" style="fill: #e8a35e; fill-opacity: 0.65"/>
   </g>
   <g id="patch_4">
    <path d="M 59.4 418.248 
L 59.4 69.264 
" style="fill: none; stroke: #888888; stroke-width: 0.8; stroke-linejoin: miter; stroke-linecap: square"/>
   </g>
   <g id="patch_5">
    <path d="M 59.4 418.248 
L 740.52 418.248 
" style="fill: none; stroke: #888888; stroke-width: 0.8; stroke-linejoin: miter; stroke-linecap: square"/>
   </g>
   <g id="PolyCollection_3">
    <defs>
     <path id="mfd6281572b" d="M 336.686557 -256.32675 
L 411.125902 -299.94975 
L 522.784918 -376.29 
L 522.784918 -376.29 
L 522.784918 -310.8555 
L 411.125902 -278.13825 
z
"/>
    </defs>
    <g clip-path="url(#p04f950d608)">
     <use xlink:href="#mfd6281572b" x="0" y="532.8" style="fill: #d62828; fill-opacity: 0.3"/>
    </g>
   </g>
   <g id="text_18">
    <text style="fill: #1a4f7a; font: 10px 'Arial', 'Helvetica', 'DejaVu Sans', sans-serif; text-anchor: start" x="530.601049" y="159.095156" transform="rotate(-0 530.601049 159.095156)">24 GB</text>
   </g>
   <g id="text_19">
    <text style="fill: #c43c3c; font: 9.5px 'Arial', 'Helvetica', 'DejaVu Sans', sans-serif; text-anchor: start" x="530.601049" y="174.178284" transform="rotate(-0 530.601049 174.178284)">↑ aggressive demand touches ceiling</text>
   </g>
   <g id="text_20">
    <text style="fill: #1a4f7a; font: 10px 'Arial', 'Helvetica', 'DejaVu Sans', sans-serif; text-anchor: start" x="530.601049" y="224.529656" transform="rotate(-0 530.601049 224.529656)">18 GB</text>
   </g>
   <g id="line2d_24">
    <path d="M 76.148852 287.379 
L 187.807869 243.756 
L 299.466885 243.756 
L 411.125902 200.133 
L 522.784918 156.51 
" clip-path="url(#p04f950d608)" style="fill: none; stroke: #1a4f7a; stroke-width: 2; stroke-linecap: square"/>
   </g>
   <g id="line2d_25">
    <path d="M 76.148852 320.09625 
L 187.807869 287.379 
L 299.466885 287.379 
L 411.125902 254.66175 
L 522.784918 221.9445 
" clip-path="url(#p04f950d608)" style="fill: none; stroke-dasharray: 9,6; stroke-dashoffset: 0; stroke: #1a4f7a; stroke-width: 1.5"/>
   </g>
   <g id="line2d_26">
    <path d="M 76.148852 358.266375 
L 187.807869 336.454875 
L 299.466885 298.28475 
L 411.125902 232.85025 
L 522.784918 156.51 
" clip-path="url(#p04f950d608)" style="fill: none; stroke-dasharray: 13.2,6.6; stroke-dashoffset: 0; stroke: #c43c3c; stroke-width: 2.2"/>
   </g>
   <g id="PathCollection_1">
    <defs>
     <path id="mb93b1b634e" d="M 0 2 
C 0.530406 2 1.03916 1.789267 1.414214 1.414214 
C 1.789267 1.03916 2 0.530406 2 0 
C 2 -0.530406 1.789267 -1.03916 1.414214 -1.414214 
C 1.03916 -1.789267 0.530406 -2 0 -2 
C -0.530406 -2 -1.03916 -1.789267 -1.414214 -1.414214 
C -1.789267 -1.03916 -2 -0.530406 -2 0 
C -2 0.530406 -1.789267 1.03916 -1.414214 1.414214 
C -1.03916 1.789267 -0.530406 2 0 2 
z
" style="stroke: #1a4f7a"/>
    </defs>
    <g clip-path="url(#p04f950d608)">
     <use xlink:href="#mb93b1b634e" x="76.148852" y="287.379" style="fill: #1a4f7a; stroke: #1a4f7a"/>
     <use xlink:href="#mb93b1b634e" x="187.807869" y="243.756" style="fill: #1a4f7a; stroke: #1a4f7a"/>
     <use xlink:href="#mb93b1b634e" x="299.466885" y="243.756" style="fill: #1a4f7a; stroke: #1a4f7a"/>
     <use xlink:href="#mb93b1b634e" x="411.125902" y="200.133" style="fill: #1a4f7a; stroke: #1a4f7a"/>
     <use xlink:href="#mb93b1b634e" x="522.784918" y="156.51" style="fill: #1a4f7a; stroke: #1a4f7a"/>
    </g>
   </g>
   <g id="PathCollection_2">
    <defs>
     <path id="m514a59303e" d="M 0 2 
C 0.530406 2 1.03916 1.789267 1.414214 1.414214 
C 1.789267 1.03916 2 0.530406 2 0 
C 2 -0.530406 1.789267 -1.03916 1.414214 -1.414214 
C 1.03916 -1.789267 0.530406 -2 0 -2 
C -0.530406 -2 -1.03916 -1.789267 -1.414214 -1.414214 
C -1.789267 -1.03916 -2 -0.530406 -2 0 
C -2 0.530406 -1.789267 1.03916 -1.414214 1.414214 
C -1.03916 1.789267 -0.530406 2 0 2 
z
" style="stroke: #c43c3c"/>
    </defs>
    <g clip-path="url(#p04f950d608)">
     <use xlink:href="#m514a59303e" x="76.148852" y="358.266375" style="fill: #c43c3c; stroke: #c43c3c"/>
     <use xlink:href="#m514a59303e" x="187.807869" y="336.454875" style="fill: #c43c3c; stroke: #c43c3c"/>
     <use xlink:href="#m514a59303e" x="299.466885" y="298.28475" style="fill: #c43c3c; stroke: #c43c3c"/>
     <use xlink:href="#m514a59303e" x="411.125902" y="232.85025" style="fill: #c43c3c; stroke: #c43c3c"/>
     <use xlink:href="#m514a59303e" x="522.784918" y="156.51" style="fill: #c43c3c; stroke: #c43c3c"/>
    </g>
   </g>
   <g id="legend_1">
    <g id="patch_6">
     <path d="M 114.579844 482.748435 
L 685.340156 482.748435 
Q 687.140156 482.748435 687.140156 480.948435 
L 687.140156 455.95656 
Q 687.140156 454.15656 685.340156 454.15656 
L 114.579844 454.15656 
Q 112.779844 454.15656 112.779844 455.95656 
L 112.779844 480.948435 
Q 112.779844 482.748435 114.579844 482.748435 
z
" style="fill: #ffffff; opacity: 0.8; stroke: #cccccc; stroke-linejoin: miter"/>
    </g>
    <g id="patch_7">
     <path d="M 116.379844 464.308279 
L 132.579844 464.308279 
L 132.579844 458.008279 
L 116.379844 458.008279 
z
" style="fill: #5589b8; opacity: 0.55"/>
    </g>
    <g id="text_21">
     <text style="font: 9px 'Arial', 'Helvetica', 'DejaVu Sans', sans-serif; text-anchor: start" x="139.779844" y="464.308279" transform="rotate(-0 139.779844 464.308279)">Traditional apps</text>
    </g>
    <g id="patch_8">
     <path d="M 116.379844 477.148748 
L 132.579844 477.148748 
L 132.579844 470.848748 
L 116.379844 470.848748 
z
" style="fill: #e8a35e; opacity: 0.65"/>
    </g>
    <g id="text_22">
     <text style="font: 9px 'Arial', 'Helvetica', 'DejaVu Sans', sans-serif; text-anchor: start" x="139.779844" y="477.148748" transform="rotate(-0 139.779844 477.148748)">Conservative AI (single resident model)</text>
    </g>
    <g id="line2d_27">
     <path d="M 309.844687 461.158279 
L 317.944687 461.158279 
L 326.044687 461.158279 
" style="fill: none; stroke: #1a4f7a; stroke-width: 2; stroke-linecap: square"/>
    </g>
    <g id="text_23">
     <text style="font: 9px 'Arial', 'Helvetica', 'DejaVu Sans', sans-serif; text-anchor: start" x="333.244687" y="464.308279" transform="rotate(-0 333.244687 464.308279)">LPDDR total</text>
    </g>
    <g id="line2d_28">
     <path d="M 309.844687 473.88906 
L 317.944687 473.88906 
L 326.044687 473.88906 
" style="fill: none; stroke-dasharray: 9,6; stroke-dashoffset: 0; stroke: #1a4f7a; stroke-width: 1.5"/>
    </g>
    <g id="text_24">
     <text style="font: 9px 'Arial', 'Helvetica', 'DejaVu Sans', sans-serif; text-anchor: start" x="333.244687" y="477.03906" transform="rotate(-0 333.244687 477.03906)">User-available</text>
    </g>
    <g id="line2d_29">
     <path d="M 404.265937 461.158279 
L 412.365937 461.158279 
L 420.465937 461.158279 
" style="fill: none; stroke-dasharray: 13.2,6.6; stroke-dashoffset: 0; stroke: #c43c3c; stroke-width: 2.2"/>
    </g>
    <g id="text_25">
     <text style="font: 9px 'Arial', 'Helvetica', 'DejaVu Sans', sans-serif; text-anchor: start" x="427.665937" y="464.308279" transform="rotate(-0 427.665937 464.308279)">Aggressive AI demand (trad + agentic + 128K KV + multi-model)</text>
    </g>
    <g id="patch_9">
     <path d="M 404.265937 477.254216 
L 420.465937 477.254216 
L 420.465937 470.954216 
L 404.265937 470.954216 
z
" style="fill: #d62828; opacity: 0.3"/>
    </g>
    <g id="text_26">
     <text style="font: 9px 'Arial', 'Helvetica', 'DejaVu Sans', sans-serif; text-anchor: start" x="427.665937" y="477.254216" transform="rotate(-0 427.665937 477.254216)">Deficit (demand &gt; user-available)</text>
    </g>
   </g>
   <g id="PathCollection_3">
    <defs>
     <path id="ma68e5e5b9b" d="M 0 3.464102 
C 0.91869 3.464102 1.799877 3.099102 2.44949 2.44949 
C 3.099102 1.799877 3.464102 0.91869 3.464102 0 
C 3.464102 -0.91869 3.099102 -1.799877 2.44949 -2.44949 
C 1.799877 -3.099102 0.91869 -3.464102 0 -3.464102 
C -0.91869 -3.464102 -1.799877 -3.099102 -2.44949 -2.44949 
C -3.099102 -1.799877 -3.464102 -0.91869 -3.464102 0 
C -3.464102 0.91869 -3.099102 1.799877 -2.44949 2.44949 
C -1.799877 3.099102 -0.91869 3.464102 0 3.464102 
z
" style="stroke: #ffffff; stroke-width: 1.5"/>
    </defs>
    <g clip-path="url(#p04f950d608)">
     <use xlink:href="#ma68e5e5b9b" x="336.686557" y="276.47325" style="fill: #b03030; stroke: #ffffff; stroke-width: 1.5"/>
    </g>
   </g>
   <g id="text_27">
    <text style="fill: #b03030; font: 700 11px 'Arial', 'Helvetica', 'DejaVu Sans', sans-serif; text-anchor: start" x="342.269508" y="267.74865" transform="rotate(-0 342.269508 267.74865)">Crossover ≈ 2027</text>
   </g>
   <g id="text_28">
    <text style="fill: #1a4f7a; font: 10px 'Arial', 'Helvetica', 'DejaVu Sans', sans-serif; text-anchor: start" x="85.081574" y="397.527075" transform="rotate(-0 85.081574 397.527075)">Traditional apps (browser, messengers, photos)</text>
   </g>
   <g id="text_29">
    <text style="fill: #7a4a10; font: 10px 'Arial', 'Helvetica', 'DejaVu Sans', sans-serif; text-anchor: start" x="137.561311" y="345.179475" transform="rotate(-0 137.561311 345.179475)">On-device AI — conservative (1 model, ≤32K ctx)</text>
   </g>
   <g id="text_30">
    <text style="fill: #1a4f7a; font: 10px 'Arial', 'Helvetica', 'DejaVu Sans', sans-serif; text-anchor: start" x="85.081574" y="279.744975" transform="rotate(-0 85.081574 279.744975)">Flagship LPDDR capacity (median)</text>
   </g>
   <g id="text_31">
    <text style="fill: #1a4f7a; font: 10px 'Arial', 'Helvetica', 'DejaVu Sans', sans-serif; text-anchor: start" x="85.081574" y="314.643375" transform="rotate(-0 85.081574 314.643375)">User-available (cap − OS/driver reserve)</text>
   </g>
   <g id="text_32">
    <text style="fill: #c43c3c; font: 10px 'Arial', 'Helvetica', 'DejaVu Sans', sans-serif; text-anchor: start" x="85.081574" y="357.1758" transform="rotate(-0 85.081574 357.1758)">Demand: trad + aggressive AI (agentic, 128K+ ctx, multi-model)</text>
   </g>
   <g id="text_33">
    <text style="fill: #b03030; font: 700 11px 'Arial', 'Helvetica', 'DejaVu Sans', sans-serif; text-anchor: start" x="405.542951" y="182.6838" transform="rotate(-0 405.542951 182.6838)">Deficit zone</text>
   </g>
   <g id="text_34">
    <text style="fill: #b03030; font: 10px 'Arial', 'Helvetica', 'DejaVu Sans', sans-serif; text-anchor: start" x="405.542951" y="192.498975" transform="rotate(-0 405.542951 192.498975)">demand &gt; user-available</text>
   </g>
   <g id="patch_10">
    <path d="M 440.789076 198.92767 
Q 458.581359 208.857809 474.909229 217.970639 
" style="fill: none; stroke: #b03030; stroke-width: 1.5; stroke-linecap: round"/>
    <path d="M 472.391102 214.274826 
L 474.909229 217.970639 
L 470.441702 217.767653 
" style="fill: none; stroke: #b03030; stroke-width: 1.5; stroke-linecap: round"/>
   </g>
  </g>
  <g id="text_35">
   <text style="fill: #222222; font: 700 15px 'Arial', 'Helvetica', 'DejaVu Sans', sans-serif; text-anchor: middle" x="396" y="18.648" transform="rotate(-0 396 18.648)">The Scissors: End-Device Memory Demand vs Supply (2024 — 2028)</text>
  </g>
  <g id="text_36">
   <text style="fill: #555555; font: 10.5px 'Arial', 'Helvetica', 'DejaVu Sans', sans-serif; text-anchor: middle" x="396" y="38.3616" transform="rotate(-0 396 38.3616)">Conservative AI fits; agentic AI does not — deficit opens around 2027 on a median 16–20 GB flagship.</text>
  </g>
  <g id="text_37">
   <text style="fill: #777777; font: 7.8px 'Arial', 'Helvetica', 'DejaVu Sans', sans-serif; text-anchor: start" x="59.4" y="505.0944" transform="rotate(-0 59.4 505.0944)">Annual growth (median flagship): LPDDR capacity ~17%/yr · traditional apps ~18%/yr · conservative AI ~37%/yr · aggressive AI demand ~45%/yr from 2026.</text>
  </g>
  <g id="text_38">
   <text style="fill: #777777; font: 7.8px 'Arial', 'Helvetica', 'DejaVu Sans', sans-serif; text-anchor: start" x="59.4" y="517.8816" transform="rotate(-0 59.4 517.8816)">Caveat: values from 2026.5 onward are projections.</text>
  </g>
 </g>
 <defs>
  <clipPath id="p04f950d608">
   <rect x="59.4" y="69.264" width="681.12" height="348.984"/>
  </clipPath>
 </defs>
</svg>
