<?xml version="1.0" encoding="utf-8" standalone="no"?>
<!DOCTYPE svg PUBLIC "-//W3C//DTD SVG 1.1//EN"
  "http://www.w3.org/Graphics/SVG/1.1/DTD/svg11.dtd">
<svg xmlns:xlink="http://www.w3.org/1999/xlink" width="1144.58pt" height="403.40425pt" viewBox="0 0 1144.58 403.40425" xmlns="http://www.w3.org/2000/svg" version="1.1">
 <metadata>
  <rdf:RDF xmlns:dc="http://purl.org/dc/elements/1.1/" xmlns:cc="http://creativecommons.org/ns#" xmlns:rdf="http://www.w3.org/1999/02/22-rdf-syntax-ns#">
   <cc:Work>
    <dc:type rdf:resource="http://purl.org/dc/dcmitype/StillImage"/>
    <dc:date>2026-06-24T00:33:43.529981</dc:date>
    <dc:format>image/svg+xml</dc:format>
    <dc:creator>
     <cc:Agent>
      <dc:title>Matplotlib v3.10.6, https://matplotlib.org/</dc:title>
     </cc:Agent>
    </dc:creator>
   </cc:Work>
  </rdf:RDF>
 </metadata>
 <defs>
  <style type="text/css">*{stroke-linejoin: round; stroke-linecap: butt}</style>
 </defs>
 <g id="figure_1">
  <g id="patch_1">
   <path d="M 0 403.40425 
L 1144.58 403.40425 
L 1144.58 0 
L 0 0 
z
" style="fill: #ffffff"/>
  </g>
  <g id="axes_1">
   <g id="patch_2">
    <path d="M 74.6675 365.848 
L 403.187682 365.848 
L 403.187682 76.848 
L 74.6675 76.848 
z
" style="fill: #ffffff"/>
   </g>
   <g id="patch_3">
    <path d="M -120475.63679 89.984364 
L 191.489681 89.984364 
L 191.489681 118.133714 
L -120475.63679 118.133714 
z
" clip-path="url(#p504fb01745)" style="fill: #95a5a6; stroke: #ffffff; stroke-linejoin: miter"/>
   </g>
   <g id="patch_4">
    <path d="M -120475.63679 136.899948 
L 367.024462 136.899948 
L 367.024462 165.049299 
L -120475.63679 165.049299 
z
" clip-path="url(#p504fb01745)" style="fill: #3498db; stroke: #ffffff; stroke-linejoin: miter"/>
   </g>
   <g id="patch_5">
    <path d="M -120475.63679 183.815532 
L 378.708441 183.815532 
L 378.708441 211.964883 
L -120475.63679 211.964883 
z
" clip-path="url(#p504fb01745)" style="fill: #2980b9; stroke: #ffffff; stroke-linejoin: miter"/>
   </g>
   <g id="patch_6">
    <path d="M -120475.63679 230.731117 
L 89.600236 230.731117 
L 89.600236 258.880468 
L -120475.63679 258.880468 
z
" clip-path="url(#p504fb01745)" style="fill: #e67e22; stroke: #ffffff; stroke-linejoin: miter"/>
   </g>
   <g id="patch_7">
    <path d="M -120475.63679 277.646701 
L 89.600236 277.646701 
L 89.600236 305.796052 
L -120475.63679 305.796052 
z
" clip-path="url(#p504fb01745)" style="fill: #e74c3c; stroke: #ffffff; stroke-linejoin: miter"/>
   </g>
   <g id="patch_8">
    <path d="M -120475.63679 324.562286 
L 388.254947 324.562286 
L 388.254947 352.711636 
L -120475.63679 352.711636 
z
" clip-path="url(#p504fb01745)" style="fill: #8e44ad; stroke: #ffffff; stroke-linejoin: miter"/>
   </g>
   <g id="matplotlib.axis_1">
    <g id="xtick_1">
     <g id="line2d_1">
      <defs>
       <path id="mb75c0d3a1c" d="M 0 0 
L 0 3.5 
" style="stroke: #000000; stroke-width: 0.8"/>
      </defs>
      <g>
       <use xlink:href="#mb75c0d3a1c" x="89.600236" y="365.848" style="stroke: #000000; stroke-width: 0.8"/>
      </g>
     </g>
     <g id="text_1">
      <!-- $\mathdefault{10^{0}}$ -->
      <g transform="translate(80.800236 380.446438) scale(0.1 -0.1)">
       <defs>
        <path id="DejaVuSans-31" d="M 794 531 
L 1825 531 
L 1825 4091 
L 703 3866 
L 703 4441 
L 1819 4666 
L 2450 4666 
L 2450 531 
L 3481 531 
L 3481 0 
L 794 0 
L 794 531 
z
" transform="scale(0.015625)"/>
        <path id="DejaVuSans-30" d="M 2034 4250 
Q 1547 4250 1301 3770 
Q 1056 3291 1056 2328 
Q 1056 1369 1301 889 
Q 1547 409 2034 409 
Q 2525 409 2770 889 
Q 3016 1369 3016 2328 
Q 3016 3291 2770 3770 
Q 2525 4250 2034 4250 
z
M 2034 4750 
Q 2819 4750 3233 4129 
Q 3647 3509 3647 2328 
Q 3647 1150 3233 529 
Q 2819 -91 2034 -91 
Q 1250 -91 836 529 
Q 422 1150 422 2328 
Q 422 3509 836 4129 
Q 1250 4750 2034 4750 
z
" transform="scale(0.015625)"/>
       </defs>
       <use xlink:href="#DejaVuSans-31" transform="translate(0 0.765625)"/>
       <use xlink:href="#DejaVuSans-30" transform="translate(63.623047 0.765625)"/>
       <use xlink:href="#DejaVuSans-30" transform="translate(128.203125 39.046875) scale(0.7)"/>
      </g>
     </g>
    </g>
    <g id="xtick_2">
     <g id="line2d_2">
      <g>
       <use xlink:href="#mb75c0d3a1c" x="210.165473" y="365.848" style="stroke: #000000; stroke-width: 0.8"/>
      </g>
     </g>
     <g id="text_2">
      <!-- $\mathdefault{10^{1}}$ -->
      <g transform="translate(201.365473 380.446438) scale(0.1 -0.1)">
       <use xlink:href="#DejaVuSans-31" transform="translate(0 0.684375)"/>
       <use xlink:href="#DejaVuSans-30" transform="translate(63.623047 0.684375)"/>
       <use xlink:href="#DejaVuSans-31" transform="translate(128.203125 38.965625) scale(0.7)"/>
      </g>
     </g>
    </g>
    <g id="xtick_3">
     <g id="line2d_3">
      <g>
       <use xlink:href="#mb75c0d3a1c" x="330.73071" y="365.848" style="stroke: #000000; stroke-width: 0.8"/>
      </g>
     </g>
     <g id="text_3">
      <!-- $\mathdefault{10^{2}}$ -->
      <g transform="translate(321.93071 380.446438) scale(0.1 -0.1)">
       <defs>
        <path id="DejaVuSans-32" d="M 1228 531 
L 3431 531 
L 3431 0 
L 469 0 
L 469 531 
Q 828 903 1448 1529 
Q 2069 2156 2228 2338 
Q 2531 2678 2651 2914 
Q 2772 3150 2772 3378 
Q 2772 3750 2511 3984 
Q 2250 4219 1831 4219 
Q 1534 4219 1204 4116 
Q 875 4013 500 3803 
L 500 4441 
Q 881 4594 1212 4672 
Q 1544 4750 1819 4750 
Q 2544 4750 2975 4387 
Q 3406 4025 3406 3419 
Q 3406 3131 3298 2873 
Q 3191 2616 2906 2266 
Q 2828 2175 2409 1742 
Q 1991 1309 1228 531 
z
" transform="scale(0.015625)"/>
       </defs>
       <use xlink:href="#DejaVuSans-31" transform="translate(0 0.765625)"/>
       <use xlink:href="#DejaVuSans-30" transform="translate(63.623047 0.765625)"/>
       <use xlink:href="#DejaVuSans-32" transform="translate(128.203125 39.046875) scale(0.7)"/>
      </g>
     </g>
    </g>
    <g id="xtick_4">
     <g id="line2d_4">
      <defs>
       <path id="m11b726e8b0" d="M 0 0 
L 0 2 
" style="stroke: #000000; stroke-width: 0.6"/>
      </defs>
      <g>
       <use xlink:href="#m11b726e8b0" x="77.916257" y="365.848" style="stroke: #000000; stroke-width: 0.6"/>
      </g>
     </g>
    </g>
    <g id="xtick_5">
     <g id="line2d_5">
      <g>
       <use xlink:href="#m11b726e8b0" x="84.083473" y="365.848" style="stroke: #000000; stroke-width: 0.6"/>
      </g>
     </g>
    </g>
    <g id="xtick_6">
     <g id="line2d_6">
      <g>
       <use xlink:href="#m11b726e8b0" x="125.893988" y="365.848" style="stroke: #000000; stroke-width: 0.6"/>
      </g>
     </g>
    </g>
    <g id="xtick_7">
     <g id="line2d_7">
      <g>
       <use xlink:href="#m11b726e8b0" x="147.124473" y="365.848" style="stroke: #000000; stroke-width: 0.6"/>
      </g>
     </g>
    </g>
    <g id="xtick_8">
     <g id="line2d_8">
      <g>
       <use xlink:href="#m11b726e8b0" x="162.187741" y="365.848" style="stroke: #000000; stroke-width: 0.6"/>
      </g>
     </g>
    </g>
    <g id="xtick_9">
     <g id="line2d_9">
      <g>
       <use xlink:href="#m11b726e8b0" x="173.87172" y="365.848" style="stroke: #000000; stroke-width: 0.6"/>
      </g>
     </g>
    </g>
    <g id="xtick_10">
     <g id="line2d_10">
      <g>
       <use xlink:href="#m11b726e8b0" x="183.418226" y="365.848" style="stroke: #000000; stroke-width: 0.6"/>
      </g>
     </g>
    </g>
    <g id="xtick_11">
     <g id="line2d_11">
      <g>
       <use xlink:href="#m11b726e8b0" x="191.489681" y="365.848" style="stroke: #000000; stroke-width: 0.6"/>
      </g>
     </g>
    </g>
    <g id="xtick_12">
     <g id="line2d_12">
      <g>
       <use xlink:href="#m11b726e8b0" x="198.481494" y="365.848" style="stroke: #000000; stroke-width: 0.6"/>
      </g>
     </g>
    </g>
    <g id="xtick_13">
     <g id="line2d_13">
      <g>
       <use xlink:href="#m11b726e8b0" x="204.64871" y="365.848" style="stroke: #000000; stroke-width: 0.6"/>
      </g>
     </g>
    </g>
    <g id="xtick_14">
     <g id="line2d_14">
      <g>
       <use xlink:href="#m11b726e8b0" x="246.459225" y="365.848" style="stroke: #000000; stroke-width: 0.6"/>
      </g>
     </g>
    </g>
    <g id="xtick_15">
     <g id="line2d_15">
      <g>
       <use xlink:href="#m11b726e8b0" x="267.68971" y="365.848" style="stroke: #000000; stroke-width: 0.6"/>
      </g>
     </g>
    </g>
    <g id="xtick_16">
     <g id="line2d_16">
      <g>
       <use xlink:href="#m11b726e8b0" x="282.752978" y="365.848" style="stroke: #000000; stroke-width: 0.6"/>
      </g>
     </g>
    </g>
    <g id="xtick_17">
     <g id="line2d_17">
      <g>
       <use xlink:href="#m11b726e8b0" x="294.436957" y="365.848" style="stroke: #000000; stroke-width: 0.6"/>
      </g>
     </g>
    </g>
    <g id="xtick_18">
     <g id="line2d_18">
      <g>
       <use xlink:href="#m11b726e8b0" x="303.983463" y="365.848" style="stroke: #000000; stroke-width: 0.6"/>
      </g>
     </g>
    </g>
    <g id="xtick_19">
     <g id="line2d_19">
      <g>
       <use xlink:href="#m11b726e8b0" x="312.054918" y="365.848" style="stroke: #000000; stroke-width: 0.6"/>
      </g>
     </g>
    </g>
    <g id="xtick_20">
     <g id="line2d_20">
      <g>
       <use xlink:href="#m11b726e8b0" x="319.046731" y="365.848" style="stroke: #000000; stroke-width: 0.6"/>
      </g>
     </g>
    </g>
    <g id="xtick_21">
     <g id="line2d_21">
      <g>
       <use xlink:href="#m11b726e8b0" x="325.213947" y="365.848" style="stroke: #000000; stroke-width: 0.6"/>
      </g>
     </g>
    </g>
    <g id="xtick_22">
     <g id="line2d_22">
      <g>
       <use xlink:href="#m11b726e8b0" x="367.024462" y="365.848" style="stroke: #000000; stroke-width: 0.6"/>
      </g>
     </g>
    </g>
    <g id="xtick_23">
     <g id="line2d_23">
      <g>
       <use xlink:href="#m11b726e8b0" x="388.254947" y="365.848" style="stroke: #000000; stroke-width: 0.6"/>
      </g>
     </g>
    </g>
    <g id="text_4">
     <!-- Slowdown vs Native (log scale) -->
     <g transform="translate(161.206497 394.124562) scale(0.1 -0.1)">
      <defs>
       <path id="DejaVuSans-53" d="M 3425 4513 
L 3425 3897 
Q 3066 4069 2747 4153 
Q 2428 4238 2131 4238 
Q 1616 4238 1336 4038 
Q 1056 3838 1056 3469 
Q 1056 3159 1242 3001 
Q 1428 2844 1947 2747 
L 2328 2669 
Q 3034 2534 3370 2195 
Q 3706 1856 3706 1288 
Q 3706 609 3251 259 
Q 2797 -91 1919 -91 
Q 1588 -91 1214 -16 
Q 841 59 441 206 
L 441 856 
Q 825 641 1194 531 
Q 1563 422 1919 422 
Q 2459 422 2753 634 
Q 3047 847 3047 1241 
Q 3047 1584 2836 1778 
Q 2625 1972 2144 2069 
L 1759 2144 
Q 1053 2284 737 2584 
Q 422 2884 422 3419 
Q 422 4038 858 4394 
Q 1294 4750 2059 4750 
Q 2388 4750 2728 4690 
Q 3069 4631 3425 4513 
z
" transform="scale(0.015625)"/>
       <path id="DejaVuSans-6c" d="M 603 4863 
L 1178 4863 
L 1178 0 
L 603 0 
L 603 4863 
z
" transform="scale(0.015625)"/>
       <path id="DejaVuSans-6f" d="M 1959 3097 
Q 1497 3097 1228 2736 
Q 959 2375 959 1747 
Q 959 1119 1226 758 
Q 1494 397 1959 397 
Q 2419 397 2687 759 
Q 2956 1122 2956 1747 
Q 2956 2369 2687 2733 
Q 2419 3097 1959 3097 
z
M 1959 3584 
Q 2709 3584 3137 3096 
Q 3566 2609 3566 1747 
Q 3566 888 3137 398 
Q 2709 -91 1959 -91 
Q 1206 -91 779 398 
Q 353 888 353 1747 
Q 353 2609 779 3096 
Q 1206 3584 1959 3584 
z
" transform="scale(0.015625)"/>
       <path id="DejaVuSans-77" d="M 269 3500 
L 844 3500 
L 1563 769 
L 2278 3500 
L 2956 3500 
L 3675 769 
L 4391 3500 
L 4966 3500 
L 4050 0 
L 3372 0 
L 2619 2869 
L 1863 0 
L 1184 0 
L 269 3500 
z
" transform="scale(0.015625)"/>
       <path id="DejaVuSans-64" d="M 2906 2969 
L 2906 4863 
L 3481 4863 
L 3481 0 
L 2906 0 
L 2906 525 
Q 2725 213 2448 61 
Q 2172 -91 1784 -91 
Q 1150 -91 751 415 
Q 353 922 353 1747 
Q 353 2572 751 3078 
Q 1150 3584 1784 3584 
Q 2172 3584 2448 3432 
Q 2725 3281 2906 2969 
z
M 947 1747 
Q 947 1113 1208 752 
Q 1469 391 1925 391 
Q 2381 391 2643 752 
Q 2906 1113 2906 1747 
Q 2906 2381 2643 2742 
Q 2381 3103 1925 3103 
Q 1469 3103 1208 2742 
Q 947 2381 947 1747 
z
" transform="scale(0.015625)"/>
       <path id="DejaVuSans-6e" d="M 3513 2113 
L 3513 0 
L 2938 0 
L 2938 2094 
Q 2938 2591 2744 2837 
Q 2550 3084 2163 3084 
Q 1697 3084 1428 2787 
Q 1159 2491 1159 1978 
L 1159 0 
L 581 0 
L 581 3500 
L 1159 3500 
L 1159 2956 
Q 1366 3272 1645 3428 
Q 1925 3584 2291 3584 
Q 2894 3584 3203 3211 
Q 3513 2838 3513 2113 
z
" transform="scale(0.015625)"/>
       <path id="DejaVuSans-20" transform="scale(0.015625)"/>
       <path id="DejaVuSans-76" d="M 191 3500 
L 800 3500 
L 1894 563 
L 2988 3500 
L 3597 3500 
L 2284 0 
L 1503 0 
L 191 3500 
z
" transform="scale(0.015625)"/>
       <path id="DejaVuSans-73" d="M 2834 3397 
L 2834 2853 
Q 2591 2978 2328 3040 
Q 2066 3103 1784 3103 
Q 1356 3103 1142 2972 
Q 928 2841 928 2578 
Q 928 2378 1081 2264 
Q 1234 2150 1697 2047 
L 1894 2003 
Q 2506 1872 2764 1633 
Q 3022 1394 3022 966 
Q 3022 478 2636 193 
Q 2250 -91 1575 -91 
Q 1294 -91 989 -36 
Q 684 19 347 128 
L 347 722 
Q 666 556 975 473 
Q 1284 391 1588 391 
Q 1994 391 2212 530 
Q 2431 669 2431 922 
Q 2431 1156 2273 1281 
Q 2116 1406 1581 1522 
L 1381 1569 
Q 847 1681 609 1914 
Q 372 2147 372 2553 
Q 372 3047 722 3315 
Q 1072 3584 1716 3584 
Q 2034 3584 2315 3537 
Q 2597 3491 2834 3397 
z
" transform="scale(0.015625)"/>
       <path id="DejaVuSans-4e" d="M 628 4666 
L 1478 4666 
L 3547 763 
L 3547 4666 
L 4159 4666 
L 4159 0 
L 3309 0 
L 1241 3903 
L 1241 0 
L 628 0 
L 628 4666 
z
" transform="scale(0.015625)"/>
       <path id="DejaVuSans-61" d="M 2194 1759 
Q 1497 1759 1228 1600 
Q 959 1441 959 1056 
Q 959 750 1161 570 
Q 1363 391 1709 391 
Q 2188 391 2477 730 
Q 2766 1069 2766 1631 
L 2766 1759 
L 2194 1759 
z
M 3341 1997 
L 3341 0 
L 2766 0 
L 2766 531 
Q 2569 213 2275 61 
Q 1981 -91 1556 -91 
Q 1019 -91 701 211 
Q 384 513 384 1019 
Q 384 1609 779 1909 
Q 1175 2209 1959 2209 
L 2766 2209 
L 2766 2266 
Q 2766 2663 2505 2880 
Q 2244 3097 1772 3097 
Q 1472 3097 1187 3025 
Q 903 2953 641 2809 
L 641 3341 
Q 956 3463 1253 3523 
Q 1550 3584 1831 3584 
Q 2591 3584 2966 3190 
Q 3341 2797 3341 1997 
z
" transform="scale(0.015625)"/>
       <path id="DejaVuSans-74" d="M 1172 4494 
L 1172 3500 
L 2356 3500 
L 2356 3053 
L 1172 3053 
L 1172 1153 
Q 1172 725 1289 603 
Q 1406 481 1766 481 
L 2356 481 
L 2356 0 
L 1766 0 
Q 1100 0 847 248 
Q 594 497 594 1153 
L 594 3053 
L 172 3053 
L 172 3500 
L 594 3500 
L 594 4494 
L 1172 4494 
z
" transform="scale(0.015625)"/>
       <path id="DejaVuSans-69" d="M 603 3500 
L 1178 3500 
L 1178 0 
L 603 0 
L 603 3500 
z
M 603 4863 
L 1178 4863 
L 1178 4134 
L 603 4134 
L 603 4863 
z
" transform="scale(0.015625)"/>
       <path id="DejaVuSans-65" d="M 3597 1894 
L 3597 1613 
L 953 1613 
Q 991 1019 1311 708 
Q 1631 397 2203 397 
Q 2534 397 2845 478 
Q 3156 559 3463 722 
L 3463 178 
Q 3153 47 2828 -22 
Q 2503 -91 2169 -91 
Q 1331 -91 842 396 
Q 353 884 353 1716 
Q 353 2575 817 3079 
Q 1281 3584 2069 3584 
Q 2775 3584 3186 3129 
Q 3597 2675 3597 1894 
z
M 3022 2063 
Q 3016 2534 2758 2815 
Q 2500 3097 2075 3097 
Q 1594 3097 1305 2825 
Q 1016 2553 972 2059 
L 3022 2063 
z
" transform="scale(0.015625)"/>
       <path id="DejaVuSans-28" d="M 1984 4856 
Q 1566 4138 1362 3434 
Q 1159 2731 1159 2009 
Q 1159 1288 1364 580 
Q 1569 -128 1984 -844 
L 1484 -844 
Q 1016 -109 783 600 
Q 550 1309 550 2009 
Q 550 2706 781 3412 
Q 1013 4119 1484 4856 
L 1984 4856 
z
" transform="scale(0.015625)"/>
       <path id="DejaVuSans-67" d="M 2906 1791 
Q 2906 2416 2648 2759 
Q 2391 3103 1925 3103 
Q 1463 3103 1205 2759 
Q 947 2416 947 1791 
Q 947 1169 1205 825 
Q 1463 481 1925 481 
Q 2391 481 2648 825 
Q 2906 1169 2906 1791 
z
M 3481 434 
Q 3481 -459 3084 -895 
Q 2688 -1331 1869 -1331 
Q 1566 -1331 1297 -1286 
Q 1028 -1241 775 -1147 
L 775 -588 
Q 1028 -725 1275 -790 
Q 1522 -856 1778 -856 
Q 2344 -856 2625 -561 
Q 2906 -266 2906 331 
L 2906 616 
Q 2728 306 2450 153 
Q 2172 0 1784 0 
Q 1141 0 747 490 
Q 353 981 353 1791 
Q 353 2603 747 3093 
Q 1141 3584 1784 3584 
Q 2172 3584 2450 3431 
Q 2728 3278 2906 2969 
L 2906 3500 
L 3481 3500 
L 3481 434 
z
" transform="scale(0.015625)"/>
       <path id="DejaVuSans-63" d="M 3122 3366 
L 3122 2828 
Q 2878 2963 2633 3030 
Q 2388 3097 2138 3097 
Q 1578 3097 1268 2742 
Q 959 2388 959 1747 
Q 959 1106 1268 751 
Q 1578 397 2138 397 
Q 2388 397 2633 464 
Q 2878 531 3122 666 
L 3122 134 
Q 2881 22 2623 -34 
Q 2366 -91 2075 -91 
Q 1284 -91 818 406 
Q 353 903 353 1747 
Q 353 2603 823 3093 
Q 1294 3584 2113 3584 
Q 2378 3584 2631 3529 
Q 2884 3475 3122 3366 
z
" transform="scale(0.015625)"/>
       <path id="DejaVuSans-29" d="M 513 4856 
L 1013 4856 
Q 1481 4119 1714 3412 
Q 1947 2706 1947 2009 
Q 1947 1309 1714 600 
Q 1481 -109 1013 -844 
L 513 -844 
Q 928 -128 1133 580 
Q 1338 1288 1338 2009 
Q 1338 2731 1133 3434 
Q 928 4138 513 4856 
z
" transform="scale(0.015625)"/>
      </defs>
      <use xlink:href="#DejaVuSans-53"/>
      <use xlink:href="#DejaVuSans-6c" transform="translate(63.476562 0)"/>
      <use xlink:href="#DejaVuSans-6f" transform="translate(91.259766 0)"/>
      <use xlink:href="#DejaVuSans-77" transform="translate(152.441406 0)"/>
      <use xlink:href="#DejaVuSans-64" transform="translate(234.228516 0)"/>
      <use xlink:href="#DejaVuSans-6f" transform="translate(297.705078 0)"/>
      <use xlink:href="#DejaVuSans-77" transform="translate(358.886719 0)"/>
      <use xlink:href="#DejaVuSans-6e" transform="translate(440.673828 0)"/>
      <use xlink:href="#DejaVuSans-20" transform="translate(504.052734 0)"/>
      <use xlink:href="#DejaVuSans-76" transform="translate(535.839844 0)"/>
      <use xlink:href="#DejaVuSans-73" transform="translate(595.019531 0)"/>
      <use xlink:href="#DejaVuSans-20" transform="translate(647.119141 0)"/>
      <use xlink:href="#DejaVuSans-4e" transform="translate(678.90625 0)"/>
      <use xlink:href="#DejaVuSans-61" transform="translate(753.710938 0)"/>
      <use xlink:href="#DejaVuSans-74" transform="translate(814.990234 0)"/>
      <use xlink:href="#DejaVuSans-69" transform="translate(854.199219 0)"/>
      <use xlink:href="#DejaVuSans-76" transform="translate(881.982422 0)"/>
      <use xlink:href="#DejaVuSans-65" transform="translate(941.162109 0)"/>
      <use xlink:href="#DejaVuSans-20" transform="translate(1002.685547 0)"/>
      <use xlink:href="#DejaVuSans-28" transform="translate(1034.472656 0)"/>
      <use xlink:href="#DejaVuSans-6c" transform="translate(1073.486328 0)"/>
      <use xlink:href="#DejaVuSans-6f" transform="translate(1101.269531 0)"/>
      <use xlink:href="#DejaVuSans-67" transform="translate(1162.451172 0)"/>
      <use xlink:href="#DejaVuSans-20" transform="translate(1225.927734 0)"/>
      <use xlink:href="#DejaVuSans-73" transform="translate(1257.714844 0)"/>
      <use xlink:href="#DejaVuSans-63" transform="translate(1309.814453 0)"/>
      <use xlink:href="#DejaVuSans-61" transform="translate(1364.794922 0)"/>
      <use xlink:href="#DejaVuSans-6c" transform="translate(1426.074219 0)"/>
      <use xlink:href="#DejaVuSans-65" transform="translate(1453.857422 0)"/>
      <use xlink:href="#DejaVuSans-29" transform="translate(1515.380859 0)"/>
     </g>
    </g>
   </g>
   <g id="matplotlib.axis_2">
    <g id="ytick_1">
     <g id="line2d_24">
      <defs>
       <path id="mddfeb7b758" d="M 0 0 
L -3.5 0 
" style="stroke: #000000; stroke-width: 0.8"/>
      </defs>
      <g>
       <use xlink:href="#mddfeb7b758" x="74.6675" y="104.059039" style="stroke: #000000; stroke-width: 0.8"/>
      </g>
     </g>
     <g id="text_5">
      <!-- QEMU -->
      <g transform="translate(43.5575 103.227164) scale(0.08 -0.08)">
       <defs>
        <path id="DejaVuSans-51" d="M 2522 4238 
Q 1834 4238 1429 3725 
Q 1025 3213 1025 2328 
Q 1025 1447 1429 934 
Q 1834 422 2522 422 
Q 3209 422 3611 934 
Q 4013 1447 4013 2328 
Q 4013 3213 3611 3725 
Q 3209 4238 2522 4238 
z
M 3406 84 
L 4238 -825 
L 3475 -825 
L 2784 -78 
Q 2681 -84 2626 -87 
Q 2572 -91 2522 -91 
Q 1538 -91 948 567 
Q 359 1225 359 2328 
Q 359 3434 948 4092 
Q 1538 4750 2522 4750 
Q 3503 4750 4090 4092 
Q 4678 3434 4678 2328 
Q 4678 1516 4351 937 
Q 4025 359 3406 84 
z
" transform="scale(0.015625)"/>
        <path id="DejaVuSans-45" d="M 628 4666 
L 3578 4666 
L 3578 4134 
L 1259 4134 
L 1259 2753 
L 3481 2753 
L 3481 2222 
L 1259 2222 
L 1259 531 
L 3634 531 
L 3634 0 
L 628 0 
L 628 4666 
z
" transform="scale(0.015625)"/>
        <path id="DejaVuSans-4d" d="M 628 4666 
L 1569 4666 
L 2759 1491 
L 3956 4666 
L 4897 4666 
L 4897 0 
L 4281 0 
L 4281 4097 
L 3078 897 
L 2444 897 
L 1241 4097 
L 1241 0 
L 628 0 
L 628 4666 
z
" transform="scale(0.015625)"/>
        <path id="DejaVuSans-55" d="M 556 4666 
L 1191 4666 
L 1191 1831 
Q 1191 1081 1462 751 
Q 1734 422 2344 422 
Q 2950 422 3222 751 
Q 3494 1081 3494 1831 
L 3494 4666 
L 4128 4666 
L 4128 1753 
Q 4128 841 3676 375 
Q 3225 -91 2344 -91 
Q 1459 -91 1007 375 
Q 556 841 556 1753 
L 556 4666 
z
" transform="scale(0.015625)"/>
       </defs>
       <use xlink:href="#DejaVuSans-51"/>
       <use xlink:href="#DejaVuSans-45" transform="translate(78.710938 0)"/>
       <use xlink:href="#DejaVuSans-4d" transform="translate(141.894531 0)"/>
       <use xlink:href="#DejaVuSans-55" transform="translate(228.173828 0)"/>
      </g>
      <!-- (functional) -->
      <g transform="translate(21.62125 112.185414) scale(0.08 -0.08)">
       <defs>
        <path id="DejaVuSans-66" d="M 2375 4863 
L 2375 4384 
L 1825 4384 
Q 1516 4384 1395 4259 
Q 1275 4134 1275 3809 
L 1275 3500 
L 2222 3500 
L 2222 3053 
L 1275 3053 
L 1275 0 
L 697 0 
L 697 3053 
L 147 3053 
L 147 3500 
L 697 3500 
L 697 3744 
Q 697 4328 969 4595 
Q 1241 4863 1831 4863 
L 2375 4863 
z
" transform="scale(0.015625)"/>
        <path id="DejaVuSans-75" d="M 544 1381 
L 544 3500 
L 1119 3500 
L 1119 1403 
Q 1119 906 1312 657 
Q 1506 409 1894 409 
Q 2359 409 2629 706 
Q 2900 1003 2900 1516 
L 2900 3500 
L 3475 3500 
L 3475 0 
L 2900 0 
L 2900 538 
Q 2691 219 2414 64 
Q 2138 -91 1772 -91 
Q 1169 -91 856 284 
Q 544 659 544 1381 
z
M 1991 3584 
L 1991 3584 
z
" transform="scale(0.015625)"/>
       </defs>
       <use xlink:href="#DejaVuSans-28"/>
       <use xlink:href="#DejaVuSans-66" transform="translate(39.013672 0)"/>
       <use xlink:href="#DejaVuSans-75" transform="translate(74.21875 0)"/>
       <use xlink:href="#DejaVuSans-6e" transform="translate(137.597656 0)"/>
       <use xlink:href="#DejaVuSans-63" transform="translate(200.976562 0)"/>
       <use xlink:href="#DejaVuSans-74" transform="translate(255.957031 0)"/>
       <use xlink:href="#DejaVuSans-69" transform="translate(295.166016 0)"/>
       <use xlink:href="#DejaVuSans-6f" transform="translate(322.949219 0)"/>
       <use xlink:href="#DejaVuSans-6e" transform="translate(384.130859 0)"/>
       <use xlink:href="#DejaVuSans-61" transform="translate(447.509766 0)"/>
       <use xlink:href="#DejaVuSans-6c" transform="translate(508.789062 0)"/>
       <use xlink:href="#DejaVuSans-29" transform="translate(536.572266 0)"/>
      </g>
     </g>
    </g>
    <g id="ytick_2">
     <g id="line2d_25">
      <g>
       <use xlink:href="#mddfeb7b758" x="74.6675" y="150.974623" style="stroke: #000000; stroke-width: 0.8"/>
      </g>
     </g>
     <g id="text_6">
      <!-- gem5 -->
      <g transform="translate(44.78375 150.142748) scale(0.08 -0.08)">
       <defs>
        <path id="DejaVuSans-6d" d="M 3328 2828 
Q 3544 3216 3844 3400 
Q 4144 3584 4550 3584 
Q 5097 3584 5394 3201 
Q 5691 2819 5691 2113 
L 5691 0 
L 5113 0 
L 5113 2094 
Q 5113 2597 4934 2840 
Q 4756 3084 4391 3084 
Q 3944 3084 3684 2787 
Q 3425 2491 3425 1978 
L 3425 0 
L 2847 0 
L 2847 2094 
Q 2847 2600 2669 2842 
Q 2491 3084 2119 3084 
Q 1678 3084 1418 2786 
Q 1159 2488 1159 1978 
L 1159 0 
L 581 0 
L 581 3500 
L 1159 3500 
L 1159 2956 
Q 1356 3278 1631 3431 
Q 1906 3584 2284 3584 
Q 2666 3584 2933 3390 
Q 3200 3197 3328 2828 
z
" transform="scale(0.015625)"/>
        <path id="DejaVuSans-35" d="M 691 4666 
L 3169 4666 
L 3169 4134 
L 1269 4134 
L 1269 2991 
Q 1406 3038 1543 3061 
Q 1681 3084 1819 3084 
Q 2600 3084 3056 2656 
Q 3513 2228 3513 1497 
Q 3513 744 3044 326 
Q 2575 -91 1722 -91 
Q 1428 -91 1123 -41 
Q 819 9 494 109 
L 494 744 
Q 775 591 1075 516 
Q 1375 441 1709 441 
Q 2250 441 2565 725 
Q 2881 1009 2881 1497 
Q 2881 1984 2565 2268 
Q 2250 2553 1709 2553 
Q 1456 2553 1204 2497 
Q 953 2441 691 2322 
L 691 4666 
z
" transform="scale(0.015625)"/>
       </defs>
       <use xlink:href="#DejaVuSans-67"/>
       <use xlink:href="#DejaVuSans-65" transform="translate(63.476562 0)"/>
       <use xlink:href="#DejaVuSans-6d" transform="translate(125 0)"/>
       <use xlink:href="#DejaVuSans-35" transform="translate(222.412109 0)"/>
      </g>
      <!-- (built-in DRAM) -->
      <g transform="translate(7.2 159.100998) scale(0.08 -0.08)">
       <defs>
        <path id="DejaVuSans-62" d="M 3116 1747 
Q 3116 2381 2855 2742 
Q 2594 3103 2138 3103 
Q 1681 3103 1420 2742 
Q 1159 2381 1159 1747 
Q 1159 1113 1420 752 
Q 1681 391 2138 391 
Q 2594 391 2855 752 
Q 3116 1113 3116 1747 
z
M 1159 2969 
Q 1341 3281 1617 3432 
Q 1894 3584 2278 3584 
Q 2916 3584 3314 3078 
Q 3713 2572 3713 1747 
Q 3713 922 3314 415 
Q 2916 -91 2278 -91 
Q 1894 -91 1617 61 
Q 1341 213 1159 525 
L 1159 0 
L 581 0 
L 581 4863 
L 1159 4863 
L 1159 2969 
z
" transform="scale(0.015625)"/>
        <path id="DejaVuSans-2d" d="M 313 2009 
L 1997 2009 
L 1997 1497 
L 313 1497 
L 313 2009 
z
" transform="scale(0.015625)"/>
        <path id="DejaVuSans-44" d="M 1259 4147 
L 1259 519 
L 2022 519 
Q 2988 519 3436 956 
Q 3884 1394 3884 2338 
Q 3884 3275 3436 3711 
Q 2988 4147 2022 4147 
L 1259 4147 
z
M 628 4666 
L 1925 4666 
Q 3281 4666 3915 4102 
Q 4550 3538 4550 2338 
Q 4550 1131 3912 565 
Q 3275 0 1925 0 
L 628 0 
L 628 4666 
z
" transform="scale(0.015625)"/>
        <path id="DejaVuSans-52" d="M 2841 2188 
Q 3044 2119 3236 1894 
Q 3428 1669 3622 1275 
L 4263 0 
L 3584 0 
L 2988 1197 
Q 2756 1666 2539 1819 
Q 2322 1972 1947 1972 
L 1259 1972 
L 1259 0 
L 628 0 
L 628 4666 
L 2053 4666 
Q 2853 4666 3247 4331 
Q 3641 3997 3641 3322 
Q 3641 2881 3436 2590 
Q 3231 2300 2841 2188 
z
M 1259 4147 
L 1259 2491 
L 2053 2491 
Q 2509 2491 2742 2702 
Q 2975 2913 2975 3322 
Q 2975 3731 2742 3939 
Q 2509 4147 2053 4147 
L 1259 4147 
z
" transform="scale(0.015625)"/>
        <path id="DejaVuSans-41" d="M 2188 4044 
L 1331 1722 
L 3047 1722 
L 2188 4044 
z
M 1831 4666 
L 2547 4666 
L 4325 0 
L 3669 0 
L 3244 1197 
L 1141 1197 
L 716 0 
L 50 0 
L 1831 4666 
z
" transform="scale(0.015625)"/>
       </defs>
       <use xlink:href="#DejaVuSans-28"/>
       <use xlink:href="#DejaVuSans-62" transform="translate(39.013672 0)"/>
       <use xlink:href="#DejaVuSans-75" transform="translate(102.490234 0)"/>
       <use xlink:href="#DejaVuSans-69" transform="translate(165.869141 0)"/>
       <use xlink:href="#DejaVuSans-6c" transform="translate(193.652344 0)"/>
       <use xlink:href="#DejaVuSans-74" transform="translate(221.435547 0)"/>
       <use xlink:href="#DejaVuSans-2d" transform="translate(260.644531 0)"/>
       <use xlink:href="#DejaVuSans-69" transform="translate(296.728516 0)"/>
       <use xlink:href="#DejaVuSans-6e" transform="translate(324.511719 0)"/>
       <use xlink:href="#DejaVuSans-20" transform="translate(387.890625 0)"/>
       <use xlink:href="#DejaVuSans-44" transform="translate(419.677734 0)"/>
       <use xlink:href="#DejaVuSans-52" transform="translate(496.679688 0)"/>
       <use xlink:href="#DejaVuSans-41" transform="translate(562.162109 0)"/>
       <use xlink:href="#DejaVuSans-4d" transform="translate(630.570312 0)"/>
       <use xlink:href="#DejaVuSans-29" transform="translate(716.849609 0)"/>
      </g>
     </g>
    </g>
    <g id="ytick_3">
     <g id="line2d_26">
      <g>
       <use xlink:href="#mddfeb7b758" x="74.6675" y="197.890208" style="stroke: #000000; stroke-width: 0.8"/>
      </g>
     </g>
     <g id="text_7">
      <!-- gem5 + -->
      <g transform="translate(35.5375 197.058333) scale(0.08 -0.08)">
       <defs>
        <path id="DejaVuSans-2b" d="M 2944 4013 
L 2944 2272 
L 4684 2272 
L 4684 1741 
L 2944 1741 
L 2944 0 
L 2419 0 
L 2419 1741 
L 678 1741 
L 678 2272 
L 2419 2272 
L 2419 4013 
L 2944 4013 
z
" transform="scale(0.015625)"/>
       </defs>
       <use xlink:href="#DejaVuSans-67"/>
       <use xlink:href="#DejaVuSans-65" transform="translate(63.476562 0)"/>
       <use xlink:href="#DejaVuSans-6d" transform="translate(125 0)"/>
       <use xlink:href="#DejaVuSans-35" transform="translate(222.412109 0)"/>
       <use xlink:href="#DejaVuSans-20" transform="translate(286.035156 0)"/>
       <use xlink:href="#DejaVuSans-2b" transform="translate(317.822266 0)"/>
      </g>
      <!-- DRAMSim2 -->
      <g transform="translate(23.71 206.016583) scale(0.08 -0.08)">
       <use xlink:href="#DejaVuSans-44"/>
       <use xlink:href="#DejaVuSans-52" transform="translate(77.001953 0)"/>
       <use xlink:href="#DejaVuSans-41" transform="translate(142.484375 0)"/>
       <use xlink:href="#DejaVuSans-4d" transform="translate(210.892578 0)"/>
       <use xlink:href="#DejaVuSans-53" transform="translate(297.171875 0)"/>
       <use xlink:href="#DejaVuSans-69" transform="translate(360.648438 0)"/>
       <use xlink:href="#DejaVuSans-6d" transform="translate(388.431641 0)"/>
       <use xlink:href="#DejaVuSans-32" transform="translate(485.84375 0)"/>
      </g>
     </g>
    </g>
    <g id="ytick_4">
     <g id="line2d_27">
      <g>
       <use xlink:href="#mddfeb7b758" x="74.6675" y="244.805792" style="stroke: #000000; stroke-width: 0.8"/>
      </g>
     </g>
     <g id="text_8">
      <!-- DRAMSim3 -->
      <g transform="translate(23.71 243.973917) scale(0.08 -0.08)">
       <defs>
        <path id="DejaVuSans-33" d="M 2597 2516 
Q 3050 2419 3304 2112 
Q 3559 1806 3559 1356 
Q 3559 666 3084 287 
Q 2609 -91 1734 -91 
Q 1441 -91 1130 -33 
Q 819 25 488 141 
L 488 750 
Q 750 597 1062 519 
Q 1375 441 1716 441 
Q 2309 441 2620 675 
Q 2931 909 2931 1356 
Q 2931 1769 2642 2001 
Q 2353 2234 1838 2234 
L 1294 2234 
L 1294 2753 
L 1863 2753 
Q 2328 2753 2575 2939 
Q 2822 3125 2822 3475 
Q 2822 3834 2567 4026 
Q 2313 4219 1838 4219 
Q 1578 4219 1281 4162 
Q 984 4106 628 3988 
L 628 4550 
Q 988 4650 1302 4700 
Q 1616 4750 1894 4750 
Q 2613 4750 3031 4423 
Q 3450 4097 3450 3541 
Q 3450 3153 3228 2886 
Q 3006 2619 2597 2516 
z
" transform="scale(0.015625)"/>
       </defs>
       <use xlink:href="#DejaVuSans-44"/>
       <use xlink:href="#DejaVuSans-52" transform="translate(77.001953 0)"/>
       <use xlink:href="#DejaVuSans-41" transform="translate(142.484375 0)"/>
       <use xlink:href="#DejaVuSans-4d" transform="translate(210.892578 0)"/>
       <use xlink:href="#DejaVuSans-53" transform="translate(297.171875 0)"/>
       <use xlink:href="#DejaVuSans-69" transform="translate(360.648438 0)"/>
       <use xlink:href="#DejaVuSans-6d" transform="translate(388.431641 0)"/>
       <use xlink:href="#DejaVuSans-33" transform="translate(485.84375 0)"/>
      </g>
      <!-- (standalone) -->
      <g transform="translate(17.0575 252.932167) scale(0.08 -0.08)">
       <use xlink:href="#DejaVuSans-28"/>
       <use xlink:href="#DejaVuSans-73" transform="translate(39.013672 0)"/>
       <use xlink:href="#DejaVuSans-74" transform="translate(91.113281 0)"/>
       <use xlink:href="#DejaVuSans-61" transform="translate(130.322266 0)"/>
       <use xlink:href="#DejaVuSans-6e" transform="translate(191.601562 0)"/>
       <use xlink:href="#DejaVuSans-64" transform="translate(254.980469 0)"/>
       <use xlink:href="#DejaVuSans-61" transform="translate(318.457031 0)"/>
       <use xlink:href="#DejaVuSans-6c" transform="translate(379.736328 0)"/>
       <use xlink:href="#DejaVuSans-6f" transform="translate(407.519531 0)"/>
       <use xlink:href="#DejaVuSans-6e" transform="translate(468.701172 0)"/>
       <use xlink:href="#DejaVuSans-65" transform="translate(532.080078 0)"/>
       <use xlink:href="#DejaVuSans-29" transform="translate(593.603516 0)"/>
      </g>
     </g>
    </g>
    <g id="ytick_5">
     <g id="line2d_28">
      <g>
       <use xlink:href="#mddfeb7b758" x="74.6675" y="291.721377" style="stroke: #000000; stroke-width: 0.8"/>
      </g>
     </g>
     <g id="text_9">
      <!-- Ramulator 2.0 -->
      <g transform="translate(10.81375 290.889502) scale(0.08 -0.08)">
       <defs>
        <path id="DejaVuSans-72" d="M 2631 2963 
Q 2534 3019 2420 3045 
Q 2306 3072 2169 3072 
Q 1681 3072 1420 2755 
Q 1159 2438 1159 1844 
L 1159 0 
L 581 0 
L 581 3500 
L 1159 3500 
L 1159 2956 
Q 1341 3275 1631 3429 
Q 1922 3584 2338 3584 
Q 2397 3584 2469 3576 
Q 2541 3569 2628 3553 
L 2631 2963 
z
" transform="scale(0.015625)"/>
        <path id="DejaVuSans-2e" d="M 684 794 
L 1344 794 
L 1344 0 
L 684 0 
L 684 794 
z
" transform="scale(0.015625)"/>
       </defs>
       <use xlink:href="#DejaVuSans-52"/>
       <use xlink:href="#DejaVuSans-61" transform="translate(67.232422 0)"/>
       <use xlink:href="#DejaVuSans-6d" transform="translate(128.511719 0)"/>
       <use xlink:href="#DejaVuSans-75" transform="translate(225.923828 0)"/>
       <use xlink:href="#DejaVuSans-6c" transform="translate(289.302734 0)"/>
       <use xlink:href="#DejaVuSans-61" transform="translate(317.085938 0)"/>
       <use xlink:href="#DejaVuSans-74" transform="translate(378.365234 0)"/>
       <use xlink:href="#DejaVuSans-6f" transform="translate(417.574219 0)"/>
       <use xlink:href="#DejaVuSans-72" transform="translate(478.755859 0)"/>
       <use xlink:href="#DejaVuSans-20" transform="translate(519.869141 0)"/>
       <use xlink:href="#DejaVuSans-32" transform="translate(551.65625 0)"/>
       <use xlink:href="#DejaVuSans-2e" transform="translate(615.279297 0)"/>
       <use xlink:href="#DejaVuSans-30" transform="translate(647.066406 0)"/>
      </g>
      <!-- (standalone) -->
      <g transform="translate(17.0575 299.847752) scale(0.08 -0.08)">
       <use xlink:href="#DejaVuSans-28"/>
       <use xlink:href="#DejaVuSans-73" transform="translate(39.013672 0)"/>
       <use xlink:href="#DejaVuSans-74" transform="translate(91.113281 0)"/>
       <use xlink:href="#DejaVuSans-61" transform="translate(130.322266 0)"/>
       <use xlink:href="#DejaVuSans-6e" transform="translate(191.601562 0)"/>
       <use xlink:href="#DejaVuSans-64" transform="translate(254.980469 0)"/>
       <use xlink:href="#DejaVuSans-61" transform="translate(318.457031 0)"/>
       <use xlink:href="#DejaVuSans-6c" transform="translate(379.736328 0)"/>
       <use xlink:href="#DejaVuSans-6f" transform="translate(407.519531 0)"/>
       <use xlink:href="#DejaVuSans-6e" transform="translate(468.701172 0)"/>
       <use xlink:href="#DejaVuSans-65" transform="translate(532.080078 0)"/>
       <use xlink:href="#DejaVuSans-29" transform="translate(593.603516 0)"/>
      </g>
     </g>
    </g>
    <g id="ytick_6">
     <g id="line2d_29">
      <g>
       <use xlink:href="#mddfeb7b758" x="74.6675" y="338.636961" style="stroke: #000000; stroke-width: 0.8"/>
      </g>
     </g>
     <g id="text_10">
      <!-- CXL-DMSim -->
      <g transform="translate(21.24125 337.805086) scale(0.08 -0.08)">
       <defs>
        <path id="DejaVuSans-43" d="M 4122 4306 
L 4122 3641 
Q 3803 3938 3442 4084 
Q 3081 4231 2675 4231 
Q 1875 4231 1450 3742 
Q 1025 3253 1025 2328 
Q 1025 1406 1450 917 
Q 1875 428 2675 428 
Q 3081 428 3442 575 
Q 3803 722 4122 1019 
L 4122 359 
Q 3791 134 3420 21 
Q 3050 -91 2638 -91 
Q 1578 -91 968 557 
Q 359 1206 359 2328 
Q 359 3453 968 4101 
Q 1578 4750 2638 4750 
Q 3056 4750 3426 4639 
Q 3797 4528 4122 4306 
z
" transform="scale(0.015625)"/>
        <path id="DejaVuSans-58" d="M 403 4666 
L 1081 4666 
L 2241 2931 
L 3406 4666 
L 4084 4666 
L 2584 2425 
L 4184 0 
L 3506 0 
L 2194 1984 
L 872 0 
L 191 0 
L 1856 2491 
L 403 4666 
z
" transform="scale(0.015625)"/>
        <path id="DejaVuSans-4c" d="M 628 4666 
L 1259 4666 
L 1259 531 
L 3531 531 
L 3531 0 
L 628 0 
L 628 4666 
z
" transform="scale(0.015625)"/>
       </defs>
       <use xlink:href="#DejaVuSans-43"/>
       <use xlink:href="#DejaVuSans-58" transform="translate(69.824219 0)"/>
       <use xlink:href="#DejaVuSans-4c" transform="translate(138.330078 0)"/>
       <use xlink:href="#DejaVuSans-2d" transform="translate(192.292969 0)"/>
       <use xlink:href="#DejaVuSans-44" transform="translate(228.376953 0)"/>
       <use xlink:href="#DejaVuSans-4d" transform="translate(305.378906 0)"/>
       <use xlink:href="#DejaVuSans-53" transform="translate(391.658203 0)"/>
       <use xlink:href="#DejaVuSans-69" transform="translate(455.134766 0)"/>
       <use xlink:href="#DejaVuSans-6d" transform="translate(482.917969 0)"/>
      </g>
      <!-- (gem5-based) -->
      <g transform="translate(11.505 346.763336) scale(0.08 -0.08)">
       <use xlink:href="#DejaVuSans-28"/>
       <use xlink:href="#DejaVuSans-67" transform="translate(39.013672 0)"/>
       <use xlink:href="#DejaVuSans-65" transform="translate(102.490234 0)"/>
       <use xlink:href="#DejaVuSans-6d" transform="translate(164.013672 0)"/>
       <use xlink:href="#DejaVuSans-35" transform="translate(261.425781 0)"/>
       <use xlink:href="#DejaVuSans-2d" transform="translate(325.048828 0)"/>
       <use xlink:href="#DejaVuSans-62" transform="translate(361.132812 0)"/>
       <use xlink:href="#DejaVuSans-61" transform="translate(424.609375 0)"/>
       <use xlink:href="#DejaVuSans-73" transform="translate(485.888672 0)"/>
       <use xlink:href="#DejaVuSans-65" transform="translate(537.988281 0)"/>
       <use xlink:href="#DejaVuSans-64" transform="translate(599.511719 0)"/>
       <use xlink:href="#DejaVuSans-29" transform="translate(662.988281 0)"/>
      </g>
     </g>
    </g>
   </g>
   <g id="patch_9">
    <path d="M 74.6675 365.848 
L 74.6675 76.848 
" style="fill: none; stroke: #000000; stroke-width: 0.8; stroke-linejoin: miter; stroke-linecap: square"/>
   </g>
   <g id="patch_10">
    <path d="M 403.187682 365.848 
L 403.187682 76.848 
" style="fill: none; stroke: #000000; stroke-width: 0.8; stroke-linejoin: miter; stroke-linecap: square"/>
   </g>
   <g id="patch_11">
    <path d="M 74.6675 365.848 
L 403.187682 365.848 
" style="fill: none; stroke: #000000; stroke-width: 0.8; stroke-linejoin: miter; stroke-linecap: square"/>
   </g>
   <g id="patch_12">
    <path d="M 74.6675 76.848 
L 403.187682 76.848 
" style="fill: none; stroke: #000000; stroke-width: 0.8; stroke-linejoin: miter; stroke-linecap: square"/>
   </g>
   <g id="text_11">
    <!-- 7× -->
    <g transform="translate(205.227288 106.266539) scale(0.08 -0.08)">
     <defs>
      <path id="DejaVuSans-37" d="M 525 4666 
L 3525 4666 
L 3525 4397 
L 1831 0 
L 1172 0 
L 2766 4134 
L 525 4134 
L 525 4666 
z
" transform="scale(0.015625)"/>
      <path id="DejaVuSans-d7" d="M 4488 3438 
L 3059 2003 
L 4488 575 
L 4116 197 
L 2681 1631 
L 1247 197 
L 878 575 
L 2303 2003 
L 878 3438 
L 1247 3816 
L 2681 2381 
L 4116 3816 
L 4488 3438 
z
" transform="scale(0.015625)"/>
     </defs>
     <use xlink:href="#DejaVuSans-37"/>
     <use xlink:href="#DejaVuSans-d7" transform="translate(63.623047 0)"/>
    </g>
   </g>
   <g id="text_12">
    <!-- 200× -->
    <g transform="translate(380.76207 153.182123) scale(0.08 -0.08)">
     <use xlink:href="#DejaVuSans-32"/>
     <use xlink:href="#DejaVuSans-30" transform="translate(63.623047 0)"/>
     <use xlink:href="#DejaVuSans-30" transform="translate(127.246094 0)"/>
     <use xlink:href="#DejaVuSans-d7" transform="translate(190.869141 0)"/>
    </g>
   </g>
   <g id="text_13">
    <!-- 250× -->
    <g transform="translate(392.446048 200.097708) scale(0.08 -0.08)">
     <use xlink:href="#DejaVuSans-32"/>
     <use xlink:href="#DejaVuSans-35" transform="translate(63.623047 0)"/>
     <use xlink:href="#DejaVuSans-30" transform="translate(127.246094 0)"/>
     <use xlink:href="#DejaVuSans-d7" transform="translate(190.869141 0)"/>
    </g>
   </g>
   <g id="text_14">
    <!-- trace-driven -->
    <g transform="translate(103.337843 247.013292) scale(0.08 -0.08)">
     <use xlink:href="#DejaVuSans-74"/>
     <use xlink:href="#DejaVuSans-72" transform="translate(39.208984 0)"/>
     <use xlink:href="#DejaVuSans-61" transform="translate(80.322266 0)"/>
     <use xlink:href="#DejaVuSans-63" transform="translate(141.601562 0)"/>
     <use xlink:href="#DejaVuSans-65" transform="translate(196.582031 0)"/>
     <use xlink:href="#DejaVuSans-2d" transform="translate(258.105469 0)"/>
     <use xlink:href="#DejaVuSans-64" transform="translate(294.189453 0)"/>
     <use xlink:href="#DejaVuSans-72" transform="translate(357.666016 0)"/>
     <use xlink:href="#DejaVuSans-69" transform="translate(398.779297 0)"/>
     <use xlink:href="#DejaVuSans-76" transform="translate(426.5625 0)"/>
     <use xlink:href="#DejaVuSans-65" transform="translate(485.742188 0)"/>
     <use xlink:href="#DejaVuSans-6e" transform="translate(547.265625 0)"/>
    </g>
   </g>
   <g id="text_15">
    <!-- trace-driven -->
    <g transform="translate(103.337843 293.928877) scale(0.08 -0.08)">
     <use xlink:href="#DejaVuSans-74"/>
     <use xlink:href="#DejaVuSans-72" transform="translate(39.208984 0)"/>
     <use xlink:href="#DejaVuSans-61" transform="translate(80.322266 0)"/>
     <use xlink:href="#DejaVuSans-63" transform="translate(141.601562 0)"/>
     <use xlink:href="#DejaVuSans-65" transform="translate(196.582031 0)"/>
     <use xlink:href="#DejaVuSans-2d" transform="translate(258.105469 0)"/>
     <use xlink:href="#DejaVuSans-64" transform="translate(294.189453 0)"/>
     <use xlink:href="#DejaVuSans-72" transform="translate(357.666016 0)"/>
     <use xlink:href="#DejaVuSans-69" transform="translate(398.779297 0)"/>
     <use xlink:href="#DejaVuSans-76" transform="translate(426.5625 0)"/>
     <use xlink:href="#DejaVuSans-65" transform="translate(485.742188 0)"/>
     <use xlink:href="#DejaVuSans-6e" transform="translate(547.265625 0)"/>
    </g>
   </g>
   <g id="text_16">
    <!-- 300× -->
    <g transform="translate(401.992554 340.844461) scale(0.08 -0.08)">
     <use xlink:href="#DejaVuSans-33"/>
     <use xlink:href="#DejaVuSans-30" transform="translate(63.623047 0)"/>
     <use xlink:href="#DejaVuSans-30" transform="translate(127.246094 0)"/>
     <use xlink:href="#DejaVuSans-d7" transform="translate(190.869141 0)"/>
    </g>
   </g>
   <g id="text_17">
    <!-- Simulation Speed -->
    <g transform="translate(184.419154 58.530406) scale(0.11 -0.11)">
     <defs>
      <path id="DejaVuSans-Bold-53" d="M 3834 4519 
L 3834 3531 
Q 3450 3703 3084 3790 
Q 2719 3878 2394 3878 
Q 1963 3878 1756 3759 
Q 1550 3641 1550 3391 
Q 1550 3203 1689 3098 
Q 1828 2994 2194 2919 
L 2706 2816 
Q 3484 2659 3812 2340 
Q 4141 2022 4141 1434 
Q 4141 663 3683 286 
Q 3225 -91 2284 -91 
Q 1841 -91 1394 -6 
Q 947 78 500 244 
L 500 1259 
Q 947 1022 1364 901 
Q 1781 781 2169 781 
Q 2563 781 2772 912 
Q 2981 1044 2981 1288 
Q 2981 1506 2839 1625 
Q 2697 1744 2272 1838 
L 1806 1941 
Q 1106 2091 782 2419 
Q 459 2747 459 3303 
Q 459 4000 909 4375 
Q 1359 4750 2203 4750 
Q 2588 4750 2994 4692 
Q 3400 4634 3834 4519 
z
" transform="scale(0.015625)"/>
      <path id="DejaVuSans-Bold-69" d="M 538 3500 
L 1656 3500 
L 1656 0 
L 538 0 
L 538 3500 
z
M 538 4863 
L 1656 4863 
L 1656 3950 
L 538 3950 
L 538 4863 
z
" transform="scale(0.015625)"/>
      <path id="DejaVuSans-Bold-6d" d="M 3781 2919 
Q 3994 3244 4286 3414 
Q 4578 3584 4928 3584 
Q 5531 3584 5847 3212 
Q 6163 2841 6163 2131 
L 6163 0 
L 5038 0 
L 5038 1825 
Q 5041 1866 5042 1909 
Q 5044 1953 5044 2034 
Q 5044 2406 4934 2573 
Q 4825 2741 4581 2741 
Q 4263 2741 4089 2478 
Q 3916 2216 3909 1719 
L 3909 0 
L 2784 0 
L 2784 1825 
Q 2784 2406 2684 2573 
Q 2584 2741 2328 2741 
Q 2006 2741 1831 2477 
Q 1656 2213 1656 1722 
L 1656 0 
L 531 0 
L 531 3500 
L 1656 3500 
L 1656 2988 
Q 1863 3284 2130 3434 
Q 2397 3584 2719 3584 
Q 3081 3584 3359 3409 
Q 3638 3234 3781 2919 
z
" transform="scale(0.015625)"/>
      <path id="DejaVuSans-Bold-75" d="M 500 1363 
L 500 3500 
L 1625 3500 
L 1625 3150 
Q 1625 2866 1622 2436 
Q 1619 2006 1619 1863 
Q 1619 1441 1641 1255 
Q 1663 1069 1716 984 
Q 1784 875 1895 815 
Q 2006 756 2150 756 
Q 2500 756 2700 1025 
Q 2900 1294 2900 1772 
L 2900 3500 
L 4019 3500 
L 4019 0 
L 2900 0 
L 2900 506 
Q 2647 200 2364 54 
Q 2081 -91 1741 -91 
Q 1134 -91 817 281 
Q 500 653 500 1363 
z
" transform="scale(0.015625)"/>
      <path id="DejaVuSans-Bold-6c" d="M 538 4863 
L 1656 4863 
L 1656 0 
L 538 0 
L 538 4863 
z
" transform="scale(0.015625)"/>
      <path id="DejaVuSans-Bold-61" d="M 2106 1575 
Q 1756 1575 1579 1456 
Q 1403 1338 1403 1106 
Q 1403 894 1545 773 
Q 1688 653 1941 653 
Q 2256 653 2472 879 
Q 2688 1106 2688 1447 
L 2688 1575 
L 2106 1575 
z
M 3816 1997 
L 3816 0 
L 2688 0 
L 2688 519 
Q 2463 200 2181 54 
Q 1900 -91 1497 -91 
Q 953 -91 614 226 
Q 275 544 275 1050 
Q 275 1666 698 1953 
Q 1122 2241 2028 2241 
L 2688 2241 
L 2688 2328 
Q 2688 2594 2478 2717 
Q 2269 2841 1825 2841 
Q 1466 2841 1156 2769 
Q 847 2697 581 2553 
L 581 3406 
Q 941 3494 1303 3539 
Q 1666 3584 2028 3584 
Q 2975 3584 3395 3211 
Q 3816 2838 3816 1997 
z
" transform="scale(0.015625)"/>
      <path id="DejaVuSans-Bold-74" d="M 1759 4494 
L 1759 3500 
L 2913 3500 
L 2913 2700 
L 1759 2700 
L 1759 1216 
Q 1759 972 1856 886 
Q 1953 800 2241 800 
L 2816 800 
L 2816 0 
L 1856 0 
Q 1194 0 917 276 
Q 641 553 641 1216 
L 641 2700 
L 84 2700 
L 84 3500 
L 641 3500 
L 641 4494 
L 1759 4494 
z
" transform="scale(0.015625)"/>
      <path id="DejaVuSans-Bold-6f" d="M 2203 2784 
Q 1831 2784 1636 2517 
Q 1441 2250 1441 1747 
Q 1441 1244 1636 976 
Q 1831 709 2203 709 
Q 2569 709 2762 976 
Q 2956 1244 2956 1747 
Q 2956 2250 2762 2517 
Q 2569 2784 2203 2784 
z
M 2203 3584 
Q 3106 3584 3614 3096 
Q 4122 2609 4122 1747 
Q 4122 884 3614 396 
Q 3106 -91 2203 -91 
Q 1297 -91 786 396 
Q 275 884 275 1747 
Q 275 2609 786 3096 
Q 1297 3584 2203 3584 
z
" transform="scale(0.015625)"/>
      <path id="DejaVuSans-Bold-6e" d="M 4056 2131 
L 4056 0 
L 2931 0 
L 2931 347 
L 2931 1631 
Q 2931 2084 2911 2256 
Q 2891 2428 2841 2509 
Q 2775 2619 2662 2680 
Q 2550 2741 2406 2741 
Q 2056 2741 1856 2470 
Q 1656 2200 1656 1722 
L 1656 0 
L 538 0 
L 538 3500 
L 1656 3500 
L 1656 2988 
Q 1909 3294 2193 3439 
Q 2478 3584 2822 3584 
Q 3428 3584 3742 3212 
Q 4056 2841 4056 2131 
z
" transform="scale(0.015625)"/>
      <path id="DejaVuSans-Bold-20" transform="scale(0.015625)"/>
      <path id="DejaVuSans-Bold-70" d="M 1656 506 
L 1656 -1331 
L 538 -1331 
L 538 3500 
L 1656 3500 
L 1656 2988 
Q 1888 3294 2169 3439 
Q 2450 3584 2816 3584 
Q 3463 3584 3878 3070 
Q 4294 2556 4294 1747 
Q 4294 938 3878 423 
Q 3463 -91 2816 -91 
Q 2450 -91 2169 54 
Q 1888 200 1656 506 
z
M 2400 2772 
Q 2041 2772 1848 2508 
Q 1656 2244 1656 1747 
Q 1656 1250 1848 986 
Q 2041 722 2400 722 
Q 2759 722 2948 984 
Q 3138 1247 3138 1747 
Q 3138 2247 2948 2509 
Q 2759 2772 2400 2772 
z
" transform="scale(0.015625)"/>
      <path id="DejaVuSans-Bold-65" d="M 4031 1759 
L 4031 1441 
L 1416 1441 
Q 1456 1047 1700 850 
Q 1944 653 2381 653 
Q 2734 653 3104 758 
Q 3475 863 3866 1075 
L 3866 213 
Q 3469 63 3072 -14 
Q 2675 -91 2278 -91 
Q 1328 -91 801 392 
Q 275 875 275 1747 
Q 275 2603 792 3093 
Q 1309 3584 2216 3584 
Q 3041 3584 3536 3087 
Q 4031 2591 4031 1759 
z
M 2881 2131 
Q 2881 2450 2695 2645 
Q 2509 2841 2209 2841 
Q 1884 2841 1681 2658 
Q 1478 2475 1428 2131 
L 2881 2131 
z
" transform="scale(0.015625)"/>
      <path id="DejaVuSans-Bold-64" d="M 2919 2988 
L 2919 4863 
L 4044 4863 
L 4044 0 
L 2919 0 
L 2919 506 
Q 2688 197 2409 53 
Q 2131 -91 1766 -91 
Q 1119 -91 703 423 
Q 288 938 288 1747 
Q 288 2556 703 3070 
Q 1119 3584 1766 3584 
Q 2128 3584 2408 3439 
Q 2688 3294 2919 2988 
z
M 2181 722 
Q 2541 722 2730 984 
Q 2919 1247 2919 1747 
Q 2919 2247 2730 2509 
Q 2541 2772 2181 2772 
Q 1825 2772 1636 2509 
Q 1447 2247 1447 1747 
Q 1447 1247 1636 984 
Q 1825 722 2181 722 
z
" transform="scale(0.015625)"/>
     </defs>
     <use xlink:href="#DejaVuSans-Bold-53"/>
     <use xlink:href="#DejaVuSans-Bold-69" transform="translate(72.021484 0)"/>
     <use xlink:href="#DejaVuSans-Bold-6d" transform="translate(106.298828 0)"/>
     <use xlink:href="#DejaVuSans-Bold-75" transform="translate(210.498047 0)"/>
     <use xlink:href="#DejaVuSans-Bold-6c" transform="translate(281.689453 0)"/>
     <use xlink:href="#DejaVuSans-Bold-61" transform="translate(315.966797 0)"/>
     <use xlink:href="#DejaVuSans-Bold-74" transform="translate(383.447266 0)"/>
     <use xlink:href="#DejaVuSans-Bold-69" transform="translate(431.25 0)"/>
     <use xlink:href="#DejaVuSans-Bold-6f" transform="translate(465.527344 0)"/>
     <use xlink:href="#DejaVuSans-Bold-6e" transform="translate(534.228516 0)"/>
     <use xlink:href="#DejaVuSans-Bold-20" transform="translate(605.419922 0)"/>
     <use xlink:href="#DejaVuSans-Bold-53" transform="translate(640.234375 0)"/>
     <use xlink:href="#DejaVuSans-Bold-70" transform="translate(712.255859 0)"/>
     <use xlink:href="#DejaVuSans-Bold-65" transform="translate(783.837891 0)"/>
     <use xlink:href="#DejaVuSans-Bold-65" transform="translate(851.660156 0)"/>
     <use xlink:href="#DejaVuSans-Bold-64" transform="translate(919.482422 0)"/>
    </g>
    <!-- (lower = faster) -->
    <g transform="translate(189.824622 70.848) scale(0.11 -0.11)">
     <defs>
      <path id="DejaVuSans-Bold-28" d="M 2413 -844 
L 1484 -844 
Q 1006 -72 778 623 
Q 550 1319 550 2003 
Q 550 2688 779 3389 
Q 1009 4091 1484 4856 
L 2413 4856 
Q 2013 4116 1813 3408 
Q 1613 2700 1613 2009 
Q 1613 1319 1811 609 
Q 2009 -100 2413 -844 
z
" transform="scale(0.015625)"/>
      <path id="DejaVuSans-Bold-77" d="M 225 3500 
L 1313 3500 
L 1900 1088 
L 2491 3500 
L 3425 3500 
L 4013 1113 
L 4603 3500 
L 5691 3500 
L 4769 0 
L 3547 0 
L 2956 2406 
L 2369 0 
L 1147 0 
L 225 3500 
z
" transform="scale(0.015625)"/>
      <path id="DejaVuSans-Bold-72" d="M 3138 2547 
Q 2991 2616 2845 2648 
Q 2700 2681 2553 2681 
Q 2122 2681 1889 2404 
Q 1656 2128 1656 1613 
L 1656 0 
L 538 0 
L 538 3500 
L 1656 3500 
L 1656 2925 
Q 1872 3269 2151 3426 
Q 2431 3584 2822 3584 
Q 2878 3584 2943 3579 
Q 3009 3575 3134 3559 
L 3138 2547 
z
" transform="scale(0.015625)"/>
      <path id="DejaVuSans-Bold-3d" d="M 678 3084 
L 4684 3084 
L 4684 2350 
L 678 2350 
L 678 3084 
z
M 678 1663 
L 4684 1663 
L 4684 922 
L 678 922 
L 678 1663 
z
" transform="scale(0.015625)"/>
      <path id="DejaVuSans-Bold-66" d="M 2841 4863 
L 2841 4128 
L 2222 4128 
Q 1984 4128 1890 4042 
Q 1797 3956 1797 3744 
L 1797 3500 
L 2753 3500 
L 2753 2700 
L 1797 2700 
L 1797 0 
L 678 0 
L 678 2700 
L 122 2700 
L 122 3500 
L 678 3500 
L 678 3744 
Q 678 4316 997 4589 
Q 1316 4863 1984 4863 
L 2841 4863 
z
" transform="scale(0.015625)"/>
      <path id="DejaVuSans-Bold-73" d="M 3272 3391 
L 3272 2541 
Q 2913 2691 2578 2766 
Q 2244 2841 1947 2841 
Q 1628 2841 1473 2761 
Q 1319 2681 1319 2516 
Q 1319 2381 1436 2309 
Q 1553 2238 1856 2203 
L 2053 2175 
Q 2913 2066 3209 1816 
Q 3506 1566 3506 1031 
Q 3506 472 3093 190 
Q 2681 -91 1863 -91 
Q 1516 -91 1145 -36 
Q 775 19 384 128 
L 384 978 
Q 719 816 1070 734 
Q 1422 653 1784 653 
Q 2113 653 2278 743 
Q 2444 834 2444 1013 
Q 2444 1163 2330 1236 
Q 2216 1309 1875 1350 
L 1678 1375 
Q 931 1469 631 1722 
Q 331 1975 331 2491 
Q 331 3047 712 3315 
Q 1094 3584 1881 3584 
Q 2191 3584 2531 3537 
Q 2872 3491 3272 3391 
z
" transform="scale(0.015625)"/>
      <path id="DejaVuSans-Bold-29" d="M 513 -844 
Q 913 -100 1113 609 
Q 1313 1319 1313 2009 
Q 1313 2700 1113 3408 
Q 913 4116 513 4856 
L 1441 4856 
Q 1916 4091 2145 3389 
Q 2375 2688 2375 2003 
Q 2375 1319 2147 623 
Q 1919 -72 1441 -844 
L 513 -844 
z
" transform="scale(0.015625)"/>
     </defs>
     <use xlink:href="#DejaVuSans-Bold-28"/>
     <use xlink:href="#DejaVuSans-Bold-6c" transform="translate(45.703125 0)"/>
     <use xlink:href="#DejaVuSans-Bold-6f" transform="translate(79.980469 0)"/>
     <use xlink:href="#DejaVuSans-Bold-77" transform="translate(148.681641 0)"/>
     <use xlink:href="#DejaVuSans-Bold-65" transform="translate(241.064453 0)"/>
     <use xlink:href="#DejaVuSans-Bold-72" transform="translate(308.886719 0)"/>
     <use xlink:href="#DejaVuSans-Bold-20" transform="translate(358.203125 0)"/>
     <use xlink:href="#DejaVuSans-Bold-3d" transform="translate(393.017578 0)"/>
     <use xlink:href="#DejaVuSans-Bold-20" transform="translate(476.806641 0)"/>
     <use xlink:href="#DejaVuSans-Bold-66" transform="translate(511.621094 0)"/>
     <use xlink:href="#DejaVuSans-Bold-61" transform="translate(555.126953 0)"/>
     <use xlink:href="#DejaVuSans-Bold-73" transform="translate(622.607422 0)"/>
     <use xlink:href="#DejaVuSans-Bold-74" transform="translate(682.128906 0)"/>
     <use xlink:href="#DejaVuSans-Bold-65" transform="translate(729.931641 0)"/>
     <use xlink:href="#DejaVuSans-Bold-72" transform="translate(797.753906 0)"/>
     <use xlink:href="#DejaVuSans-Bold-29" transform="translate(847.070312 0)"/>
    </g>
   </g>
  </g>
  <g id="axes_2">
   <g id="patch_13">
    <path d="M 438.582409 365.848 
L 767.102591 365.848 
L 767.102591 76.848 
L 438.582409 76.848 
z
" style="fill: #ffffff"/>
   </g>
   <g id="patch_14">
    <path d="M 438.582409 89.984364 
L 465.959091 89.984364 
L 465.959091 118.133714 
L 438.582409 118.133714 
z
" clip-path="url(#p2b10092fc2)" style="fill: #95a5a6; stroke: #ffffff; stroke-linejoin: miter"/>
   </g>
   <g id="patch_15">
    <path d="M 438.582409 136.899948 
L 602.8425 136.899948 
L 602.8425 165.049299 
L 438.582409 165.049299 
z
" clip-path="url(#p2b10092fc2)" style="fill: #3498db; stroke: #ffffff; stroke-linejoin: miter"/>
   </g>
   <g id="patch_16">
    <path d="M 438.582409 183.815532 
L 657.595864 183.815532 
L 657.595864 211.964883 
L 438.582409 211.964883 
z
" clip-path="url(#p2b10092fc2)" style="fill: #2980b9; stroke: #ffffff; stroke-linejoin: miter"/>
   </g>
   <g id="patch_17">
    <path d="M 438.582409 230.731117 
L 684.972546 230.731117 
L 684.972546 258.880468 
L 438.582409 258.880468 
z
" clip-path="url(#p2b10092fc2)" style="fill: #e67e22; stroke: #ffffff; stroke-linejoin: miter"/>
   </g>
   <g id="patch_18">
    <path d="M 438.582409 277.646701 
L 684.972546 277.646701 
L 684.972546 305.796052 
L 438.582409 305.796052 
z
" clip-path="url(#p2b10092fc2)" style="fill: #e74c3c; stroke: #ffffff; stroke-linejoin: miter"/>
   </g>
   <g id="patch_19">
    <path d="M 438.582409 324.562286 
L 712.349227 324.562286 
L 712.349227 352.711636 
L 438.582409 352.711636 
z
" clip-path="url(#p2b10092fc2)" style="fill: #8e44ad; stroke: #ffffff; stroke-linejoin: miter"/>
   </g>
   <g id="matplotlib.axis_3">
    <g id="xtick_24">
     <g id="line2d_30">
      <g>
       <use xlink:href="#mb75c0d3a1c" x="438.582409" y="365.848" style="stroke: #000000; stroke-width: 0.8"/>
      </g>
     </g>
     <g id="text_18">
      <!-- 0 -->
      <g transform="translate(435.401159 380.446438) scale(0.1 -0.1)">
       <use xlink:href="#DejaVuSans-30"/>
      </g>
     </g>
    </g>
    <g id="xtick_25">
     <g id="line2d_31">
      <g>
       <use xlink:href="#mb75c0d3a1c" x="493.335773" y="365.848" style="stroke: #000000; stroke-width: 0.8"/>
      </g>
     </g>
     <g id="text_19">
      <!-- 2 -->
      <g transform="translate(490.154523 380.446438) scale(0.1 -0.1)">
       <use xlink:href="#DejaVuSans-32"/>
      </g>
     </g>
    </g>
    <g id="xtick_26">
     <g id="line2d_32">
      <g>
       <use xlink:href="#mb75c0d3a1c" x="548.089136" y="365.848" style="stroke: #000000; stroke-width: 0.8"/>
      </g>
     </g>
     <g id="text_20">
      <!-- 4 -->
      <g transform="translate(544.907886 380.446438) scale(0.1 -0.1)">
       <defs>
        <path id="DejaVuSans-34" d="M 2419 4116 
L 825 1625 
L 2419 1625 
L 2419 4116 
z
M 2253 4666 
L 3047 4666 
L 3047 1625 
L 3713 1625 
L 3713 1100 
L 3047 1100 
L 3047 0 
L 2419 0 
L 2419 1100 
L 313 1100 
L 313 1709 
L 2253 4666 
z
" transform="scale(0.015625)"/>
       </defs>
       <use xlink:href="#DejaVuSans-34"/>
      </g>
     </g>
    </g>
    <g id="xtick_27">
     <g id="line2d_33">
      <g>
       <use xlink:href="#mb75c0d3a1c" x="602.8425" y="365.848" style="stroke: #000000; stroke-width: 0.8"/>
      </g>
     </g>
     <g id="text_21">
      <!-- 6 -->
      <g transform="translate(599.66125 380.446438) scale(0.1 -0.1)">
       <defs>
        <path id="DejaVuSans-36" d="M 2113 2584 
Q 1688 2584 1439 2293 
Q 1191 2003 1191 1497 
Q 1191 994 1439 701 
Q 1688 409 2113 409 
Q 2538 409 2786 701 
Q 3034 994 3034 1497 
Q 3034 2003 2786 2293 
Q 2538 2584 2113 2584 
z
M 3366 4563 
L 3366 3988 
Q 3128 4100 2886 4159 
Q 2644 4219 2406 4219 
Q 1781 4219 1451 3797 
Q 1122 3375 1075 2522 
Q 1259 2794 1537 2939 
Q 1816 3084 2150 3084 
Q 2853 3084 3261 2657 
Q 3669 2231 3669 1497 
Q 3669 778 3244 343 
Q 2819 -91 2113 -91 
Q 1303 -91 875 529 
Q 447 1150 447 2328 
Q 447 3434 972 4092 
Q 1497 4750 2381 4750 
Q 2619 4750 2861 4703 
Q 3103 4656 3366 4563 
z
" transform="scale(0.015625)"/>
       </defs>
       <use xlink:href="#DejaVuSans-36"/>
      </g>
     </g>
    </g>
    <g id="xtick_28">
     <g id="line2d_34">
      <g>
       <use xlink:href="#mb75c0d3a1c" x="657.595864" y="365.848" style="stroke: #000000; stroke-width: 0.8"/>
      </g>
     </g>
     <g id="text_22">
      <!-- 8 -->
      <g transform="translate(654.414614 380.446438) scale(0.1 -0.1)">
       <defs>
        <path id="DejaVuSans-38" d="M 2034 2216 
Q 1584 2216 1326 1975 
Q 1069 1734 1069 1313 
Q 1069 891 1326 650 
Q 1584 409 2034 409 
Q 2484 409 2743 651 
Q 3003 894 3003 1313 
Q 3003 1734 2745 1975 
Q 2488 2216 2034 2216 
z
M 1403 2484 
Q 997 2584 770 2862 
Q 544 3141 544 3541 
Q 544 4100 942 4425 
Q 1341 4750 2034 4750 
Q 2731 4750 3128 4425 
Q 3525 4100 3525 3541 
Q 3525 3141 3298 2862 
Q 3072 2584 2669 2484 
Q 3125 2378 3379 2068 
Q 3634 1759 3634 1313 
Q 3634 634 3220 271 
Q 2806 -91 2034 -91 
Q 1263 -91 848 271 
Q 434 634 434 1313 
Q 434 1759 690 2068 
Q 947 2378 1403 2484 
z
M 1172 3481 
Q 1172 3119 1398 2916 
Q 1625 2713 2034 2713 
Q 2441 2713 2670 2916 
Q 2900 3119 2900 3481 
Q 2900 3844 2670 4047 
Q 2441 4250 2034 4250 
Q 1625 4250 1398 4047 
Q 1172 3844 1172 3481 
z
" transform="scale(0.015625)"/>
       </defs>
       <use xlink:href="#DejaVuSans-38"/>
      </g>
     </g>
    </g>
    <g id="xtick_29">
     <g id="line2d_35">
      <g>
       <use xlink:href="#mb75c0d3a1c" x="712.349227" y="365.848" style="stroke: #000000; stroke-width: 0.8"/>
      </g>
     </g>
     <g id="text_23">
      <!-- 10 -->
      <g transform="translate(705.986727 380.446438) scale(0.1 -0.1)">
       <use xlink:href="#DejaVuSans-31"/>
       <use xlink:href="#DejaVuSans-30" transform="translate(63.623047 0)"/>
      </g>
     </g>
    </g>
    <g id="xtick_30">
     <g id="line2d_36">
      <g>
       <use xlink:href="#mb75c0d3a1c" x="767.102591" y="365.848" style="stroke: #000000; stroke-width: 0.8"/>
      </g>
     </g>
     <g id="text_24">
      <!-- 12 -->
      <g transform="translate(760.740091 380.446438) scale(0.1 -0.1)">
       <use xlink:href="#DejaVuSans-31"/>
       <use xlink:href="#DejaVuSans-32" transform="translate(63.623047 0)"/>
      </g>
     </g>
    </g>
    <g id="text_25">
     <!-- DRAM Timing Accuracy (1-10) -->
     <g transform="translate(528.250313 394.124562) scale(0.1 -0.1)">
      <defs>
       <path id="DejaVuSans-54" d="M -19 4666 
L 3928 4666 
L 3928 4134 
L 2272 4134 
L 2272 0 
L 1638 0 
L 1638 4134 
L -19 4134 
L -19 4666 
z
" transform="scale(0.015625)"/>
       <path id="DejaVuSans-79" d="M 2059 -325 
Q 1816 -950 1584 -1140 
Q 1353 -1331 966 -1331 
L 506 -1331 
L 506 -850 
L 844 -850 
Q 1081 -850 1212 -737 
Q 1344 -625 1503 -206 
L 1606 56 
L 191 3500 
L 800 3500 
L 1894 763 
L 2988 3500 
L 3597 3500 
L 2059 -325 
z
" transform="scale(0.015625)"/>
      </defs>
      <use xlink:href="#DejaVuSans-44"/>
      <use xlink:href="#DejaVuSans-52" transform="translate(77.001953 0)"/>
      <use xlink:href="#DejaVuSans-41" transform="translate(142.484375 0)"/>
      <use xlink:href="#DejaVuSans-4d" transform="translate(210.892578 0)"/>
      <use xlink:href="#DejaVuSans-20" transform="translate(297.171875 0)"/>
      <use xlink:href="#DejaVuSans-54" transform="translate(328.958984 0)"/>
      <use xlink:href="#DejaVuSans-69" transform="translate(386.917969 0)"/>
      <use xlink:href="#DejaVuSans-6d" transform="translate(414.701172 0)"/>
      <use xlink:href="#DejaVuSans-69" transform="translate(512.113281 0)"/>
      <use xlink:href="#DejaVuSans-6e" transform="translate(539.896484 0)"/>
      <use xlink:href="#DejaVuSans-67" transform="translate(603.275391 0)"/>
      <use xlink:href="#DejaVuSans-20" transform="translate(666.751953 0)"/>
      <use xlink:href="#DejaVuSans-41" transform="translate(698.539062 0)"/>
      <use xlink:href="#DejaVuSans-63" transform="translate(765.197266 0)"/>
      <use xlink:href="#DejaVuSans-63" transform="translate(820.177734 0)"/>
      <use xlink:href="#DejaVuSans-75" transform="translate(875.158203 0)"/>
      <use xlink:href="#DejaVuSans-72" transform="translate(938.537109 0)"/>
      <use xlink:href="#DejaVuSans-61" transform="translate(979.650391 0)"/>
      <use xlink:href="#DejaVuSans-63" transform="translate(1040.929688 0)"/>
      <use xlink:href="#DejaVuSans-79" transform="translate(1095.910156 0)"/>
      <use xlink:href="#DejaVuSans-20" transform="translate(1155.089844 0)"/>
      <use xlink:href="#DejaVuSans-28" transform="translate(1186.876953 0)"/>
      <use xlink:href="#DejaVuSans-31" transform="translate(1225.890625 0)"/>
      <use xlink:href="#DejaVuSans-2d" transform="translate(1289.513672 0)"/>
      <use xlink:href="#DejaVuSans-31" transform="translate(1325.597656 0)"/>
      <use xlink:href="#DejaVuSans-30" transform="translate(1389.220703 0)"/>
      <use xlink:href="#DejaVuSans-29" transform="translate(1452.84375 0)"/>
     </g>
    </g>
   </g>
   <g id="matplotlib.axis_4">
    <g id="ytick_7">
     <g id="line2d_37">
      <g>
       <use xlink:href="#mddfeb7b758" x="438.582409" y="104.059039" style="stroke: #000000; stroke-width: 0.8"/>
      </g>
     </g>
    </g>
    <g id="ytick_8">
     <g id="line2d_38">
      <g>
       <use xlink:href="#mddfeb7b758" x="438.582409" y="150.974623" style="stroke: #000000; stroke-width: 0.8"/>
      </g>
     </g>
    </g>
    <g id="ytick_9">
     <g id="line2d_39">
      <g>
       <use xlink:href="#mddfeb7b758" x="438.582409" y="197.890208" style="stroke: #000000; stroke-width: 0.8"/>
      </g>
     </g>
    </g>
    <g id="ytick_10">
     <g id="line2d_40">
      <g>
       <use xlink:href="#mddfeb7b758" x="438.582409" y="244.805792" style="stroke: #000000; stroke-width: 0.8"/>
      </g>
     </g>
    </g>
    <g id="ytick_11">
     <g id="line2d_41">
      <g>
       <use xlink:href="#mddfeb7b758" x="438.582409" y="291.721377" style="stroke: #000000; stroke-width: 0.8"/>
      </g>
     </g>
    </g>
    <g id="ytick_12">
     <g id="line2d_42">
      <g>
       <use xlink:href="#mddfeb7b758" x="438.582409" y="338.636961" style="stroke: #000000; stroke-width: 0.8"/>
      </g>
     </g>
    </g>
   </g>
   <g id="patch_20">
    <path d="M 438.582409 365.848 
L 438.582409 76.848 
" style="fill: none; stroke: #000000; stroke-width: 0.8; stroke-linejoin: miter; stroke-linecap: square"/>
   </g>
   <g id="patch_21">
    <path d="M 767.102591 365.848 
L 767.102591 76.848 
" style="fill: none; stroke: #000000; stroke-width: 0.8; stroke-linejoin: miter; stroke-linecap: square"/>
   </g>
   <g id="patch_22">
    <path d="M 438.582409 365.848 
L 767.102591 365.848 
" style="fill: none; stroke: #000000; stroke-width: 0.8; stroke-linejoin: miter; stroke-linecap: square"/>
   </g>
   <g id="patch_23">
    <path d="M 438.582409 76.848 
L 767.102591 76.848 
" style="fill: none; stroke: #000000; stroke-width: 0.8; stroke-linejoin: miter; stroke-linecap: square"/>
   </g>
   <g id="text_26">
    <!-- 1 -->
    <g transform="translate(474.172095 106.542476) scale(0.09 -0.09)">
     <use xlink:href="#DejaVuSans-31"/>
    </g>
   </g>
   <g id="text_27">
    <!-- 6 -->
    <g transform="translate(611.055505 153.458061) scale(0.09 -0.09)">
     <use xlink:href="#DejaVuSans-36"/>
    </g>
   </g>
   <g id="text_28">
    <!-- 8 -->
    <g transform="translate(665.808868 200.373645) scale(0.09 -0.09)">
     <use xlink:href="#DejaVuSans-38"/>
    </g>
   </g>
   <g id="text_29">
    <!-- 9 -->
    <g transform="translate(693.18555 247.28923) scale(0.09 -0.09)">
     <defs>
      <path id="DejaVuSans-39" d="M 703 97 
L 703 672 
Q 941 559 1184 500 
Q 1428 441 1663 441 
Q 2288 441 2617 861 
Q 2947 1281 2994 2138 
Q 2813 1869 2534 1725 
Q 2256 1581 1919 1581 
Q 1219 1581 811 2004 
Q 403 2428 403 3163 
Q 403 3881 828 4315 
Q 1253 4750 1959 4750 
Q 2769 4750 3195 4129 
Q 3622 3509 3622 2328 
Q 3622 1225 3098 567 
Q 2575 -91 1691 -91 
Q 1453 -91 1209 -44 
Q 966 3 703 97 
z
M 1959 2075 
Q 2384 2075 2632 2365 
Q 2881 2656 2881 3163 
Q 2881 3666 2632 3958 
Q 2384 4250 1959 4250 
Q 1534 4250 1286 3958 
Q 1038 3666 1038 3163 
Q 1038 2656 1286 2365 
Q 1534 2075 1959 2075 
z
" transform="scale(0.015625)"/>
     </defs>
     <use xlink:href="#DejaVuSans-39"/>
    </g>
   </g>
   <g id="text_30">
    <!-- 9 -->
    <g transform="translate(693.18555 294.204814) scale(0.09 -0.09)">
     <use xlink:href="#DejaVuSans-39"/>
    </g>
   </g>
   <g id="text_31">
    <!-- 10 -->
    <g transform="translate(720.562232 341.120399) scale(0.09 -0.09)">
     <use xlink:href="#DejaVuSans-31"/>
     <use xlink:href="#DejaVuSans-30" transform="translate(63.623047 0)"/>
    </g>
   </g>
   <g id="text_32">
    <!-- Timing Accuracy -->
    <g transform="translate(551.859219 58.444469) scale(0.11 -0.11)">
     <defs>
      <path id="DejaVuSans-Bold-54" d="M 31 4666 
L 4331 4666 
L 4331 3756 
L 2784 3756 
L 2784 0 
L 1581 0 
L 1581 3756 
L 31 3756 
L 31 4666 
z
" transform="scale(0.015625)"/>
      <path id="DejaVuSans-Bold-67" d="M 2919 594 
Q 2688 288 2409 144 
Q 2131 0 1766 0 
Q 1125 0 706 504 
Q 288 1009 288 1791 
Q 288 2575 706 3076 
Q 1125 3578 1766 3578 
Q 2131 3578 2409 3434 
Q 2688 3291 2919 2981 
L 2919 3500 
L 4044 3500 
L 4044 353 
Q 4044 -491 3511 -936 
Q 2978 -1381 1966 -1381 
Q 1638 -1381 1331 -1331 
Q 1025 -1281 716 -1178 
L 716 -306 
Q 1009 -475 1290 -558 
Q 1572 -641 1856 -641 
Q 2406 -641 2662 -400 
Q 2919 -159 2919 353 
L 2919 594 
z
M 2181 2772 
Q 1834 2772 1640 2515 
Q 1447 2259 1447 1791 
Q 1447 1309 1634 1061 
Q 1822 813 2181 813 
Q 2531 813 2725 1069 
Q 2919 1325 2919 1791 
Q 2919 2259 2725 2515 
Q 2531 2772 2181 2772 
z
" transform="scale(0.015625)"/>
      <path id="DejaVuSans-Bold-41" d="M 3419 850 
L 1538 850 
L 1241 0 
L 31 0 
L 1759 4666 
L 3194 4666 
L 4922 0 
L 3713 0 
L 3419 850 
z
M 1838 1716 
L 3116 1716 
L 2478 3572 
L 1838 1716 
z
" transform="scale(0.015625)"/>
      <path id="DejaVuSans-Bold-63" d="M 3366 3391 
L 3366 2478 
Q 3138 2634 2908 2709 
Q 2678 2784 2431 2784 
Q 1963 2784 1702 2511 
Q 1441 2238 1441 1747 
Q 1441 1256 1702 982 
Q 1963 709 2431 709 
Q 2694 709 2930 787 
Q 3166 866 3366 1019 
L 3366 103 
Q 3103 6 2833 -42 
Q 2563 -91 2291 -91 
Q 1344 -91 809 395 
Q 275 881 275 1747 
Q 275 2613 809 3098 
Q 1344 3584 2291 3584 
Q 2566 3584 2833 3536 
Q 3100 3488 3366 3391 
z
" transform="scale(0.015625)"/>
      <path id="DejaVuSans-Bold-79" d="M 78 3500 
L 1197 3500 
L 2138 1125 
L 2938 3500 
L 4056 3500 
L 2584 -331 
Q 2363 -916 2067 -1148 
Q 1772 -1381 1288 -1381 
L 641 -1381 
L 641 -647 
L 991 -647 
Q 1275 -647 1404 -556 
Q 1534 -466 1606 -231 
L 1638 -134 
L 78 3500 
z
" transform="scale(0.015625)"/>
     </defs>
     <use xlink:href="#DejaVuSans-Bold-54"/>
     <use xlink:href="#DejaVuSans-Bold-69" transform="translate(68.212891 0)"/>
     <use xlink:href="#DejaVuSans-Bold-6d" transform="translate(102.490234 0)"/>
     <use xlink:href="#DejaVuSans-Bold-69" transform="translate(206.689453 0)"/>
     <use xlink:href="#DejaVuSans-Bold-6e" transform="translate(240.966797 0)"/>
     <use xlink:href="#DejaVuSans-Bold-67" transform="translate(312.158203 0)"/>
     <use xlink:href="#DejaVuSans-Bold-20" transform="translate(383.740234 0)"/>
     <use xlink:href="#DejaVuSans-Bold-41" transform="translate(418.554688 0)"/>
     <use xlink:href="#DejaVuSans-Bold-63" transform="translate(495.947266 0)"/>
     <use xlink:href="#DejaVuSans-Bold-63" transform="translate(555.224609 0)"/>
     <use xlink:href="#DejaVuSans-Bold-75" transform="translate(614.501953 0)"/>
     <use xlink:href="#DejaVuSans-Bold-72" transform="translate(685.693359 0)"/>
     <use xlink:href="#DejaVuSans-Bold-61" transform="translate(735.009766 0)"/>
     <use xlink:href="#DejaVuSans-Bold-63" transform="translate(802.490234 0)"/>
     <use xlink:href="#DejaVuSans-Bold-79" transform="translate(861.767578 0)"/>
    </g>
    <!-- (higher = more accurate) -->
    <g transform="translate(524.482969 70.848) scale(0.11 -0.11)">
     <defs>
      <path id="DejaVuSans-Bold-68" d="M 4056 2131 
L 4056 0 
L 2931 0 
L 2931 347 
L 2931 1625 
Q 2931 2084 2911 2256 
Q 2891 2428 2841 2509 
Q 2775 2619 2662 2680 
Q 2550 2741 2406 2741 
Q 2056 2741 1856 2470 
Q 1656 2200 1656 1722 
L 1656 0 
L 538 0 
L 538 4863 
L 1656 4863 
L 1656 2988 
Q 1909 3294 2193 3439 
Q 2478 3584 2822 3584 
Q 3428 3584 3742 3212 
Q 4056 2841 4056 2131 
z
" transform="scale(0.015625)"/>
     </defs>
     <use xlink:href="#DejaVuSans-Bold-28"/>
     <use xlink:href="#DejaVuSans-Bold-68" transform="translate(45.703125 0)"/>
     <use xlink:href="#DejaVuSans-Bold-69" transform="translate(116.894531 0)"/>
     <use xlink:href="#DejaVuSans-Bold-67" transform="translate(151.171875 0)"/>
     <use xlink:href="#DejaVuSans-Bold-68" transform="translate(222.753906 0)"/>
     <use xlink:href="#DejaVuSans-Bold-65" transform="translate(293.945312 0)"/>
     <use xlink:href="#DejaVuSans-Bold-72" transform="translate(361.767578 0)"/>
     <use xlink:href="#DejaVuSans-Bold-20" transform="translate(411.083984 0)"/>
     <use xlink:href="#DejaVuSans-Bold-3d" transform="translate(445.898438 0)"/>
     <use xlink:href="#DejaVuSans-Bold-20" transform="translate(529.6875 0)"/>
     <use xlink:href="#DejaVuSans-Bold-6d" transform="translate(564.501953 0)"/>
     <use xlink:href="#DejaVuSans-Bold-6f" transform="translate(668.701172 0)"/>
     <use xlink:href="#DejaVuSans-Bold-72" transform="translate(737.402344 0)"/>
     <use xlink:href="#DejaVuSans-Bold-65" transform="translate(786.71875 0)"/>
     <use xlink:href="#DejaVuSans-Bold-20" transform="translate(854.541016 0)"/>
     <use xlink:href="#DejaVuSans-Bold-61" transform="translate(889.355469 0)"/>
     <use xlink:href="#DejaVuSans-Bold-63" transform="translate(956.835938 0)"/>
     <use xlink:href="#DejaVuSans-Bold-63" transform="translate(1016.113281 0)"/>
     <use xlink:href="#DejaVuSans-Bold-75" transform="translate(1075.390625 0)"/>
     <use xlink:href="#DejaVuSans-Bold-72" transform="translate(1146.582031 0)"/>
     <use xlink:href="#DejaVuSans-Bold-61" transform="translate(1195.898438 0)"/>
     <use xlink:href="#DejaVuSans-Bold-74" transform="translate(1263.378906 0)"/>
     <use xlink:href="#DejaVuSans-Bold-65" transform="translate(1311.181641 0)"/>
     <use xlink:href="#DejaVuSans-Bold-29" transform="translate(1379.003906 0)"/>
    </g>
   </g>
  </g>
  <g id="axes_3">
   <g id="patch_24">
    <path d="M 802.497318 365.848 
L 1131.0175 365.848 
L 1131.0175 76.848 
L 802.497318 76.848 
z
" style="fill: #ffffff"/>
   </g>
   <g id="patch_25">
    <path d="M 802.497318 89.984364 
L 1021.510773 89.984364 
L 1021.510773 118.133714 
L 802.497318 118.133714 
z
" clip-path="url(#pb0245a7920)" style="fill: #95a5a6; stroke: #ffffff; stroke-linejoin: miter"/>
   </g>
   <g id="patch_26">
    <path d="M 802.497318 136.899948 
L 1048.887454 136.899948 
L 1048.887454 165.049299 
L 802.497318 165.049299 
z
" clip-path="url(#pb0245a7920)" style="fill: #3498db; stroke: #ffffff; stroke-linejoin: miter"/>
   </g>
   <g id="patch_27">
    <path d="M 802.497318 183.815532 
L 1048.887454 183.815532 
L 1048.887454 211.964883 
L 802.497318 211.964883 
z
" clip-path="url(#pb0245a7920)" style="fill: #2980b9; stroke: #ffffff; stroke-linejoin: miter"/>
   </g>
   <g id="patch_28">
    <path d="M 802.497318 230.731117 
L 912.004045 230.731117 
L 912.004045 258.880468 
L 802.497318 258.880468 
z
" clip-path="url(#pb0245a7920)" style="fill: #e67e22; stroke: #ffffff; stroke-linejoin: miter"/>
   </g>
   <g id="patch_29">
    <path d="M 802.497318 277.646701 
L 912.004045 277.646701 
L 912.004045 305.796052 
L 802.497318 305.796052 
z
" clip-path="url(#pb0245a7920)" style="fill: #e74c3c; stroke: #ffffff; stroke-linejoin: miter"/>
   </g>
   <g id="patch_30">
    <path d="M 802.497318 324.562286 
L 1076.264136 324.562286 
L 1076.264136 352.711636 
L 802.497318 352.711636 
z
" clip-path="url(#pb0245a7920)" style="fill: #8e44ad; stroke: #ffffff; stroke-linejoin: miter"/>
   </g>
   <g id="matplotlib.axis_5">
    <g id="xtick_31">
     <g id="line2d_43">
      <g>
       <use xlink:href="#mb75c0d3a1c" x="802.497318" y="365.848" style="stroke: #000000; stroke-width: 0.8"/>
      </g>
     </g>
     <g id="text_33">
      <!-- 0 -->
      <g transform="translate(799.316068 380.446438) scale(0.1 -0.1)">
       <use xlink:href="#DejaVuSans-30"/>
      </g>
     </g>
    </g>
    <g id="xtick_32">
     <g id="line2d_44">
      <g>
       <use xlink:href="#mb75c0d3a1c" x="857.250681" y="365.848" style="stroke: #000000; stroke-width: 0.8"/>
      </g>
     </g>
     <g id="text_34">
      <!-- 2 -->
      <g transform="translate(854.069431 380.446438) scale(0.1 -0.1)">
       <use xlink:href="#DejaVuSans-32"/>
      </g>
     </g>
    </g>
    <g id="xtick_33">
     <g id="line2d_45">
      <g>
       <use xlink:href="#mb75c0d3a1c" x="912.004045" y="365.848" style="stroke: #000000; stroke-width: 0.8"/>
      </g>
     </g>
     <g id="text_35">
      <!-- 4 -->
      <g transform="translate(908.822795 380.446438) scale(0.1 -0.1)">
       <use xlink:href="#DejaVuSans-34"/>
      </g>
     </g>
    </g>
    <g id="xtick_34">
     <g id="line2d_46">
      <g>
       <use xlink:href="#mb75c0d3a1c" x="966.757409" y="365.848" style="stroke: #000000; stroke-width: 0.8"/>
      </g>
     </g>
     <g id="text_36">
      <!-- 6 -->
      <g transform="translate(963.576159 380.446438) scale(0.1 -0.1)">
       <use xlink:href="#DejaVuSans-36"/>
      </g>
     </g>
    </g>
    <g id="xtick_35">
     <g id="line2d_47">
      <g>
       <use xlink:href="#mb75c0d3a1c" x="1021.510773" y="365.848" style="stroke: #000000; stroke-width: 0.8"/>
      </g>
     </g>
     <g id="text_37">
      <!-- 8 -->
      <g transform="translate(1018.329523 380.446438) scale(0.1 -0.1)">
       <use xlink:href="#DejaVuSans-38"/>
      </g>
     </g>
    </g>
    <g id="xtick_36">
     <g id="line2d_48">
      <g>
       <use xlink:href="#mb75c0d3a1c" x="1076.264136" y="365.848" style="stroke: #000000; stroke-width: 0.8"/>
      </g>
     </g>
     <g id="text_38">
      <!-- 10 -->
      <g transform="translate(1069.901636 380.446438) scale(0.1 -0.1)">
       <use xlink:href="#DejaVuSans-31"/>
       <use xlink:href="#DejaVuSans-30" transform="translate(63.623047 0)"/>
      </g>
     </g>
    </g>
    <g id="xtick_37">
     <g id="line2d_49">
      <g>
       <use xlink:href="#mb75c0d3a1c" x="1131.0175" y="365.848" style="stroke: #000000; stroke-width: 0.8"/>
      </g>
     </g>
     <g id="text_39">
      <!-- 12 -->
      <g transform="translate(1124.655 380.446438) scale(0.1 -0.1)">
       <use xlink:href="#DejaVuSans-31"/>
       <use xlink:href="#DejaVuSans-32" transform="translate(63.623047 0)"/>
      </g>
     </g>
    </g>
    <g id="text_40">
     <!-- Feature Coverage Breadth (1-10) -->
     <g transform="translate(884.07694 394.124562) scale(0.1 -0.1)">
      <defs>
       <path id="DejaVuSans-46" d="M 628 4666 
L 3309 4666 
L 3309 4134 
L 1259 4134 
L 1259 2759 
L 3109 2759 
L 3109 2228 
L 1259 2228 
L 1259 0 
L 628 0 
L 628 4666 
z
" transform="scale(0.015625)"/>
       <path id="DejaVuSans-42" d="M 1259 2228 
L 1259 519 
L 2272 519 
Q 2781 519 3026 730 
Q 3272 941 3272 1375 
Q 3272 1813 3026 2020 
Q 2781 2228 2272 2228 
L 1259 2228 
z
M 1259 4147 
L 1259 2741 
L 2194 2741 
Q 2656 2741 2882 2914 
Q 3109 3088 3109 3444 
Q 3109 3797 2882 3972 
Q 2656 4147 2194 4147 
L 1259 4147 
z
M 628 4666 
L 2241 4666 
Q 2963 4666 3353 4366 
Q 3744 4066 3744 3513 
Q 3744 3084 3544 2831 
Q 3344 2578 2956 2516 
Q 3422 2416 3680 2098 
Q 3938 1781 3938 1306 
Q 3938 681 3513 340 
Q 3088 0 2303 0 
L 628 0 
L 628 4666 
z
" transform="scale(0.015625)"/>
       <path id="DejaVuSans-68" d="M 3513 2113 
L 3513 0 
L 2938 0 
L 2938 2094 
Q 2938 2591 2744 2837 
Q 2550 3084 2163 3084 
Q 1697 3084 1428 2787 
Q 1159 2491 1159 1978 
L 1159 0 
L 581 0 
L 581 4863 
L 1159 4863 
L 1159 2956 
Q 1366 3272 1645 3428 
Q 1925 3584 2291 3584 
Q 2894 3584 3203 3211 
Q 3513 2838 3513 2113 
z
" transform="scale(0.015625)"/>
      </defs>
      <use xlink:href="#DejaVuSans-46"/>
      <use xlink:href="#DejaVuSans-65" transform="translate(52.019531 0)"/>
      <use xlink:href="#DejaVuSans-61" transform="translate(113.542969 0)"/>
      <use xlink:href="#DejaVuSans-74" transform="translate(174.822266 0)"/>
      <use xlink:href="#DejaVuSans-75" transform="translate(214.03125 0)"/>
      <use xlink:href="#DejaVuSans-72" transform="translate(277.410156 0)"/>
      <use xlink:href="#DejaVuSans-65" transform="translate(316.273438 0)"/>
      <use xlink:href="#DejaVuSans-20" transform="translate(377.796875 0)"/>
      <use xlink:href="#DejaVuSans-43" transform="translate(409.583984 0)"/>
      <use xlink:href="#DejaVuSans-6f" transform="translate(479.408203 0)"/>
      <use xlink:href="#DejaVuSans-76" transform="translate(540.589844 0)"/>
      <use xlink:href="#DejaVuSans-65" transform="translate(599.769531 0)"/>
      <use xlink:href="#DejaVuSans-72" transform="translate(661.292969 0)"/>
      <use xlink:href="#DejaVuSans-61" transform="translate(702.40625 0)"/>
      <use xlink:href="#DejaVuSans-67" transform="translate(763.685547 0)"/>
      <use xlink:href="#DejaVuSans-65" transform="translate(827.162109 0)"/>
      <use xlink:href="#DejaVuSans-20" transform="translate(888.685547 0)"/>
      <use xlink:href="#DejaVuSans-42" transform="translate(920.472656 0)"/>
      <use xlink:href="#DejaVuSans-72" transform="translate(989.076172 0)"/>
      <use xlink:href="#DejaVuSans-65" transform="translate(1027.939453 0)"/>
      <use xlink:href="#DejaVuSans-61" transform="translate(1089.462891 0)"/>
      <use xlink:href="#DejaVuSans-64" transform="translate(1150.742188 0)"/>
      <use xlink:href="#DejaVuSans-74" transform="translate(1214.21875 0)"/>
      <use xlink:href="#DejaVuSans-68" transform="translate(1253.427734 0)"/>
      <use xlink:href="#DejaVuSans-20" transform="translate(1316.806641 0)"/>
      <use xlink:href="#DejaVuSans-28" transform="translate(1348.59375 0)"/>
      <use xlink:href="#DejaVuSans-31" transform="translate(1387.607422 0)"/>
      <use xlink:href="#DejaVuSans-2d" transform="translate(1451.230469 0)"/>
      <use xlink:href="#DejaVuSans-31" transform="translate(1487.314453 0)"/>
      <use xlink:href="#DejaVuSans-30" transform="translate(1550.9375 0)"/>
      <use xlink:href="#DejaVuSans-29" transform="translate(1614.560547 0)"/>
     </g>
    </g>
   </g>
   <g id="matplotlib.axis_6">
    <g id="ytick_13">
     <g id="line2d_50">
      <g>
       <use xlink:href="#mddfeb7b758" x="802.497318" y="104.059039" style="stroke: #000000; stroke-width: 0.8"/>
      </g>
     </g>
    </g>
    <g id="ytick_14">
     <g id="line2d_51">
      <g>
       <use xlink:href="#mddfeb7b758" x="802.497318" y="150.974623" style="stroke: #000000; stroke-width: 0.8"/>
      </g>
     </g>
    </g>
    <g id="ytick_15">
     <g id="line2d_52">
      <g>
       <use xlink:href="#mddfeb7b758" x="802.497318" y="197.890208" style="stroke: #000000; stroke-width: 0.8"/>
      </g>
     </g>
    </g>
    <g id="ytick_16">
     <g id="line2d_53">
      <g>
       <use xlink:href="#mddfeb7b758" x="802.497318" y="244.805792" style="stroke: #000000; stroke-width: 0.8"/>
      </g>
     </g>
    </g>
    <g id="ytick_17">
     <g id="line2d_54">
      <g>
       <use xlink:href="#mddfeb7b758" x="802.497318" y="291.721377" style="stroke: #000000; stroke-width: 0.8"/>
      </g>
     </g>
    </g>
    <g id="ytick_18">
     <g id="line2d_55">
      <g>
       <use xlink:href="#mddfeb7b758" x="802.497318" y="338.636961" style="stroke: #000000; stroke-width: 0.8"/>
      </g>
     </g>
    </g>
   </g>
   <g id="patch_31">
    <path d="M 802.497318 365.848 
L 802.497318 76.848 
" style="fill: none; stroke: #000000; stroke-width: 0.8; stroke-linejoin: miter; stroke-linecap: square"/>
   </g>
   <g id="patch_32">
    <path d="M 1131.0175 365.848 
L 1131.0175 76.848 
" style="fill: none; stroke: #000000; stroke-width: 0.8; stroke-linejoin: miter; stroke-linecap: square"/>
   </g>
   <g id="patch_33">
    <path d="M 802.497318 365.848 
L 1131.0175 365.848 
" style="fill: none; stroke: #000000; stroke-width: 0.8; stroke-linejoin: miter; stroke-linecap: square"/>
   </g>
   <g id="patch_34">
    <path d="M 802.497318 76.848 
L 1131.0175 76.848 
" style="fill: none; stroke: #000000; stroke-width: 0.8; stroke-linejoin: miter; stroke-linecap: square"/>
   </g>
   <g id="text_41">
    <!-- 8 -->
    <g transform="translate(1029.723777 106.542476) scale(0.09 -0.09)">
     <use xlink:href="#DejaVuSans-38"/>
    </g>
   </g>
   <g id="text_42">
    <!-- 9 -->
    <g transform="translate(1057.100459 153.458061) scale(0.09 -0.09)">
     <use xlink:href="#DejaVuSans-39"/>
    </g>
   </g>
   <g id="text_43">
    <!-- 9 -->
    <g transform="translate(1057.100459 200.373645) scale(0.09 -0.09)">
     <use xlink:href="#DejaVuSans-39"/>
    </g>
   </g>
   <g id="text_44">
    <!-- 4 -->
    <g transform="translate(920.21705 247.28923) scale(0.09 -0.09)">
     <use xlink:href="#DejaVuSans-34"/>
    </g>
   </g>
   <g id="text_45">
    <!-- 4 -->
    <g transform="translate(920.21705 294.204814) scale(0.09 -0.09)">
     <use xlink:href="#DejaVuSans-34"/>
    </g>
   </g>
   <g id="text_46">
    <!-- 10 -->
    <g transform="translate(1084.477141 341.120399) scale(0.09 -0.09)">
     <use xlink:href="#DejaVuSans-31"/>
     <use xlink:href="#DejaVuSans-30" transform="translate(63.623047 0)"/>
    </g>
   </g>
   <g id="text_47">
    <!-- System Coverage -->
    <g transform="translate(912.710456 58.444469) scale(0.11 -0.11)">
     <defs>
      <path id="DejaVuSans-Bold-43" d="M 4288 256 
Q 3956 84 3597 -3 
Q 3238 -91 2847 -91 
Q 1681 -91 1000 561 
Q 319 1213 319 2328 
Q 319 3447 1000 4098 
Q 1681 4750 2847 4750 
Q 3238 4750 3597 4662 
Q 3956 4575 4288 4403 
L 4288 3438 
Q 3953 3666 3628 3772 
Q 3303 3878 2944 3878 
Q 2300 3878 1931 3465 
Q 1563 3053 1563 2328 
Q 1563 1606 1931 1193 
Q 2300 781 2944 781 
Q 3303 781 3628 887 
Q 3953 994 4288 1222 
L 4288 256 
z
" transform="scale(0.015625)"/>
      <path id="DejaVuSans-Bold-76" d="M 97 3500 
L 1216 3500 
L 2088 1081 
L 2956 3500 
L 4078 3500 
L 2700 0 
L 1472 0 
L 97 3500 
z
" transform="scale(0.015625)"/>
     </defs>
     <use xlink:href="#DejaVuSans-Bold-53"/>
     <use xlink:href="#DejaVuSans-Bold-79" transform="translate(72.021484 0)"/>
     <use xlink:href="#DejaVuSans-Bold-73" transform="translate(137.207031 0)"/>
     <use xlink:href="#DejaVuSans-Bold-74" transform="translate(196.728516 0)"/>
     <use xlink:href="#DejaVuSans-Bold-65" transform="translate(244.53125 0)"/>
     <use xlink:href="#DejaVuSans-Bold-6d" transform="translate(312.353516 0)"/>
     <use xlink:href="#DejaVuSans-Bold-20" transform="translate(416.552734 0)"/>
     <use xlink:href="#DejaVuSans-Bold-43" transform="translate(451.367188 0)"/>
     <use xlink:href="#DejaVuSans-Bold-6f" transform="translate(524.755859 0)"/>
     <use xlink:href="#DejaVuSans-Bold-76" transform="translate(593.457031 0)"/>
     <use xlink:href="#DejaVuSans-Bold-65" transform="translate(658.642578 0)"/>
     <use xlink:href="#DejaVuSans-Bold-72" transform="translate(726.464844 0)"/>
     <use xlink:href="#DejaVuSans-Bold-61" transform="translate(775.78125 0)"/>
     <use xlink:href="#DejaVuSans-Bold-67" transform="translate(843.261719 0)"/>
     <use xlink:href="#DejaVuSans-Bold-65" transform="translate(914.84375 0)"/>
    </g>
    <!-- (higher = broader) -->
    <g transform="translate(908.677409 70.848) scale(0.11 -0.11)">
     <defs>
      <path id="DejaVuSans-Bold-62" d="M 2400 722 
Q 2759 722 2948 984 
Q 3138 1247 3138 1747 
Q 3138 2247 2948 2509 
Q 2759 2772 2400 2772 
Q 2041 2772 1848 2508 
Q 1656 2244 1656 1747 
Q 1656 1250 1848 986 
Q 2041 722 2400 722 
z
M 1656 2988 
Q 1888 3294 2169 3439 
Q 2450 3584 2816 3584 
Q 3463 3584 3878 3070 
Q 4294 2556 4294 1747 
Q 4294 938 3878 423 
Q 3463 -91 2816 -91 
Q 2450 -91 2169 54 
Q 1888 200 1656 506 
L 1656 0 
L 538 0 
L 538 4863 
L 1656 4863 
L 1656 2988 
z
" transform="scale(0.015625)"/>
     </defs>
     <use xlink:href="#DejaVuSans-Bold-28"/>
     <use xlink:href="#DejaVuSans-Bold-68" transform="translate(45.703125 0)"/>
     <use xlink:href="#DejaVuSans-Bold-69" transform="translate(116.894531 0)"/>
     <use xlink:href="#DejaVuSans-Bold-67" transform="translate(151.171875 0)"/>
     <use xlink:href="#DejaVuSans-Bold-68" transform="translate(222.753906 0)"/>
     <use xlink:href="#DejaVuSans-Bold-65" transform="translate(293.945312 0)"/>
     <use xlink:href="#DejaVuSans-Bold-72" transform="translate(361.767578 0)"/>
     <use xlink:href="#DejaVuSans-Bold-20" transform="translate(411.083984 0)"/>
     <use xlink:href="#DejaVuSans-Bold-3d" transform="translate(445.898438 0)"/>
     <use xlink:href="#DejaVuSans-Bold-20" transform="translate(529.6875 0)"/>
     <use xlink:href="#DejaVuSans-Bold-62" transform="translate(564.501953 0)"/>
     <use xlink:href="#DejaVuSans-Bold-72" transform="translate(636.083984 0)"/>
     <use xlink:href="#DejaVuSans-Bold-6f" transform="translate(685.400391 0)"/>
     <use xlink:href="#DejaVuSans-Bold-61" transform="translate(754.101562 0)"/>
     <use xlink:href="#DejaVuSans-Bold-64" transform="translate(821.582031 0)"/>
     <use xlink:href="#DejaVuSans-Bold-65" transform="translate(893.164062 0)"/>
     <use xlink:href="#DejaVuSans-Bold-72" transform="translate(960.986328 0)"/>
     <use xlink:href="#DejaVuSans-Bold-29" transform="translate(1010.302734 0)"/>
    </g>
   </g>
  </g>
  <g id="text_48">
   <!-- Memory Simulation Platform Bottleneck: Speed vs Accuracy vs Coverage Tradeoff -->
   <g transform="translate(272.001953 17.077969) scale(0.13 -0.13)">
    <defs>
     <path id="DejaVuSans-Bold-4d" d="M 588 4666 
L 2119 4666 
L 3181 2169 
L 4250 4666 
L 5778 4666 
L 5778 0 
L 4641 0 
L 4641 3413 
L 3566 897 
L 2803 897 
L 1728 3413 
L 1728 0 
L 588 0 
L 588 4666 
z
" transform="scale(0.015625)"/>
     <path id="DejaVuSans-Bold-50" d="M 588 4666 
L 2584 4666 
Q 3475 4666 3951 4270 
Q 4428 3875 4428 3144 
Q 4428 2409 3951 2014 
Q 3475 1619 2584 1619 
L 1791 1619 
L 1791 0 
L 588 0 
L 588 4666 
z
M 1791 3794 
L 1791 2491 
L 2456 2491 
Q 2806 2491 2997 2661 
Q 3188 2831 3188 3144 
Q 3188 3456 2997 3625 
Q 2806 3794 2456 3794 
L 1791 3794 
z
" transform="scale(0.015625)"/>
     <path id="DejaVuSans-Bold-42" d="M 2456 2859 
Q 2741 2859 2887 2984 
Q 3034 3109 3034 3353 
Q 3034 3594 2887 3720 
Q 2741 3847 2456 3847 
L 1791 3847 
L 1791 2859 
L 2456 2859 
z
M 2497 819 
Q 2859 819 3042 972 
Q 3225 1125 3225 1434 
Q 3225 1738 3044 1889 
Q 2863 2041 2497 2041 
L 1791 2041 
L 1791 819 
L 2497 819 
z
M 3616 2497 
Q 4003 2384 4215 2081 
Q 4428 1778 4428 1338 
Q 4428 663 3972 331 
Q 3516 0 2584 0 
L 588 0 
L 588 4666 
L 2394 4666 
Q 3366 4666 3802 4372 
Q 4238 4078 4238 3431 
Q 4238 3091 4078 2852 
Q 3919 2613 3616 2497 
z
" transform="scale(0.015625)"/>
     <path id="DejaVuSans-Bold-6b" d="M 538 4863 
L 1656 4863 
L 1656 2216 
L 2944 3500 
L 4244 3500 
L 2534 1894 
L 4378 0 
L 3022 0 
L 1656 1459 
L 1656 0 
L 538 0 
L 538 4863 
z
" transform="scale(0.015625)"/>
     <path id="DejaVuSans-Bold-3a" d="M 716 3500 
L 1844 3500 
L 1844 2291 
L 716 2291 
L 716 3500 
z
M 716 1209 
L 1844 1209 
L 1844 0 
L 716 0 
L 716 1209 
z
" transform="scale(0.015625)"/>
    </defs>
    <use xlink:href="#DejaVuSans-Bold-4d"/>
    <use xlink:href="#DejaVuSans-Bold-65" transform="translate(99.511719 0)"/>
    <use xlink:href="#DejaVuSans-Bold-6d" transform="translate(167.333984 0)"/>
    <use xlink:href="#DejaVuSans-Bold-6f" transform="translate(271.533203 0)"/>
    <use xlink:href="#DejaVuSans-Bold-72" transform="translate(340.234375 0)"/>
    <use xlink:href="#DejaVuSans-Bold-79" transform="translate(389.550781 0)"/>
    <use xlink:href="#DejaVuSans-Bold-20" transform="translate(454.736328 0)"/>
    <use xlink:href="#DejaVuSans-Bold-53" transform="translate(489.550781 0)"/>
    <use xlink:href="#DejaVuSans-Bold-69" transform="translate(561.572266 0)"/>
    <use xlink:href="#DejaVuSans-Bold-6d" transform="translate(595.849609 0)"/>
    <use xlink:href="#DejaVuSans-Bold-75" transform="translate(700.048828 0)"/>
    <use xlink:href="#DejaVuSans-Bold-6c" transform="translate(771.240234 0)"/>
    <use xlink:href="#DejaVuSans-Bold-61" transform="translate(805.517578 0)"/>
    <use xlink:href="#DejaVuSans-Bold-74" transform="translate(872.998047 0)"/>
    <use xlink:href="#DejaVuSans-Bold-69" transform="translate(920.800781 0)"/>
    <use xlink:href="#DejaVuSans-Bold-6f" transform="translate(955.078125 0)"/>
    <use xlink:href="#DejaVuSans-Bold-6e" transform="translate(1023.779297 0)"/>
    <use xlink:href="#DejaVuSans-Bold-20" transform="translate(1094.970703 0)"/>
    <use xlink:href="#DejaVuSans-Bold-50" transform="translate(1129.785156 0)"/>
    <use xlink:href="#DejaVuSans-Bold-6c" transform="translate(1203.076172 0)"/>
    <use xlink:href="#DejaVuSans-Bold-61" transform="translate(1237.353516 0)"/>
    <use xlink:href="#DejaVuSans-Bold-74" transform="translate(1304.833984 0)"/>
    <use xlink:href="#DejaVuSans-Bold-66" transform="translate(1352.636719 0)"/>
    <use xlink:href="#DejaVuSans-Bold-6f" transform="translate(1396.142578 0)"/>
    <use xlink:href="#DejaVuSans-Bold-72" transform="translate(1464.84375 0)"/>
    <use xlink:href="#DejaVuSans-Bold-6d" transform="translate(1514.160156 0)"/>
    <use xlink:href="#DejaVuSans-Bold-20" transform="translate(1618.359375 0)"/>
    <use xlink:href="#DejaVuSans-Bold-42" transform="translate(1653.173828 0)"/>
    <use xlink:href="#DejaVuSans-Bold-6f" transform="translate(1729.394531 0)"/>
    <use xlink:href="#DejaVuSans-Bold-74" transform="translate(1798.095703 0)"/>
    <use xlink:href="#DejaVuSans-Bold-74" transform="translate(1845.898438 0)"/>
    <use xlink:href="#DejaVuSans-Bold-6c" transform="translate(1893.701172 0)"/>
    <use xlink:href="#DejaVuSans-Bold-65" transform="translate(1927.978516 0)"/>
    <use xlink:href="#DejaVuSans-Bold-6e" transform="translate(1995.800781 0)"/>
    <use xlink:href="#DejaVuSans-Bold-65" transform="translate(2066.992188 0)"/>
    <use xlink:href="#DejaVuSans-Bold-63" transform="translate(2134.814453 0)"/>
    <use xlink:href="#DejaVuSans-Bold-6b" transform="translate(2194.091797 0)"/>
    <use xlink:href="#DejaVuSans-Bold-3a" transform="translate(2260.595703 0)"/>
    <use xlink:href="#DejaVuSans-Bold-20" transform="translate(2300.585938 0)"/>
    <use xlink:href="#DejaVuSans-Bold-53" transform="translate(2335.400391 0)"/>
    <use xlink:href="#DejaVuSans-Bold-70" transform="translate(2407.421875 0)"/>
    <use xlink:href="#DejaVuSans-Bold-65" transform="translate(2479.003906 0)"/>
    <use xlink:href="#DejaVuSans-Bold-65" transform="translate(2546.826172 0)"/>
    <use xlink:href="#DejaVuSans-Bold-64" transform="translate(2614.648438 0)"/>
    <use xlink:href="#DejaVuSans-Bold-20" transform="translate(2686.230469 0)"/>
    <use xlink:href="#DejaVuSans-Bold-76" transform="translate(2721.044922 0)"/>
    <use xlink:href="#DejaVuSans-Bold-73" transform="translate(2786.230469 0)"/>
    <use xlink:href="#DejaVuSans-Bold-20" transform="translate(2845.751953 0)"/>
    <use xlink:href="#DejaVuSans-Bold-41" transform="translate(2880.566406 0)"/>
    <use xlink:href="#DejaVuSans-Bold-63" transform="translate(2957.958984 0)"/>
    <use xlink:href="#DejaVuSans-Bold-63" transform="translate(3017.236328 0)"/>
    <use xlink:href="#DejaVuSans-Bold-75" transform="translate(3076.513672 0)"/>
    <use xlink:href="#DejaVuSans-Bold-72" transform="translate(3147.705078 0)"/>
    <use xlink:href="#DejaVuSans-Bold-61" transform="translate(3197.021484 0)"/>
    <use xlink:href="#DejaVuSans-Bold-63" transform="translate(3264.501953 0)"/>
    <use xlink:href="#DejaVuSans-Bold-79" transform="translate(3323.779297 0)"/>
    <use xlink:href="#DejaVuSans-Bold-20" transform="translate(3388.964844 0)"/>
    <use xlink:href="#DejaVuSans-Bold-76" transform="translate(3423.779297 0)"/>
    <use xlink:href="#DejaVuSans-Bold-73" transform="translate(3488.964844 0)"/>
    <use xlink:href="#DejaVuSans-Bold-20" transform="translate(3548.486328 0)"/>
    <use xlink:href="#DejaVuSans-Bold-43" transform="translate(3583.300781 0)"/>
    <use xlink:href="#DejaVuSans-Bold-6f" transform="translate(3656.689453 0)"/>
    <use xlink:href="#DejaVuSans-Bold-76" transform="translate(3725.390625 0)"/>
    <use xlink:href="#DejaVuSans-Bold-65" transform="translate(3790.576172 0)"/>
    <use xlink:href="#DejaVuSans-Bold-72" transform="translate(3858.398438 0)"/>
    <use xlink:href="#DejaVuSans-Bold-61" transform="translate(3907.714844 0)"/>
    <use xlink:href="#DejaVuSans-Bold-67" transform="translate(3975.195312 0)"/>
    <use xlink:href="#DejaVuSans-Bold-65" transform="translate(4046.777344 0)"/>
    <use xlink:href="#DejaVuSans-Bold-20" transform="translate(4114.599609 0)"/>
    <use xlink:href="#DejaVuSans-Bold-54" transform="translate(4149.414062 0)"/>
    <use xlink:href="#DejaVuSans-Bold-72" transform="translate(4206.626953 0)"/>
    <use xlink:href="#DejaVuSans-Bold-61" transform="translate(4255.943359 0)"/>
    <use xlink:href="#DejaVuSans-Bold-64" transform="translate(4323.423828 0)"/>
    <use xlink:href="#DejaVuSans-Bold-65" transform="translate(4395.005859 0)"/>
    <use xlink:href="#DejaVuSans-Bold-6f" transform="translate(4462.828125 0)"/>
    <use xlink:href="#DejaVuSans-Bold-66" transform="translate(4531.529297 0)"/>
    <use xlink:href="#DejaVuSans-Bold-66" transform="translate(4575.035156 0)"/>
   </g>
  </g>
 </g>
 <defs>
  <clipPath id="p504fb01745">
   <rect x="74.6675" y="76.848" width="328.520182" height="289"/>
  </clipPath>
  <clipPath id="p2b10092fc2">
   <rect x="438.582409" y="76.848" width="328.520182" height="289"/>
  </clipPath>
  <clipPath id="pb0245a7920">
   <rect x="802.497318" y="76.848" width="328.520182" height="289"/>
  </clipPath>
 </defs>
</svg>
