<?xml version="1.0" encoding="utf-8" standalone="no"?>
<!DOCTYPE svg PUBLIC "-//W3C//DTD SVG 1.1//EN"
  "http://www.w3.org/Graphics/SVG/1.1/DTD/svg11.dtd">
<svg xmlns:xlink="http://www.w3.org/1999/xlink" width="828pt" height="561.6pt" viewBox="0 0 828 561.6" xmlns="http://www.w3.org/2000/svg" version="1.1">
 <metadata>
  <rdf:RDF xmlns:dc="http://purl.org/dc/elements/1.1/" xmlns:cc="http://creativecommons.org/ns#" xmlns:rdf="http://www.w3.org/1999/02/22-rdf-syntax-ns#">
   <cc:Work>
    <dc:type rdf:resource="http://purl.org/dc/dcmitype/StillImage"/>
    <dc:date>2026-06-23T11:14:51.759467</dc:date>
    <dc:format>image/svg+xml</dc:format>
    <dc:creator>
     <cc:Agent>
      <dc:title>Matplotlib v3.9.2, https://matplotlib.org/</dc:title>
     </cc:Agent>
    </dc:creator>
   </cc:Work>
  </rdf:RDF>
 </metadata>
 <defs>
  <style type="text/css">*{stroke-linejoin: round; stroke-linecap: butt}</style>
 </defs>
 <g id="figure_1">
  <g id="patch_1">
   <path d="M 0 561.6 
L 828 561.6 
L 828 0 
L 0 0 
z
" style="fill: #ffffff"/>
  </g>
  <g id="axes_1">
   <g id="patch_2">
    <path d="M 62.1 440.856 
L 774.18 440.856 
L 774.18 73.008 
L 62.1 73.008 
z
" style="fill: #ffffff"/>
   </g>
   <g id="patch_3">
    <path d="M 384.666154 440.856 
L 567.250769 440.856 
L 567.250769 73.008 
L 384.666154 73.008 
z
" clip-path="url(#pacf0ef0364)" style="fill: #f6f6f0; stroke: #f6f6f0; stroke-linejoin: miter"/>
   </g>
   <g id="matplotlib.axis_1">
    <g id="xtick_1">
     <g id="line2d_1">
      <defs>
       <path id="mfad70a25de" d="M 0 0 
L 0 3.5 
" style="stroke: #777777; stroke-width: 0.8"/>
      </defs>
      <g>
       <use xlink:href="#mfad70a25de" x="80.358462" y="440.856" style="fill: #777777; stroke: #777777; stroke-width: 0.8"/>
      </g>
     </g>
     <g id="text_1">
      <text style="fill: #777777; font: 10px 'Microsoft YaHei', 'SimHei', 'PingFang SC', 'Noto Sans CJK SC', 'Source Han Sans SC', 'WenQuanYi Zen Hei', sans-serif; text-anchor: middle" x="80.358462" y="455.84975" transform="rotate(-0 80.358462 455.84975)">2024</text>
     </g>
    </g>
    <g id="xtick_2">
     <g id="line2d_2">
      <g>
       <use xlink:href="#mfad70a25de" x="202.081538" y="440.856" style="fill: #777777; stroke: #777777; stroke-width: 0.8"/>
      </g>
     </g>
     <g id="text_2">
      <text style="fill: #777777; font: 10px 'Microsoft YaHei', 'SimHei', 'PingFang SC', 'Noto Sans CJK SC', 'Source Han Sans SC', 'WenQuanYi Zen Hei', sans-serif; text-anchor: middle" x="202.081538" y="455.84975" transform="rotate(-0 202.081538 455.84975)">2025</text>
     </g>
    </g>
    <g id="xtick_3">
     <g id="line2d_3">
      <g>
       <use xlink:href="#mfad70a25de" x="323.804615" y="440.856" style="fill: #777777; stroke: #777777; stroke-width: 0.8"/>
      </g>
     </g>
     <g id="text_3">
      <text style="fill: #777777; font: 10px 'Microsoft YaHei', 'SimHei', 'PingFang SC', 'Noto Sans CJK SC', 'Source Han Sans SC', 'WenQuanYi Zen Hei', sans-serif; text-anchor: middle" x="323.804615" y="455.84975" transform="rotate(-0 323.804615 455.84975)">2026</text>
     </g>
    </g>
    <g id="xtick_4">
     <g id="line2d_4">
      <g>
       <use xlink:href="#mfad70a25de" x="445.527692" y="440.856" style="fill: #777777; stroke: #777777; stroke-width: 0.8"/>
      </g>
     </g>
     <g id="text_4">
      <text style="fill: #777777; font: 10px 'Microsoft YaHei', 'SimHei', 'PingFang SC', 'Noto Sans CJK SC', 'Source Han Sans SC', 'WenQuanYi Zen Hei', sans-serif; text-anchor: middle" x="445.527692" y="455.84975" transform="rotate(-0 445.527692 455.84975)">2027</text>
     </g>
    </g>
    <g id="xtick_5">
     <g id="line2d_5">
      <g>
       <use xlink:href="#mfad70a25de" x="567.250769" y="440.856" style="fill: #777777; stroke: #777777; stroke-width: 0.8"/>
      </g>
     </g>
     <g id="text_5">
      <text style="fill: #777777; font: 10px 'Microsoft YaHei', 'SimHei', 'PingFang SC', 'Noto Sans CJK SC', 'Source Han Sans SC', 'WenQuanYi Zen Hei', sans-serif; text-anchor: middle" x="567.250769" y="455.84975" transform="rotate(-0 567.250769 455.84975)">2028</text>
     </g>
    </g>
    <g id="text_6">
     <text style="fill: #666666; font: 11px 'Microsoft YaHei', 'SimHei', 'PingFang SC', 'Noto Sans CJK SC', 'Source Han Sans SC', 'WenQuanYi Zen Hei', sans-serif; text-anchor: middle" x="418.14" y="471.128813" transform="rotate(-0 418.14 471.128813)">年份（中位旗舰）</text>
    </g>
   </g>
   <g id="matplotlib.axis_2">
    <g id="ytick_1">
     <g id="line2d_6">
      <path d="M 62.1 440.856 
L 774.18 440.856 
" clip-path="url(#pacf0ef0364)" style="fill: none; stroke-dasharray: 2,3; stroke-dashoffset: 0; stroke: #e6e6e6"/>
     </g>
     <g id="line2d_7">
      <defs>
       <path id="m4277305686" d="M 0 0 
L -3.5 0 
" style="stroke: #777777; stroke-width: 0.8"/>
      </defs>
      <g>
       <use xlink:href="#m4277305686" x="62.1" y="440.856" style="fill: #777777; stroke: #777777; stroke-width: 0.8"/>
      </g>
     </g>
     <g id="text_7">
      <text style="fill: #777777; font: 10px 'Microsoft YaHei', 'SimHei', 'PingFang SC', 'Noto Sans CJK SC', 'Source Han Sans SC', 'WenQuanYi Zen Hei', sans-serif; text-anchor: end" x="55.1" y="444.852875" transform="rotate(-0 55.1 444.852875)">0</text>
     </g>
    </g>
    <g id="ytick_2">
     <g id="line2d_8">
      <path d="M 62.1 388.306286 
L 774.18 388.306286 
" clip-path="url(#pacf0ef0364)" style="fill: none; stroke-dasharray: 2,3; stroke-dashoffset: 0; stroke: #e6e6e6"/>
     </g>
     <g id="line2d_9">
      <g>
       <use xlink:href="#m4277305686" x="62.1" y="388.306286" style="fill: #777777; stroke: #777777; stroke-width: 0.8"/>
      </g>
     </g>
     <g id="text_8">
      <text style="fill: #777777; font: 10px 'Microsoft YaHei', 'SimHei', 'PingFang SC', 'Noto Sans CJK SC', 'Source Han Sans SC', 'WenQuanYi Zen Hei', sans-serif; text-anchor: end" x="55.1" y="392.303161" transform="rotate(-0 55.1 392.303161)">4</text>
     </g>
    </g>
    <g id="ytick_3">
     <g id="line2d_10">
      <path d="M 62.1 335.756571 
L 774.18 335.756571 
" clip-path="url(#pacf0ef0364)" style="fill: none; stroke-dasharray: 2,3; stroke-dashoffset: 0; stroke: #e6e6e6"/>
     </g>
     <g id="line2d_11">
      <g>
       <use xlink:href="#m4277305686" x="62.1" y="335.756571" style="fill: #777777; stroke: #777777; stroke-width: 0.8"/>
      </g>
     </g>
     <g id="text_9">
      <text style="fill: #777777; font: 10px 'Microsoft YaHei', 'SimHei', 'PingFang SC', 'Noto Sans CJK SC', 'Source Han Sans SC', 'WenQuanYi Zen Hei', sans-serif; text-anchor: end" x="55.1" y="339.753446" transform="rotate(-0 55.1 339.753446)">8</text>
     </g>
    </g>
    <g id="ytick_4">
     <g id="line2d_12">
      <path d="M 62.1 283.206857 
L 774.18 283.206857 
" clip-path="url(#pacf0ef0364)" style="fill: none; stroke-dasharray: 2,3; stroke-dashoffset: 0; stroke: #e6e6e6"/>
     </g>
     <g id="line2d_13">
      <g>
       <use xlink:href="#m4277305686" x="62.1" y="283.206857" style="fill: #777777; stroke: #777777; stroke-width: 0.8"/>
      </g>
     </g>
     <g id="text_10">
      <text style="fill: #777777; font: 10px 'Microsoft YaHei', 'SimHei', 'PingFang SC', 'Noto Sans CJK SC', 'Source Han Sans SC', 'WenQuanYi Zen Hei', sans-serif; text-anchor: end" x="55.1" y="287.203732" transform="rotate(-0 55.1 287.203732)">12</text>
     </g>
    </g>
    <g id="ytick_5">
     <g id="line2d_14">
      <path d="M 62.1 230.657143 
L 774.18 230.657143 
" clip-path="url(#pacf0ef0364)" style="fill: none; stroke-dasharray: 2,3; stroke-dashoffset: 0; stroke: #e6e6e6"/>
     </g>
     <g id="line2d_15">
      <g>
       <use xlink:href="#m4277305686" x="62.1" y="230.657143" style="fill: #777777; stroke: #777777; stroke-width: 0.8"/>
      </g>
     </g>
     <g id="text_11">
      <text style="fill: #777777; font: 10px 'Microsoft YaHei', 'SimHei', 'PingFang SC', 'Noto Sans CJK SC', 'Source Han Sans SC', 'WenQuanYi Zen Hei', sans-serif; text-anchor: end" x="55.1" y="234.654018" transform="rotate(-0 55.1 234.654018)">16</text>
     </g>
    </g>
    <g id="ytick_6">
     <g id="line2d_16">
      <path d="M 62.1 178.107429 
L 774.18 178.107429 
" clip-path="url(#pacf0ef0364)" style="fill: none; stroke-dasharray: 2,3; stroke-dashoffset: 0; stroke: #e6e6e6"/>
     </g>
     <g id="line2d_17">
      <g>
       <use xlink:href="#m4277305686" x="62.1" y="178.107429" style="fill: #777777; stroke: #777777; stroke-width: 0.8"/>
      </g>
     </g>
     <g id="text_12">
      <text style="fill: #777777; font: 10px 'Microsoft YaHei', 'SimHei', 'PingFang SC', 'Noto Sans CJK SC', 'Source Han Sans SC', 'WenQuanYi Zen Hei', sans-serif; text-anchor: end" x="55.1" y="182.104304" transform="rotate(-0 55.1 182.104304)">20</text>
     </g>
    </g>
    <g id="ytick_7">
     <g id="line2d_18">
      <path d="M 62.1 125.557714 
L 774.18 125.557714 
" clip-path="url(#pacf0ef0364)" style="fill: none; stroke-dasharray: 2,3; stroke-dashoffset: 0; stroke: #e6e6e6"/>
     </g>
     <g id="line2d_19">
      <g>
       <use xlink:href="#m4277305686" x="62.1" y="125.557714" style="fill: #777777; stroke: #777777; stroke-width: 0.8"/>
      </g>
     </g>
     <g id="text_13">
      <text style="fill: #777777; font: 10px 'Microsoft YaHei', 'SimHei', 'PingFang SC', 'Noto Sans CJK SC', 'Source Han Sans SC', 'WenQuanYi Zen Hei', sans-serif; text-anchor: end" x="55.1" y="129.554589" transform="rotate(-0 55.1 129.554589)">24</text>
     </g>
    </g>
    <g id="ytick_8">
     <g id="line2d_20">
      <path d="M 62.1 73.008 
L 774.18 73.008 
" clip-path="url(#pacf0ef0364)" style="fill: none; stroke-dasharray: 2,3; stroke-dashoffset: 0; stroke: #e6e6e6"/>
     </g>
     <g id="line2d_21">
      <g>
       <use xlink:href="#m4277305686" x="62.1" y="73.008" style="fill: #777777; stroke: #777777; stroke-width: 0.8"/>
      </g>
     </g>
     <g id="text_14">
      <text style="fill: #777777; font: 10px 'Microsoft YaHei', 'SimHei', 'PingFang SC', 'Noto Sans CJK SC', 'Source Han Sans SC', 'WenQuanYi Zen Hei', sans-serif; text-anchor: end" x="55.1" y="77.004875" transform="rotate(-0 55.1 77.004875)">28</text>
     </g>
    </g>
    <g id="text_15">
     <text style="fill: #666666; font: 11px 'Microsoft YaHei', 'SimHei', 'PingFang SC', 'Noto Sans CJK SC', 'Source Han Sans SC', 'WenQuanYi Zen Hei', sans-serif; text-anchor: middle" x="36.637344" y="256.932" transform="rotate(-90 36.637344 256.932)">内存（GB）</text>
    </g>
   </g>
   <g id="text_16">
    <text style="fill: #777777; font: 10px 'Microsoft YaHei', 'SimHei', 'PingFang SC', 'Noto Sans CJK SC', 'Source Han Sans SC', 'WenQuanYi Zen Hei', sans-serif; text-anchor: middle" x="475.958462" y="91.511693" transform="rotate(-0 475.958462 91.511693)">外推区（2026.5 — 2028）</text>
   </g>
   <g id="PolyCollection_1">
    <path d="M 80.358462 371.227629 
L 80.358462 440.856 
L 202.081538 440.856 
L 323.804615 440.856 
L 445.527692 440.856 
L 567.250769 440.856 
L 567.250769 316.050429 
L 567.250769 316.050429 
L 445.527692 333.129086 
L 323.804615 348.894 
L 202.081538 362.031429 
L 80.358462 371.227629 
z
" clip-path="url(#pacf0ef0364)" style="fill: #5589b8; fill-opacity: 0.55"/>
   </g>
   <g id="PolyCollection_2">
    <path d="M 80.358462 351.521486 
L 80.358462 371.227629 
L 202.081538 362.031429 
L 323.804615 348.894 
L 445.527692 333.129086 
L 567.250769 316.050429 
L 567.250769 263.500714 
L 567.250769 263.500714 
L 445.527692 289.775571 
L 323.804615 314.736686 
L 202.081538 335.756571 
L 80.358462 351.521486 
z
" clip-path="url(#pacf0ef0364)" style="fill: #e8a35e; fill-opacity: 0.7"/>
   </g>
   <g id="patch_4">
    <path d="M 62.1 440.856 
L 62.1 73.008 
" style="fill: none; stroke: #888888; stroke-width: 0.8; stroke-linejoin: miter; stroke-linecap: square"/>
   </g>
   <g id="patch_5">
    <path d="M 62.1 440.856 
L 774.18 440.856 
" style="fill: none; stroke: #888888; stroke-width: 0.8; stroke-linejoin: miter; stroke-linecap: square"/>
   </g>
   <g id="PolyCollection_3">
    <defs>
     <path id="m91946e33a0" d="M 235.278741 -231.576125 
L 323.804615 -246.863314 
L 445.527692 -271.824429 
L 567.250769 -298.099286 
L 567.250769 -298.099286 
L 567.250769 -262.628229 
L 445.527692 -244.235829 
L 323.804615 -225.843429 
z
"/>
    </defs>
    <g clip-path="url(#pacf0ef0364)">
     <use xlink:href="#m91946e33a0" x="0" y="561.6" style="fill: #d62828; fill-opacity: 0.28"/>
    </g>
   </g>
   <g id="line2d_22">
    <path d="M 80.358462 283.206857 
L 202.081538 283.206857 
L 323.804615 283.206857 
" clip-path="url(#pacf0ef0364)" style="fill: none; stroke: #1a4f7a; stroke-opacity: 0.3; stroke-width: 6; stroke-linecap: round"/>
   </g>
   <g id="text_17">
    <text style="fill: #1a4f7a; font: 10px 'Microsoft YaHei', 'SimHei', 'PingFang SC', 'Noto Sans CJK SC', 'Source Han Sans SC', 'WenQuanYi Zen Hei', sans-serif; text-anchor: start" x="576.988615" y="233.411049" transform="rotate(-0 576.988615 233.411049)">16 GB</text>
   </g>
   <g id="text_18">
    <text style="fill: #7a8694; font: 9.5px 'Microsoft YaHei', 'SimHei', 'PingFang SC', 'Noto Sans CJK SC', 'Source Han Sans SC', 'WenQuanYi Zen Hei', sans-serif; text-anchor: start" x="576.988615" y="128.173925" transform="rotate(-0 576.988615 128.173925)">若 RAM 仍便宜</text>
   </g>
   <g id="text_19">
    <text style="fill: #7a8694; font: 9.5px 'Microsoft YaHei', 'SimHei', 'PingFang SC', 'Noto Sans CJK SC', 'Source Han Sans SC', 'WenQuanYi Zen Hei', sans-serif; text-anchor: start" x="576.988615" y="142.625097" transform="rotate(-0 576.988615 142.625097)">≈ 24 GB（+19%/年）</text>
   </g>
   <g id="text_20">
    <text style="fill: #1a4f7a; font: 10px 'Microsoft YaHei', 'SimHei', 'PingFang SC', 'Noto Sans CJK SC', 'Source Han Sans SC', 'WenQuanYi Zen Hei', sans-serif; text-anchor: start" x="576.988615" y="301.725678" transform="rotate(-0 576.988615 301.725678)">用户可用 10.8 GB</text>
   </g>
   <g id="line2d_23">
    <path d="M 80.358462 283.206857 
L 202.081538 283.206857 
L 323.804615 283.206857 
L 445.527692 256.932 
L 567.250769 230.657143 
" clip-path="url(#pacf0ef0364)" style="fill: none; stroke: #1a4f7a; stroke-width: 2.4; stroke-linecap: square"/>
   </g>
   <g id="line2d_24">
    <path d="M 80.358462 283.206857 
L 202.081538 256.932 
L 323.804615 230.657143 
L 445.527692 178.107429 
L 567.250769 125.557714 
" clip-path="url(#pacf0ef0364)" style="fill: none; stroke-dasharray: 4.8,6.4; stroke-dashoffset: 0; stroke: #9aa6b2; stroke-width: 1.6"/>
   </g>
   <g id="line2d_25">
    <path d="M 80.358462 322.619143 
L 202.081538 327.874114 
L 323.804615 335.756571 
L 445.527692 317.364171 
L 567.250769 298.971771 
" clip-path="url(#pacf0ef0364)" style="fill: none; stroke-dasharray: 9.6,6.4; stroke-dashoffset: 0; stroke: #1a4f7a; stroke-width: 1.6"/>
   </g>
   <g id="PathCollection_1">
    <defs>
     <path id="mb543592d3b" d="M 0 2 
C 0.530406 2 1.03916 1.789267 1.414214 1.414214 
C 1.789267 1.03916 2 0.530406 2 0 
C 2 -0.530406 1.789267 -1.03916 1.414214 -1.414214 
C 1.03916 -1.789267 0.530406 -2 0 -2 
C -0.530406 -2 -1.03916 -1.789267 -1.414214 -1.414214 
C -1.789267 -1.03916 -2 -0.530406 -2 0 
C -2 0.530406 -1.789267 1.03916 -1.414214 1.414214 
C -1.03916 1.789267 -0.530406 2 0 2 
z
" style="stroke: #1a4f7a"/>
    </defs>
    <g clip-path="url(#pacf0ef0364)">
     <use xlink:href="#mb543592d3b" x="80.358462" y="283.206857" style="fill: #1a4f7a; stroke: #1a4f7a"/>
     <use xlink:href="#mb543592d3b" x="202.081538" y="283.206857" style="fill: #1a4f7a; stroke: #1a4f7a"/>
     <use xlink:href="#mb543592d3b" x="323.804615" y="283.206857" style="fill: #1a4f7a; stroke: #1a4f7a"/>
     <use xlink:href="#mb543592d3b" x="445.527692" y="256.932" style="fill: #1a4f7a; stroke: #1a4f7a"/>
     <use xlink:href="#mb543592d3b" x="567.250769" y="230.657143" style="fill: #1a4f7a; stroke: #1a4f7a"/>
    </g>
   </g>
   <g id="legend_1">
    <g id="patch_6">
     <path d="M 196.959375 509.025758 
L 639.320625 509.025758 
Q 641.120625 509.025758 641.120625 507.225758 
L 641.120625 480.26232 
Q 641.120625 478.46232 639.320625 478.46232 
L 196.959375 478.46232 
Q 195.159375 478.46232 195.159375 480.26232 
L 195.159375 507.225758 
Q 195.159375 509.025758 196.959375 509.025758 
z
" style="fill: #ffffff; opacity: 0.8; stroke: #cccccc; stroke-linejoin: miter"/>
    </g>
    <g id="patch_7">
     <path d="M 198.759375 489.256695 
L 214.959375 489.256695 
L 214.959375 482.956695 
L 198.759375 482.956695 
z
" style="fill: #5589b8; opacity: 0.55"/>
    </g>
    <g id="text_21">
     <text style="font: 9px 'Microsoft YaHei', 'SimHei', 'PingFang SC', 'Noto Sans CJK SC', 'Source Han Sans SC', 'WenQuanYi Zen Hei', sans-serif; text-anchor: start" x="222.159375" y="489.256695" transform="rotate(-0 222.159375 489.256695)">传统应用</text>
    </g>
    <g id="patch_8">
     <path d="M 198.759375 503.188414 
L 214.959375 503.188414 
L 214.959375 496.888414 
L 198.759375 496.888414 
z
" style="fill: #e8a35e; opacity: 0.7"/>
    </g>
    <g id="text_22">
     <text style="font: 9px 'Microsoft YaHei', 'SimHei', 'PingFang SC', 'Noto Sans CJK SC', 'Source Han Sans SC', 'WenQuanYi Zen Hei', sans-serif; text-anchor: start" x="222.159375" y="503.188414" transform="rotate(-0 222.159375 503.188414)">端侧 AI（1 模型 + KV）</text>
    </g>
    <g id="line2d_26">
     <path d="M 333.943594 486.106695 
L 342.043594 486.106695 
L 350.143594 486.106695 
" style="fill: none; stroke: #1a4f7a; stroke-width: 2.4; stroke-linecap: square"/>
    </g>
    <g id="text_23">
     <text style="font: 9px 'Microsoft YaHei', 'SimHei', 'PingFang SC', 'Noto Sans CJK SC', 'Source Han Sans SC', 'WenQuanYi Zen Hei', sans-serif; text-anchor: start" x="357.343594" y="489.256695" transform="rotate(-0 357.343594 489.256695)">LPDDR 容量（冻结）</text>
    </g>
    <g id="line2d_27">
     <path d="M 333.943594 500.038414 
L 342.043594 500.038414 
L 350.143594 500.038414 
" style="fill: none; stroke-dasharray: 9.6,6.4; stroke-dashoffset: 0; stroke: #1a4f7a; stroke-width: 1.6"/>
    </g>
    <g id="text_24">
     <text style="font: 9px 'Microsoft YaHei', 'SimHei', 'PingFang SC', 'Noto Sans CJK SC', 'Source Han Sans SC', 'WenQuanYi Zen Hei', sans-serif; text-anchor: start" x="357.343594" y="503.188414" transform="rotate(-0 357.343594 503.188414)">用户可用</text>
    </g>
    <g id="line2d_28">
     <path d="M 458.118281 486.106695 
L 466.218281 486.106695 
L 474.318281 486.106695 
" style="fill: none; stroke-dasharray: 4.8,6.4; stroke-dashoffset: 0; stroke: #9aa6b2; stroke-width: 1.6"/>
    </g>
    <g id="text_25">
     <text style="font: 9px 'Microsoft YaHei', 'SimHei', 'PingFang SC', 'Noto Sans CJK SC', 'Source Han Sans SC', 'WenQuanYi Zen Hei', sans-serif; text-anchor: start" x="481.518281" y="489.256695" transform="rotate(-0 481.518281 489.256695)">反事实：RAM 仍便宜时的容量</text>
    </g>
    <g id="patch_9">
     <path d="M 458.118281 503.188414 
L 474.318281 503.188414 
L 474.318281 496.888414 
L 458.118281 496.888414 
z
" style="fill: #d62828; opacity: 0.28"/>
    </g>
    <g id="text_26">
     <text style="font: 9px 'Microsoft YaHei', 'SimHei', 'PingFang SC', 'Noto Sans CJK SC', 'Source Han Sans SC', 'WenQuanYi Zen Hei', sans-serif; text-anchor: start" x="481.518281" y="503.188414" transform="rotate(-0 481.518281 503.188414)">赤字（需求 &gt; 用户可用，由回收吸收）</text>
    </g>
   </g>
   <g id="PathCollection_2">
    <defs>
     <path id="m304b45725b" d="M 0 3.464102 
C 0.91869 3.464102 1.799877 3.099102 2.44949 2.44949 
C 3.099102 1.799877 3.464102 0.91869 3.464102 0 
C 3.464102 -0.91869 3.099102 -1.799877 2.44949 -2.44949 
C 1.799877 -3.099102 0.91869 -3.464102 0 -3.464102 
C -0.91869 -3.464102 -1.799877 -3.099102 -2.44949 -2.44949 
C -3.099102 -1.799877 -3.464102 -0.91869 -3.464102 0 
C -3.464102 0.91869 -3.099102 1.799877 -2.44949 2.44949 
C -1.799877 3.099102 -0.91869 3.464102 0 3.464102 
z
" style="stroke: #ffffff; stroke-width: 1.5"/>
    </defs>
    <g clip-path="url(#pacf0ef0364)">
     <use xlink:href="#m304b45725b" x="235.278741" y="330.023875" style="fill: #b03030; stroke: #ffffff; stroke-width: 1.5"/>
    </g>
   </g>
   <g id="text_27">
    <text style="fill: #b03030; font: 700 11px 'Microsoft YaHei', 'SimHei', 'PingFang SC', 'Noto Sans CJK SC', 'Source Han Sans SC', 'WenQuanYi Zen Hei', sans-serif; text-anchor: start" x="241.364895" y="318.857061" transform="rotate(-0 241.364895 318.857061)">交叉点 ≈ 2026</text>
   </g>
   <g id="text_28">
    <text style="fill: #1a4f7a; font: 10px 'Microsoft YaHei', 'SimHei', 'PingFang SC', 'Noto Sans CJK SC', 'Source Han Sans SC', 'WenQuanYi Zen Hei', sans-serif; text-anchor: start" x="90.096308" y="401.443714" transform="rotate(-0 90.096308 401.443714)">传统应用 —— 浏览器 · 超级App · 相机/视频 · 游戏（约占需求 70%）</text>
   </g>
   <g id="text_29">
    <text style="fill: #7a4a10; font: 10px 'Microsoft YaHei', 'SimHei', 'PingFang SC', 'Noto Sans CJK SC', 'Source Han Sans SC', 'WenQuanYi Zen Hei', sans-serif; text-anchor: start" x="90.096308" y="356.119586" transform="rotate(-0 90.096308 356.119586)">端侧 AI —— 1 个常驻模型 + KV（次要增量）</text>
   </g>
   <g id="text_30">
    <text style="fill: #1a4f7a; font: 700 10px 'Microsoft YaHei', 'SimHei', 'PingFang SC', 'Noto Sans CJK SC', 'Source Han Sans SC', 'WenQuanYi Zen Hei', sans-serif; text-anchor: start" x="90.096308" y="275.981271" transform="rotate(-0 90.096308 275.981271)">旗舰 LPDDR（中位）—— 冻结在 ≈12 GB 直到 2026</text>
   </g>
   <g id="text_31">
    <text style="fill: #1a4f7a; font: 9.5px 'Microsoft YaHei', 'SimHei', 'PingFang SC', 'Noto Sans CJK SC', 'Source Han Sans SC', 'WenQuanYi Zen Hei', sans-serif; text-anchor: start" x="90.096308" y="315.393557" transform="rotate(-0 90.096308 315.393557)">用户可用（容量 − OS/驱动/钉住预留）</text>
   </g>
   <g id="text_32">
    <text style="fill: #b03030; font: 700 11px 'Microsoft YaHei', 'SimHei', 'PingFang SC', 'Noto Sans CJK SC', 'Source Han Sans SC', 'WenQuanYi Zen Hei', sans-serif; text-anchor: start" x="390.752308" y="274.010657" transform="rotate(-0 390.752308 274.010657)">赤字 = 塞不下的工作集</text>
   </g>
   <g id="text_33">
    <text style="fill: #b03030; font: 9.5px 'Microsoft YaHei', 'SimHei', 'PingFang SC', 'Noto Sans CJK SC', 'Source Han Sans SC', 'WenQuanYi Zen Hei', sans-serif; text-anchor: start" x="390.752308" y="282.549986" transform="rotate(-0 390.752308 282.549986)">由 zram 压缩 + lmkd 杀进程吸收</text>
   </g>
   <g id="patch_10">
    <path d="M 441.200074 286.783326 
Q 457.698852 295.686795 472.721764 303.793821 
" style="fill: none; stroke: #b03030; stroke-width: 1.5; stroke-linecap: round"/>
    <path d="M 470.151432 300.134123 
L 472.721764 303.793821 
L 468.251806 303.654268 
" style="fill: none; stroke: #b03030; stroke-width: 1.5; stroke-linecap: round"/>
   </g>
   <g id="text_34">
    <g id="patch_11">
     <path d="M 94.965231 121.992956 
L 345.100231 121.992956 
Q 349.850231 121.992956 349.850231 117.242956 
L 349.850231 78.262971 
Q 349.850231 73.512971 345.100231 73.512971 
L 94.965231 73.512971 
Q 90.215231 73.512971 90.215231 78.262971 
L 90.215231 117.242956 
Q 90.215231 121.992956 94.965231 121.992956 
z
" style="fill: #fff7f3; stroke: #d9a08c; stroke-linejoin: miter"/>
    </g>
    <text style="font: 9.5px 'Microsoft YaHei', 'SimHei', 'PingFang SC', 'Noto Sans CJK SC', 'Source Han Sans SC', 'WenQuanYi Zen Hei', sans-serif" transform="translate(94.965231 85.857034)">天花板为何冻结 —— 是价格，不是物理</text>
    <!-- 移动 DRAM 合约价：≈$3/GB(2023) → ≈$20/GB(2026Q2)， -->
    <g transform="translate(94.965231 100.369175)">
     <text>
      <tspan style="font: 9.5px 'Microsoft YaHei'" x="0 9.5 19 21.811035 29.047363 35.249268 41.933594 51.215576 54.026611 63.526611 73.026611 82.526611 92.026611 169.715088 175.786133 181.357178 185.416016 192.480713 198.441406 201.614258 207.685303 213.256348 218.827393 224.398438 232.140381 237.336426 240.509277" y="-0.046875">移动 DRAM 合约价：≈20/GB(2026Q2)，</tspan>
      <tspan style="font: 9.5px 'DejaVu Sans'" x="99.082031 105.126221 122.205811 125.912109 131.956299 138.000488 144.044678 150.088867 153.795166 161.755127" y="-0.046875">3/(2023)→≈</tspan>
      <tspan style="font: oblique 9.5px 'DejaVu Sans'" x="108.326904 115.688477" y="-0.046875">GB</tspan>
     </text>
    </g>
    <text style="font: 9.5px 'Microsoft YaHei', 'SimHei', 'PingFang SC', 'Noto Sans CJK SC', 'Source Han Sans SC', 'WenQuanYi Zen Hei', sans-serif" transform="translate(94.965231 114.881315)">LTA 高至 $21/GB。“多加 RAM” 这条便宜出路没了。</text>
   </g>
  </g>
  <g id="text_35">
   <text style="fill: #222222; font: 700 15px 'Microsoft YaHei', 'SimHei', 'PingFang SC', 'Noto Sans CJK SC', 'Source Han Sans SC', 'WenQuanYi Zen Hei', sans-serif; text-anchor: middle" x="414" y="19.656" transform="rotate(-0 414 19.656)">挤压：手机内存需求 vs 被价格冻结的容量天花板（2024–2028）</text>
  </g>
  <g id="text_36">
   <text style="fill: #555555; font: 10.5px 'Microsoft YaHei', 'SimHei', 'PingFang SC', 'Noto Sans CJK SC', 'Source Han Sans SC', 'WenQuanYi Zen Hei', sans-serif; text-anchor: middle" x="414" y="40.4352" transform="rotate(-0 414 40.4352)">传统应用持续增长 · DRAM 涨价让 RAM 冻结在 12 GB 附近 · 回收顶着缺口，直到顶不住</text>
  </g>
  <g id="text_37">
   <text style="fill: #777777; font: 8px 'Microsoft YaHei', 'SimHei', 'PingFang SC', 'Noto Sans CJK SC', 'Source Han Sans SC', 'WenQuanYi Zen Hei', sans-serif; text-anchor: start" x="62.1" y="530.712" transform="rotate(-0 62.1 530.712)">中位旗舰 CAGR：传统 ~16%/年 · AI ~28%/年 · 总需求 ~19%/年 · 实际容量 ~7%/年（2024–26 约为 0）· 反事实 ~19%/年。</text>
  </g>
  <g id="text_38">
   <text style="fill: #777777; font: 8px 'Microsoft YaHei', 'SimHei', 'PingFang SC', 'Noto Sans CJK SC', 'Source Han Sans SC', 'WenQuanYi Zen Hei', sans-serif; text-anchor: start" x="62.1" y="544.752" transform="rotate(-0 62.1 544.752)">来源：TrendForce、IDC、Counterpoint、GSMArena、wccftech 2025–26（见 §9）。2026.5 右侧为外推。</text>
  </g>
 </g>
 <defs>
  <clipPath id="pacf0ef0364">
   <rect x="62.1" y="73.008" width="712.08" height="367.848"/>
  </clipPath>
 </defs>
</svg>
