<svg xmlns="http://www.w3.org/2000/svg" viewBox="0 0 1160 514" font-family="-apple-system,Segoe UI,Roboto,Helvetica,Arial,Noto Sans CJK SC,sans-serif">
<defs><marker id="ar" markerWidth="9" markerHeight="9" refX="7" refY="4.5" orient="auto"><path d="M0,0 L9,4.5 L0,9 z" fill="#475569"/></marker></defs>
<rect x="0" y="0" width="1160" height="514" fill="#ffffff"/>
<text x="580.0" y="34" text-anchor="middle" font-size="20" font-weight="700" fill="#0f172a">ARM 内存安全架构：软件 Sanitizer + TrustZone  vs  MTE + CCA/RME 四世界</text>
<rect x="20" y="58" width="548" height="442" rx="12" fill="none" stroke="#e2e8f0" stroke-width="1.5"/>
<rect x="592" y="58" width="548" height="442" rx="12" fill="none" stroke="DC2626" stroke-width="1.5" opacity="0.55"/>
<line x1="572" y1="266.0" x2="592" y2="266.0" stroke="DC2626" stroke-width="3" marker-end="url(#ar2)"/>
<defs><marker id="ar2" markerWidth="10" markerHeight="10" refX="7" refY="5" orient="auto"><path d="M0,0 L10,5 L0,10 z" fill="DC2626"/></marker></defs>
<text x="582" y="256.0" text-anchor="middle" font-size="11" font-weight="700" fill="DC2626">演进</text>
<rect x="24" y="64" width="540" height="32" rx="8" fill="475569"/>
<text x="294" y="85" text-anchor="middle" font-size="14.5" font-weight="700" fill="#ffffff">原始 — 软件 Sanitizer + TrustZone</text>
<rect x="44" y="114" width="500" height="66" rx="9" fill="#f1f5f9" stroke="#cbd5e1" stroke-width="1"/>
<text x="60" y="139" font-size="13.5" font-weight="700" fill="#0f172a">Normal World (EL0–EL2)</text>
<text x="60" y="161" font-size="11" fill="#334155">App 无保护 · App+ASan 2× 开销 · Guest VM 无隔离</text>
<line x1="294" y1="178" x2="294" y2="208" stroke="#475569" stroke-width="2" marker-end="url(#ar)"/>
<rect x="44" y="210" width="500" height="66" rx="9" fill="#f1f5f9" stroke="#cbd5e1" stroke-width="1"/>
<text x="60" y="235" font-size="13.5" font-weight="700" fill="#0f172a">Linux 内核 + Hypervisor</text>
<text x="60" y="257" font-size="11" fill="#334155">可完全访问所有 Normal-world 内存</text>
<line x1="294" y1="274" x2="294" y2="304" stroke="#475569" stroke-width="2" marker-end="url(#ar)"/>
<text x="306" y="288" font-size="11" fill="#64748b">SMC 调用</text>
<rect x="44" y="306" width="500" height="66" rx="9" fill="#f1f5f9" stroke="#cbd5e1" stroke-width="1"/>
<text x="60" y="331" font-size="13.5" font-weight="700" fill="#0f172a">Secure World (S-EL0/1)</text>
<text x="60" y="353" font-size="11" fill="#334155">TA：DRM/密钥/支付 · 共享 Trusted OS（大 TCB）· 16–64MiB 静态</text>
<line x1="294" y1="370" x2="294" y2="400" stroke="#475569" stroke-width="2" marker-end="url(#ar)"/>
<rect x="44" y="402" width="500" height="66" rx="9" fill="#f1f5f9" stroke="#cbd5e1" stroke-width="1"/>
<text x="60" y="427" font-size="13.5" font-weight="700" fill="#0f172a">Secure Monitor (EL3)</text>
<rect x="596" y="64" width="540" height="32" rx="8" fill="DC2626"/>
<text x="866" y="85" text-anchor="middle" font-size="14.5" font-weight="700" fill="#ffffff">演进 — MTE + CCA/RME 四世界</text>
<rect x="616" y="114" width="500" height="66" rx="9" fill="#FDECEC" stroke="DC2626" stroke-width="2"/>
<circle cx="632" cy="130" r="9" fill="DC2626"/><text x="632" y="134" text-anchor="middle" font-size="12" font-weight="700" fill="#ffffff">*</text>
<text x="648" y="139" font-size="13.5" font-weight="700" fill="#0f172a">Root World (R-EL3)</text>
<text x="632" y="161" font-size="11" fill="#334155">Root Monitor 管理世界切换 + GPT</text>
<line x1="866" y1="178" x2="866" y2="208" stroke="#475569" stroke-width="2" marker-end="url(#ar)"/>
<text x="878" y="192" font-size="11" fill="#64748b">GPT 分派</text>
<rect x="616" y="210" width="500" height="66" rx="9" fill="#FDECEC" stroke="DC2626" stroke-width="2"/>
<circle cx="632" cy="226" r="9" fill="DC2626"/><text x="632" y="230" text-anchor="middle" font-size="12" font-weight="700" fill="#ffffff">*</text>
<text x="648" y="235" font-size="13.5" font-weight="700" fill="#0f172a">四世界：Secure · Realm · Normal</text>
<text x="632" y="257" font-size="11" fill="#334155">Realm VM：ML 推理 / 机密负载(RMM 隔离) · Normal：App + MTE ~1–5%</text>
<line x1="866" y1="274" x2="866" y2="304" stroke="#475569" stroke-width="2" marker-end="url(#ar)"/>
<text x="878" y="288" font-size="11" fill="#64748b">硬件强制</text>
<rect x="616" y="306" width="500" height="66" rx="9" fill="#FDECEC" stroke="DC2626" stroke-width="2"/>
<circle cx="632" cy="322" r="9" fill="DC2626"/><text x="632" y="326" text-anchor="middle" font-size="12" font-weight="700" fill="#ffffff">*</text>
<text x="648" y="331" font-size="13.5" font-weight="700" fill="#0f172a">GPC / GPT 每核硬件单元</text>
<text x="632" y="353" font-size="11" fill="#334155">每 4KB 粒度映射四世界之一 · NS↔Realm 运行时动态分配</text>
<text x="44" y="492" font-size="11.5" fill="#64748b">二元划分 · 内存静态分区 · TCB 共享 · 开发者受厂商门控</text>
<text x="616" y="492" font-size="11.5" fill="DC2626" font-weight="600">四世界硬件强制隔离 + MTE 低开销内存标签（~1–5%）</text>
</svg>
